<svg xmlns="http://www.w3.org/2000/svg" width="272" height="92">
<path stroke="#000000" fill="#a5bfcc" d="M48.42355982274754,25.702895125553958 C48.42355982274754,38.47289512555398 38.43355982274756,47.882895125553965 26.173559822747528,47.882895125553965 C13.913559822747482,47.882895125553965 3.9235598227475013,38.47289512555398 3.9235598227475013,25.702895125553958 C3.9235598227475013,12.842895125553937 13.913559822747482,3.5228951255539265 26.173559822747528,3.5228951255539265 C38.43355982274756,3.5228951255539265 48.42355982274754,12.842895125553937 48.42355982274754,25.702895125553958 M38.683559822747505,25.702895125553958 C38.683559822747505,17.722895125553933 32.893559822747484,12.26289512555394 26.173559822747528,12.26289512555394 C19.453559822747494,12.26289512555394 13.66355982274751,17.722895125553933 13.66355982274751,25.702895125553958 C13.66355982274751,33.60289512555391 19.453559822747494,39.142895125553984 26.173559822747528,39.142895125553984 C32.893559822747484,39.142895125553984 38.683559822747505,33.59289512555393 38.683559822747505,25.702895125553958 " stroke-width="1"/>
<path stroke="#000000" fill="#ddad9b" d="M48.41765140324973,26.44144756277698 C48.41765140324973,39.211447562777 38.42765140324975,48.62144756277697 26.16765140324977,48.62144756277697 C13.907651403249782,48.62144756277697 3.917651403249744,39.211447562777 3.917651403249744,26.44144756277698 C3.917651403249744,13.59144756277697 13.907651403249782,4.261447562776965 26.16765140324977,4.261447562776965 C38.42765140324975,4.261447562776965 48.41765140324973,13.581447562776972 48.41765140324973,26.44144756277698 M38.67765140324969,26.44144756277698 C38.67765140324969,18.461447562776968 32.88765140324973,13.001447562776974 26.16765140324977,13.001447562776974 C19.447651403249765,13.001447562776974 13.657651403249782,18.461447562776968 13.657651403249782,26.44144756277698 C13.657651403249782,34.34144756277697 19.447651403249765,39.88144756277699 26.16765140324977,39.88144756277699 C32.88765140324973,39.88144756277699 38.67765140324969,34.33144756277698 38.67765140324969,26.44144756277698 " stroke-width="1"/>
</svg>
