<svg xmlns="http://www.w3.org/2000/svg" width="400" height="400">
<path d="M177.2242328660452,58.67070390259613 L198.71744478584188,47.17982755966574 L326.3648911824929,282.4963843224395 L304.8716792626964,293.9872606653691 L177.2242328660452,58.67070390259613 M335.9132112755906,276.69447909236396 L208.26576487894013,41.377922329592025 L229.75897679873665,29.887045986661633 L357.40642319538733,265.2036027494341 L335.9132112755906,276.69447909236396 M252.19167205025087,318.07098293530214 L230.6984601304536,329.56185927823145 L103.05101373380302,94.24530251545838 L124.54422565359985,82.75442617252843 L252.19167205025087,318.07098293530214 M261.7399921433481,312.2690777052262 L134.09254574669785,76.95252094245353 L155.58575766649497,65.46164459952348 L283.2332040631462,300.77820136229656 L261.7399921433481,312.2690777052262 M54.401058223508656,117.99934629643991 L182.04850462015943,353.3159030592128 L160.55529270036243,364.8067794021423 L32.90784630371178,129.49022263936945 L54.401058223508656,117.99934629643991 M213.0900366330543,336.02312148620786 L191.5968247132571,347.5139978291377 L63.94937831660664,112.19744106636517 L85.44259023640353,100.70656472343512 L213.0900366330543,336.02312148620786 " stroke="#000000" fill="#a5bfcc" stroke-width="1"/>
<path d="M54.62489156026244,211.64027644613157 L43.51618601090717,189.9470733913604 L281.05490167574897,66.48407886032004 L292.16360722510524,88.17728191509131 L54.62489156026244,211.64027644613157 M275.4228842947009,56.83457622450578 L37.88416862985931,180.29757075554573 L26.77546308050332,158.6043677007748 L264.3141787453444,35.14137316973449 L275.4228842947009,56.83457622450578 M315.31126534721795,141.27525515080265 L326.419970896574,162.96845820557405 L88.88125523173116,286.43145273661423 L77.77254968237578,264.73824968184306 L315.31126534721795,141.27525515080265 M309.67924796617035,131.62575251498765 L72.14053230132791,255.08874704602806 L61.031826751972034,233.39554399125734 L298.57054241681317,109.93254946021688 L309.67924796617035,131.62575251498765 M111.77060741695689,335.4941710025553 L349.309323081799,212.03117647151515 L360.4180286311554,233.72437952628707 L122.87931296631353,357.1873740573266 L111.77060741695689,335.4941710025553 M332.5686001513958,180.68847078092966 L343.6773057007514,202.38167383570067 L106.13859003590983,325.8446683667408 L95.02988448655424,304.1514653119696 L332.5686001513958,180.68847078092966 " stroke="#000000" fill="#ddad9b" stroke-width="1"/>
</svg>

