<svg xmlns="http://www.w3.org/2000/svg" width="380" height="380">
<path stroke="#000000" fill="#a5bfcc" fill-opacity="1" stroke-linejoin="miter" stroke-miterlimit="4" stroke-dasharray="none" stroke-opacity="1" d="M167.29295037395252,17.813272446598337 L162.74351190667392,124.4975635170034 C160.08870204829498,125.07540945595098 157.50818087533327,125.82503646026656 154.98503802122764,126.73154052703926 L158.63444125178705,41.15306764908137 L146.64533742649024,40.641805029404544 L142.71900027694164,132.7143758127312 C136.33448102719962,136.74890538790646 130.71292039928636,141.91062448621994 126.14950412983035,147.928493452471 L34.07693334650344,144.0021563029228 L33.565670726825886,155.9912601282178 L119.14414360478429,159.64066335877504 C118.02612763593856,162.07747270271318 117.05953440950253,164.58480748377224 116.25777418943261,167.1807855003999 L9.573483119026918,162.63134703312068 L9.062220499350389,174.62045085841697 L113.85264377708393,178.83890013193928 C113.70703677067007,180.18650015408303 113.61189068351348,181.5506450977382 113.55334216646378,182.9236072950511 C113.49479364941658,184.29656949236482 113.47345664366958,185.6639520278262 113.50381355220088,187.01896576274055 L8.734692883620113,182.30097049649726 L8.22343026394347,194.29007432179287 L114.90772133434842,198.8395127890716 C115.4855970969491,201.49362328306017 116.23515337660189,204.07580294871735 117.14169834438371,206.59798667451736 L31.56322546642707,202.94858344396056 L31.051962846749973,214.93768726925543 L123.15575525462128,218.86535583187617 C127.18852431913967,225.23787918222735 132.3284108718641,230.84729860537846 138.339982682887,235.40229894137093 L134.41231412026775,327.50609134924196 L146.40141794556405,328.01735396891905 L150.0521525891927,242.40765946641687 C152.48900283414105,243.5247163069567 154.99626689053497,244.49296802608848 157.5922747308166,245.2940288817686 L153.0415048504653,352.00954157671885 L165.0306086757622,352.52080419639617 L169.2503893623557,247.69915929411627 C170.5979936450223,247.84466639133223 171.9621343281549,247.9399123876887 173.3350965254678,247.99846090473733 C174.7080587227813,248.05700942178652 176.07535560048737,248.07824268386162 177.43045499315716,248.04798951899903 L172.7111283138414,352.8483318121255 L184.70023213913797,353.35959443180144 L189.2510020194882,246.64408173685229 C191.9057820542137,246.06693516229478 194.48637395183746,245.31564966528327 197.00947590493436,244.4101047268171 L193.35874126130435,330.01979922932026 L205.34784508660053,330.5310618489956 L209.27551364922093,238.42726944112513 C215.65304213078323,234.40058915000947 221.25181585621672,229.24910850740764 225.81245675871585,223.24304201285827 L317.9162491665867,227.17071057547855 L318.4275117862645,215.1816067501827 L232.84903890830745,211.53220351962608 C233.96701397614314,209.09635330399328 234.9336779272409,206.5873600302388 235.7354083236576,203.99208137800076 L342.4196993940626,208.54151984528028 L342.93096201373896,196.55241601998426 L238.14053873600668,192.33396674646247 C238.2861419079516,190.9864566425964 238.38129182957974,189.62222178066378 238.43984034662802,188.24925958335024 C238.49838886367687,186.87629738603675 238.51972203495055,185.50900476885357 238.48936896088858,184.15390111566137 L343.2584896294675,188.87189638190426 L343.7697522491475,176.8827925566087 L237.08546117874155,172.3333540893293 C236.50761523979511,169.67854423095076 235.75798823547987,167.09802305798917 234.85148416870655,164.57488020388342 L320.42995704666396,168.22428343444102 L320.94121966634316,156.23517960914535 L228.86864888301594,152.30884245959697 C224.83411930783942,145.9243232098533 219.6724002095257,140.30276258194112 213.65453124327544,135.739346312485 L217.58086839282353,43.66677552915829 L205.59176456752826,43.1555129094816 L201.94236133697157,128.733985787439 C199.50555199303145,127.61596981859348 196.99821721197353,126.64937659215705 194.40223919534688,125.84761637208736 L198.95167766262537,19.16332530168211 L186.9625738373285,18.65206268200535 L182.74412456380654,123.44248595974003 C181.396524541663,123.29687895332518 180.03237959800813,123.20173286616674 178.65941740069505,123.14318434911826 C177.28645520338162,123.0846358320694 175.9191625861979,123.06330266079503 174.5640589330049,123.09365573485633 L179.28205419924964,18.324535066275093 L167.29295037395252,17.813272446598337 M178.1494861940911,135.10106654986913 C206.06572523146932,136.2915149528311 227.64119534126692,159.8217483614264 226.45073652133195,187.73799696367314 C225.26025729350627,215.65425470473565 201.76127633431875,237.23103752392097 173.84502773207367,236.04057870398708 C145.92876956495894,234.85010946708127 124.3519867457739,211.35112850789477 125.54244599175877,183.43486991472815 C126.73290481169403,155.5186213124813 150.233237591844,133.91060772993433 178.1494861940911,135.10106654986913 "/>
<path stroke="#000000" fill="#ddad9b" fill-opacity="1" stroke-linejoin="miter" stroke-miterlimit="4" stroke-dasharray="none" stroke-opacity="1" d="M160.15264301633738,18.33618822278184 L160.15264301633738,125.11743822278187 C157.52486301633735,125.80786822278178 154.9786230163374,126.66675822278192 152.49639301633738,127.6799382227819 L152.49639301633738,42.02368822278184 L140.49639301633738,42.02368822278184 L140.49639301633738,134.17993822278186 C134.2895630163373,138.48281822278182 128.89302301633734,143.8793582227819 124.59014301633727,150.08618822278186 L32.43389301633738,150.08618822278186 L32.43389301633738,162.08618822278186 L118.09014301633738,162.08618822278186 C117.07696301633734,164.56841822278182 116.21807301633737,167.11465822278188 115.52764301633738,169.74243822278186 L8.746393016337379,169.74243822278186 L8.746393016337379,181.7424382227819 L113.62139301633738,181.4924382227819 C113.53333301633734,182.8450182227819 113.49639301633738,184.2119782227819 113.49639301633738,185.58618822278186 C113.49639301633738,186.96039822278186 113.53333301633734,188.32744822278192 113.62139301633738,189.67993822278186 L8.746393016337379,189.4299382227819 L8.746393016337379,201.4299382227819 L115.52764301633738,201.4299382227819 C116.21807301633737,204.05701822278183 117.07696301633734,206.60491822278192 118.09014301633738,209.0861882227818 L32.43389301633738,209.0861882227818 L32.43389301633738,221.0861882227819 L124.62139301633738,221.0861882227819 C128.92200301633738,227.28110822278194 134.29621301633733,232.66644822278198 140.49639301633738,236.96118822278186 L140.49639301633738,329.14868822278174 L152.49639301633738,329.14868822278174 L152.49639301633738,243.4611882227819 C154.9786230163374,244.47340822278198 157.52486301633735,245.33395822278186 160.15264301633738,246.02368822278186 L160.15264301633738,352.83618822278197 L172.15264301633727,352.83618822278197 L171.90264301633732,247.9299382227818 C173.2552230163373,248.01789822278192 174.62218301633726,248.0549382227819 175.99639301633738,248.0549382227819 C177.37060301633736,248.0549382227819 178.7375630163373,248.01789822278192 180.0901430163374,247.9299382227818 L179.8401430163373,352.83618822278197 L191.8401430163373,352.83618822278197 L191.8401430163373,246.02368822278186 C194.46792301633732,245.33395822278186 197.01416301633722,244.47340822278198 199.4963930163373,243.4611882227819 L199.4963930163373,329.14868822278174 L211.49639301633718,329.14868822278174 L211.49639301633718,236.96118822278186 C217.69657301633734,232.66644822278198 223.0707830163373,227.28110822278194 227.3713930163373,221.0861882227819 L319.55889301633727,221.0861882227819 L319.55889301633727,209.0861882227818 L233.9026430163374,209.0861882227818 C234.91582301633733,206.60491822278192 235.7747130163372,204.05701822278183 236.4651430163374,201.4299382227819 L343.24639301633727,201.4299382227819 L343.24639301633727,189.4299382227819 L238.37139301633718,189.67993822278186 C238.45945301633722,188.32744822278192 238.4963930163374,186.96039822278186 238.4963930163374,185.58618822278186 C238.4963930163374,184.2119782227819 238.45945301633722,182.8450182227819 238.37139301633718,181.4924382227819 L343.24639301633727,181.7424382227819 L343.24639301633727,169.74243822278186 L236.4651430163374,169.74243822278186 C235.7747130163372,167.11465822278188 234.91582301633733,164.56841822278182 233.9026430163374,162.08618822278186 L319.55889301633727,162.08618822278186 L319.55889301633727,150.08618822278186 L227.4026430163373,150.08618822278186 C223.09976301633733,143.8793582227819 217.70322301633738,138.48281822278182 211.49639301633718,134.17993822278186 L211.49639301633718,42.02368822278184 L199.4963930163373,42.02368822278184 L199.4963930163373,127.6799382227819 C197.01416301633722,126.66675822278192 194.46792301633732,125.80786822278178 191.8401430163373,125.11743822278187 L191.8401430163373,18.33618822278184 L179.8401430163373,18.33618822278184 L180.0901430163374,123.21118822278189 C178.7375630163373,123.1231282227819 177.37060301633736,123.08618822278183 175.99639301633738,123.08618822278183 C174.62218301633726,123.08618822278183 173.2552230163373,123.1231282227819 171.90264301633732,123.21118822278189 L172.15264301633727,18.33618822278184 L160.15264301633738,18.33618822278184 M175.99639301633738,135.0549382227819 C203.93800301633738,135.05492822278183 226.49639301633718,157.6445682227819 226.49639301633718,185.58618822278186 C226.49637301633723,213.52781822278183 203.93801301633724,236.0861882227818 175.99639301633738,236.0861882227818 C148.05476301633735,236.08617822278183 125.49639301633738,213.52781822278183 125.49639301633738,185.58618822278186 C125.49639301633738,157.6445682227819 148.05477301633738,135.0549382227819 175.99639301633738,135.0549382227819 " id="path3423"/>
</svg>
