<!-- Made in Mondrian.io -->
<svg xmlns="http://www.w3.org/2000/svg" width="20" height="20" xmlns:mondrian="https://mondrian.io/xml">
<path d="M5.26349768,11.79449002 C5.26349768,11.79449002 10.21324515,6.84474255 10.21324515,6.84474255 L13.04167228,9.67316967 C13.04167228,9.67316967 8.09192481,14.62291714 8.09192481,14.62291714 L5.25705902,16.08155704 C5.25705902,16.08155704 4.27502452,17.06359155 3.87401022,17.46460585 C3.47299592,17.86562015 2.82282328,17.86562015 2.42180898,17.46460585 C2.02079468,17.06359155 2.02079468,16.41341890 2.42180898,16.01240460 C2.42180898,16.01240460 3.80485778,14.62935580 3.80485778,14.62935580 L5.26349768,11.79449002 " stroke="rgba(0, 0, 0, 1)" fill="none" stroke-width="1"/>
<path fill="rgba(0, 0, 0, 1)" stroke="none" d="M16.16397746,0.89401024 L18.99240458,3.72243737 L14.74976390,7.96507806 L11.92133677,5.13665093 L16.16397746,0.89401024" stroke-width="1"/>
<path fill="rgba(0, 0, 0, 1)" stroke="none" d="M11.70228751,3.94148663 L15.94492820,8.18412731 L14.53071464,9.59834088 L10.28807395,5.35570019 L11.70228751,3.94148663 " stroke-width="1"/>
</svg>
