<!-- Made in Mondrian.io -->
<svg xmlns="http://www.w3.org/2000/svg" width="20" height="20" xmlns:mondrian="https://mondrian.io/xml">
<path d="M18.00000000,9.93250260 C16.72019684,7.04025045 13.62055432,5.00000000 10.00000000,5.00000000 C6.37944568,5.00000000 3.27980316,7.04025045 2.00000000,9.93250260 L2.00000000,10.06749740 C3.27980316,12.95974955 6.37944568,15.00000000 10.00000000,15.00000000 C13.62055432,15.00000000 16.72019684,12.95974955 18.00000000,10.06749740 L18.00000000,9.93250260 " fill="rgba(0, 0, 0, 0)" stroke-width="1"/>
<path fill="none" d="M12.15677519,10.00000000 C12.15677519,11.10456950 11.19115405,12.00000000 10.00000000,12.00000000 C8.80884595,12.00000000 7.84322481,11.10456950 7.84322481,10.00000000 C7.84322481,8.89543050 8.80884595,8.00000000 10.00000000,8.00000000 C11.19115405,8.00000000 12.15677519,8.89543050 12.15677519,10.00000000 " stroke-width="1"/>
<path fill="none"  stroke-width="1" d="M16.00000000,2.00000000 L4.00000000,18.00000000"/>
</svg>
