<!-- Made in Mondrian.io -->
<svg xmlns="http://www.w3.org/2000/svg" width="1000" height="500" xmlns:mondrian="https://mondrian.io/xml">
<path d="M648.50000000,346.50000000 L656.50000000,346.50000000 L656.50000000,404.50000000 L648.50000000,404.50000000 L648.50000000,346.50000000z" fill="rgba(241, 214, 128, 1)" stroke="rgba(0, 0, 0, 1)" stroke-linecap="butt" stroke-linejoin="miter" stroke-width="1" opacity="1"/>
<path d="M431.61283852,111.48552706 L537.53059178,96.56870612 L537.53059178,147.54563691 L432.81644935,113.21423454 L431.61283852,111.48552706z" fill="rgba(241, 214, 128, 1)" stroke="rgba(0, 0, 0, 1)" stroke-linecap="butt" stroke-linejoin="miter" stroke-width="1" opacity="1"/>
<path d="M758.50000000,346.50000000 L766.50000000,346.50000000 L766.50000000,404.50000000 L758.50000000,404.50000000 L758.50000000,346.50000000z" fill="rgba(241, 214, 128, 1)" stroke="rgba(0, 0, 0, 1)" stroke-linecap="butt" stroke-linejoin="miter" stroke-width="1" opacity="1"/>
<path d="M700.57472417,39.79538616 L758.34804413,39.79538616 L758.34804413,105.99398195 L700.57472417,105.99398195 L700.57472417,39.79538616z" fill="rgba(238, 22, 38, 1)" stroke="rgba(0, 0, 0, 1)" stroke-linecap="butt" stroke-linejoin="miter" stroke-width="1" opacity="1"/>
<path d="M964.50000000,319.00000000 L964.50000000,335.00000000 L839.89267803,335.00000000 L839.89267803,355.14142427 L607.59578736,355.14142427 L607.59578736,78.31093280 L839.89267803,78.31093280 L839.89267803,319.00000000 L964.50000000,319.00000000z " fill="rgba(238, 22, 38, 1)" stroke="rgba(0, 0, 0, 1)" stroke-linecap="butt" stroke-linejoin="miter" stroke-width="1" opacity="1"/>
<path d="M536.88365095,78.31093280 L692.14944835,78.31093280 L692.14944835,148.12036108 L536.88365095,148.12036108 L536.88365095,78.31093280z" fill="rgba(238, 22, 38, 1)" stroke="rgba(0, 0, 0, 1)" stroke-linecap="butt" stroke-linejoin="miter" stroke-width="1" opacity="1"/>
<path d="M778.58776329,28.96288867 L844.78635908,28.96288867 L844.78635908,131.26980943 L778.58776329,131.26980943 L778.58776329,28.96288867z" fill="rgba(238, 22, 38, 1)" stroke="rgba(0, 0, 0, 1)" stroke-linecap="butt" stroke-linejoin="miter" stroke-width="1" opacity="1"/>
<path d="M656.34202608,103.58676028 C656.34202608,109.90175140 650.68383937,115.02106319 643.70411234,115.02106319 C636.72438531,115.02106319 631.06619860,109.90175140 631.06619860,103.58676028 C631.06619860,97.27176916 636.72438531,92.15245737 643.70411234,92.15245737 C650.68383937,92.15245737 656.34202608,97.27176916 656.34202608,103.58676028z" fill="rgba(255, 255, 255, 1)" stroke="rgba(0, 0, 0, 1)" stroke-linecap="butt" stroke-linejoin="miter" stroke-width="1" opacity="1"/>
<path d="M647.91675025,103.99398195 C647.91675025,106.32055762 645.76125055,108.20661986 643.10230692,108.20661986 C640.44336329,108.20661986 638.28786359,106.32055762 638.28786359,103.99398195 C638.28786359,101.66740627 640.44336329,99.78134403 643.10230692,99.78134403 C645.76125055,99.78134403 647.91675025,101.66740627 647.91675025,103.99398195z" fill="rgba(21, 42, 50, 1)" stroke="rgba(0, 0, 0, 1)" stroke-linecap="butt" stroke-linejoin="miter" stroke-width="1" opacity="1"/>
<path d="M662.57152682,414.24415406 L667.36932600,414.24415406 L667.36932600,459.22352132 L676.55226960,459.22352132 L676.55226960,399.85075653 L626.77510316,399.85075653 L626.77510316,459.22352132 L634.57152682,459.22352132 L634.57152682,414.24415406 L639.36932600,414.24415406 L639.36932600,459.22352132 L647.57152682,459.22352132 L647.57152682,414.24415406 L652.36932600,414.24415406 L652.36932600,459.22352132 L662.57152682,459.22352132 L662.57152682,414.24415406z " fill="rgba(241, 214, 128, 1)" stroke="rgba(0, 0, 0, 1)" stroke-linecap="butt" stroke-linejoin="miter" stroke-width="1" opacity="1"/>
<path d="M773.57152682,414.24415406 L778.36932600,414.24415406 L778.36932600,459.22352132 L787.55226960,459.22352132 L787.55226960,399.85075653 L737.77510316,399.85075653 L737.77510316,459.22352132 L745.57152682,459.22352132 L745.57152682,414.24415406 L750.36932600,414.24415406 L750.36932600,459.22352132 L758.57152682,459.22352132 L758.57152682,414.24415406 L763.36932600,414.24415406 L763.36932600,459.22352132 L773.57152682,459.22352132 L773.57152682,414.24415406z " fill="rgba(241, 214, 128, 1)" stroke="rgba(0, 0, 0, 1)" stroke-linecap="butt" stroke-linejoin="miter" stroke-width="1" opacity="1"/>
<path d="M139.03931933,355.59540849 L146.03318277,351.71135466 L181.96068067,416.40459151 L174.96681723,420.28864534 L139.03931933,355.59540849z" fill="rgba(219, 218, 35, 1)" stroke="rgba(0, 0, 0, 1)" stroke-linecap="butt" stroke-linejoin="miter" stroke-width="1" opacity="1"/>
<path d="M41.32715141,159.15275994 C50.30118555,133.10150103 79.29818758,119.46552912 106.09376818,128.69596424 C106.20616756,128.73468313 106.31834966,128.77374287 106.43031298,128.81314158 L106.43069659,128.81202800 L266.32330162,183.89119717 L233.82544921,278.23115105 L73.93284418,223.15198188 L73.93322778,223.15086830 C73.82075326,223.11295356 73.70831515,223.07463701 73.59591577,223.03591812 C46.80033517,213.80548300 32.35311726,185.20401886 41.32715141,159.15275994z " fill="rgba(102, 190, 130, 1)" stroke="rgba(0, 0, 0, 1)" stroke-linecap="butt" stroke-linejoin="miter" stroke-width="1" opacity="1"/>
<path d="M219.03931933,355.59540849 L226.03318277,351.71135466 L261.96068067,416.40459151 L254.96681723,420.28864534 L219.03931933,355.59540849z" fill="rgba(219, 218, 35, 1)" stroke="rgba(0, 0, 0, 1)" stroke-linecap="butt" stroke-linejoin="miter" stroke-width="1" opacity="1"/>
<path d="M278.50000000,76.00000000 L364.50000000,96.00000000 L364.50000000,98.00000000 L278.50000000,118.00000000 L278.50000000,76.00000000z" fill="rgba(219, 218, 35, 1)" stroke="rgba(0, 0, 0, 1)" stroke-linecap="butt" stroke-linejoin="miter" stroke-width="1" opacity="1"/>
<path d="M32.50000000,331.00000000 L120.50000000,331.00000000 L120.50000000,126.38888889 L233.78571429,126.38888889 L233.78571429,126.39176905 C234.07595629,126.38984998 234.36643413,126.38888889 234.65714286,126.38888889 C303.96098918,126.38888889 360.14285714,181.01014941 360.14285714,248.38888889 C360.14285714,315.76762837 303.96098918,370.38888889 234.65714286,370.38888889 C234.36643413,370.38888889 234.07595629,370.38792780 233.78571429,370.38600873 L233.78571429,370.38888889 L120.50000000,370.38888889 L120.50000000,349.00000000 L32.50000000,349.00000000 L32.50000000,331.00000000z " fill="rgba(102, 190, 130, 1)" stroke="rgba(0, 0, 0, 1)" stroke-linecap="butt" stroke-linejoin="miter" stroke-width="1" opacity="1"/>
<path d="M174.50000000,54.50000000 L288.50000000,54.50000000 L288.50000000,146.50000000 L174.50000000,146.50000000 L174.50000000,54.50000000z" fill="rgba(102, 190, 130, 1)" stroke="rgba(0, 0, 0, 1)" stroke-linecap="butt" stroke-linejoin="miter" stroke-width="1" opacity="1"/>
<path d="M244.50000000,78.00000000 C244.50000000,84.07513225 239.12741700,89.00000000 232.50000000,89.00000000 C225.87258300,89.00000000 220.50000000,84.07513225 220.50000000,78.00000000 C220.50000000,71.92486775 225.87258300,67.00000000 232.50000000,67.00000000 C239.12741700,67.00000000 244.50000000,71.92486775 244.50000000,78.00000000z" fill="rgba(255, 255, 255, 1)" stroke="rgba(0, 0, 0, 1)" stroke-linecap="butt" stroke-linejoin="miter" stroke-width="1" opacity="1"/>
<path d="M240.50000000,77.00000000 C240.50000000,79.76142375 238.26142375,82.00000000 235.50000000,82.00000000 C232.73857625,82.00000000 230.50000000,79.76142375 230.50000000,77.00000000 C230.50000000,74.23857625 232.73857625,72.00000000 235.50000000,72.00000000 C238.26142375,72.00000000 240.50000000,74.23857625 240.50000000,77.00000000z" fill="rgba(0, 0, 0, 1)" stroke="rgba(0, 0, 0, 1)" stroke-linecap="butt" stroke-linejoin="miter" stroke-width="1" opacity="1"/>
<path d=" M266.87962963,424.08333333 L274.98148148,424.08333333 L274.98148148,458.12406422 C276.67191545,457.84412172 278.30971930,457.40829850 279.87962963,456.83185793 C290.28214693,453.01225566 297.70370370,443.01865989 297.70370370,431.29166667 C297.70370370,416.27003285 285.52626345,404.09259259 270.50462963,404.09259259 C255.48299581,404.09259259 243.30555556,416.27003285 243.30555556,431.29166667 C243.30555556,439.58944092 247.02129195,447.01935845 252.87962963,452.00828409 L252.87962963,424.08333333 L260.98148148,424.08333333 L260.98148148,456.77696836 C262.85805971,457.47850036 264.83287045,457.97870020 266.87962963,458.25128378 L266.87962963,424.08333333z M279.87962963,456.83185793 L279.87962963,456.83185793z " fill="rgba(219, 218, 35, 1)" stroke="rgba(0, 0, 0, 1)" stroke-linecap="butt" stroke-linejoin="miter" stroke-width="1" opacity="1"/>
<path d="M178.87962963,424.08333333 L186.98148148,424.08333333 L186.98148148,458.12406422 C188.67191545,457.84412172 190.30971930,457.40829850 191.87962963,456.83185793 C202.28214693,453.01225566 209.70370370,443.01865989 209.70370370,431.29166667 C209.70370370,416.27003285 197.52626345,404.09259259 182.50462963,404.09259259 C167.48299581,404.09259259 155.30555556,416.27003285 155.30555556,431.29166667 C155.30555556,439.58944092 159.02129195,447.01935845 164.87962963,452.00828409 L164.87962963,424.08333333 L172.98148148,424.08333333 L172.98148148,456.77696836 C174.85805971,457.47850036 176.83287045,457.97870020 178.87962963,458.25128378 L178.87962963,424.08333333z M191.87962963,456.83185793 " fill="rgba(219, 218, 35, 1)" stroke="rgba(0, 0, 0, 1)" stroke-linecap="butt" stroke-linejoin="miter" stroke-width="1" opacity="1"/>
<path d="M51.62605463,113.25400866 C63.33644551,88.31271508 93.62618957,77.85818201 119.28009153,89.90315549 C119.38770191,89.95368052 119.49505979,90.00452118 119.60216387,90.05567547 L119.60266444,90.05460933 L272.68272925,161.92848344 L230.27565253,252.24889726 L77.19558772,180.37502316 L77.19608829,180.37395702 C77.08831714,180.32422348 76.98062519,180.27409434 76.87301481,180.22356931 C51.21911285,168.17859584 39.91566376,138.19530223 51.62605463,113.25400866z " fill="rgba(102, 190, 130, 1)" stroke="rgba(0, 0, 0, 1)" stroke-linecap="butt" stroke-linejoin="miter" stroke-width="1" opacity="1"/>
</svg>
