<!-- Made in Mondrian.io -->
<svg xmlns="http://www.w3.org/2000/svg" width="612" height="792" xmlns:mondrian="https://mondrian.io/xml">
<path d="M90.00000000,310.00000000 L522.00000000,310.00000000 L522.00000000,742.00000000 L90.00000000,742.00000000 L90.00000000,310.00000000z" fill="rgba(196, 155, 121, 1)" stroke="none" stroke-linecap="butt" stroke-linejoin="miter" stroke-width="1" opacity="1"/>
<g>
<path d="M104.40000000,324.40000000 L126.79992000,324.40000000 L126.79992000,727.60000000 L104.40000000,727.60000000 L104.40000000,324.40000000z" fill="none" stroke="rgba(0, 0, 0, 1)" stroke-linecap="butt" stroke-linejoin="miter" stroke-width="1" opacity="1"/>
<path d="M126.84329725,324.40000000 L149.24321725,324.40000000 L149.24321725,727.60000000 L126.84329725,727.60000000 L126.84329725,324.40000000z" fill="none" stroke="rgba(0, 0, 0, 1)" stroke-linecap="butt" stroke-linejoin="miter" stroke-width="1" opacity="1"/>
<path d="M149.40000000,324.40000000 L171.79992000,324.40000000 L171.79992000,727.60000000 L149.40000000,727.60000000 L149.40000000,324.40000000z" fill="none" stroke="rgba(0, 0, 0, 1)" stroke-linecap="butt" stroke-linejoin="miter" stroke-width="1" opacity="1"/>
<path d="M171.84329725,324.40000000 L194.24321725,324.40000000 L194.24321725,727.60000000 L171.84329725,727.60000000 L171.84329725,324.40000000z" fill="none" stroke="rgba(0, 0, 0, 1)" stroke-linecap="butt" stroke-linejoin="miter" stroke-width="1" opacity="1"/>
<path d="M194.40000000,324.40000000 L216.79992000,324.40000000 L216.79992000,727.60000000 L194.40000000,727.60000000 L194.40000000,324.40000000z" fill="none" stroke="rgba(0, 0, 0, 1)" stroke-linecap="butt" stroke-linejoin="miter" stroke-width="1" opacity="1"/>
<path d="M216.84329725,324.40000000 L239.24321725,324.40000000 L239.24321725,727.60000000 L216.84329725,727.60000000 L216.84329725,324.40000000z" fill="none" stroke="rgba(0, 0, 0, 1)" stroke-linecap="butt" stroke-linejoin="miter" stroke-width="1" opacity="1"/>
<path d="M239.40000000,324.40000000 L261.79992000,324.40000000 L261.79992000,727.60000000 L239.40000000,727.60000000 L239.40000000,324.40000000z" fill="none" stroke="rgba(0, 0, 0, 1)" stroke-linecap="butt" stroke-linejoin="miter" stroke-width="1" opacity="1"/>
<path d="M261.84329725,324.40000000 L284.24321725,324.40000000 L284.24321725,727.60000000 L261.84329725,727.60000000 L261.84329725,324.40000000z" fill="none" stroke="rgba(0, 0, 0, 1)" stroke-linecap="butt" stroke-linejoin="miter" stroke-width="1" opacity="1"/>
<path d="M284.40000000,324.40000000 L306.79992000,324.40000000 L306.79992000,727.60000000 L284.40000000,727.60000000 L284.40000000,324.40000000z" fill="none" stroke="rgba(0, 0, 0, 1)" stroke-linecap="butt" stroke-linejoin="miter" stroke-width="1" opacity="1"/>
<path d="M306.84329725,324.40000000 L329.24321725,324.40000000 L329.24321725,727.60000000 L306.84329725,727.60000000 L306.84329725,324.40000000z" fill="none" stroke="rgba(0, 0, 0, 1)" stroke-linecap="butt" stroke-linejoin="miter" stroke-width="1" opacity="1"/>
<path d="M329.40000000,324.40000000 L351.79992000,324.40000000 L351.79992000,727.60000000 L329.40000000,727.60000000 L329.40000000,324.40000000z" fill="none" stroke="rgba(0, 0, 0, 1)" stroke-linecap="butt" stroke-linejoin="miter" stroke-width="1" opacity="1"/>
<path d="M351.84329725,324.40000000 L374.24321725,324.40000000 L374.24321725,727.60000000 L351.84329725,727.60000000 L351.84329725,324.40000000z" fill="none" stroke="rgba(0, 0, 0, 1)" stroke-linecap="butt" stroke-linejoin="miter" stroke-width="1" opacity="1"/>
<path d="M374.40000000,324.40000000 L396.79992000,324.40000000 L396.79992000,727.60000000 L374.40000000,727.60000000 L374.40000000,324.40000000z" fill="none" stroke="rgba(0, 0, 0, 1)" stroke-linecap="butt" stroke-linejoin="miter" stroke-width="1" opacity="1"/>
<path d="M396.84329725,324.40000000 L419.24321725,324.40000000 L419.24321725,727.60000000 L396.84329725,727.60000000 L396.84329725,324.40000000z" fill="none" stroke="rgba(0, 0, 0, 1)" stroke-linecap="butt" stroke-linejoin="miter" stroke-width="1" opacity="1"/>
<path d="M419.40000000,324.40000000 L441.79992000,324.40000000 L441.79992000,727.60000000 L419.40000000,727.60000000 L419.40000000,324.40000000z" fill="none" stroke="rgba(0, 0, 0, 1)" stroke-linecap="butt" stroke-linejoin="miter" stroke-width="1" opacity="1"/>
<path d="M441.84329725,324.40000000 L464.24321725,324.40000000 L464.24321725,727.60000000 L441.84329725,727.60000000 L441.84329725,324.40000000z" fill="none" stroke="rgba(0, 0, 0, 1)" stroke-linecap="butt" stroke-linejoin="miter" stroke-width="1" opacity="1"/>
<path d="M463.84329725,324.40000000 L486.24321725,324.40000000 L486.24321725,727.60000000 L463.84329725,727.60000000 L463.84329725,324.40000000z" fill="none" stroke="rgba(0, 0, 0, 1)" stroke-linecap="butt" stroke-linejoin="miter" stroke-width="1" opacity="1"/>
</g>
<g>
<path d="M507.60000000,324.40000000 L507.60000000,727.60000000 L104.40000000,727.60000000 L104.40000000,324.40000000 L507.60000000,324.40000000z" fill="none" stroke="rgba(0, 0, 0, 1)" stroke-linecap="butt" stroke-linejoin="miter" stroke-width="1" opacity="1"/>
<path d="M507.60000000,324.40000000 L507.60000000,346.79992000 L104.40000000,346.79992000 L104.40000000,324.40000000 L507.60000000,324.40000000z" fill="none" stroke="rgba(0, 0, 0, 1)" stroke-linecap="butt" stroke-linejoin="miter" stroke-width="1" opacity="1"/>
<path d="M507.60000000,346.84329725 L507.60000000,369.24321725 L104.40000000,369.24321725 L104.40000000,346.84329725 L507.60000000,346.84329725z" fill="none" stroke="rgba(0, 0, 0, 1)" stroke-linecap="butt" stroke-linejoin="miter" stroke-width="1" opacity="1"/>
<path d="M507.60000000,369.40000000 L507.60000000,391.79992000 L104.40000000,391.79992000 L104.40000000,369.40000000 L507.60000000,369.40000000z" fill="none" stroke="rgba(0, 0, 0, 1)" stroke-linecap="butt" stroke-linejoin="miter" stroke-width="1" opacity="1"/>
<path d="M507.60000000,391.84329725 L507.60000000,414.24321725 L104.40000000,414.24321725 L104.40000000,391.84329725 L507.60000000,391.84329725z" fill="none" stroke="rgba(0, 0, 0, 1)" stroke-linecap="butt" stroke-linejoin="miter" stroke-width="1" opacity="1"/>
<path d="M507.60000000,414.40000000 L507.60000000,436.79992000 L104.40000000,436.79992000 L104.40000000,414.40000000 L507.60000000,414.40000000z" fill="none" stroke="rgba(0, 0, 0, 1)" stroke-linecap="butt" stroke-linejoin="miter" stroke-width="1" opacity="1"/>
<path d="M507.60000000,436.84329725 L507.60000000,459.24321725 L104.40000000,459.24321725 L104.40000000,436.84329725 L507.60000000,436.84329725z" fill="none" stroke="rgba(0, 0, 0, 1)" stroke-linecap="butt" stroke-linejoin="miter" stroke-width="1" opacity="1"/>
<path d="M507.60000000,459.40000000 L507.60000000,481.79992000 L104.40000000,481.79992000 L104.40000000,459.40000000 L507.60000000,459.40000000z" fill="none" stroke="rgba(0, 0, 0, 1)" stroke-linecap="butt" stroke-linejoin="miter" stroke-width="1" opacity="1"/>
<path d="M507.60000000,481.84329725 L507.60000000,504.24321725 L104.40000000,504.24321725 L104.40000000,481.84329725 L507.60000000,481.84329725z" fill="none" stroke="rgba(0, 0, 0, 1)" stroke-linecap="butt" stroke-linejoin="miter" stroke-width="1" opacity="1"/>
<path d="M507.60000000,504.40000000 L507.60000000,526.79992000 L104.40000000,526.79992000 L104.40000000,504.40000000 L507.60000000,504.40000000z" fill="none" stroke="rgba(0, 0, 0, 1)" stroke-linecap="butt" stroke-linejoin="miter" stroke-width="1" opacity="1"/>
<path d="M507.60000000,526.84329725 L507.60000000,549.24321725 L104.40000000,549.24321725 L104.40000000,526.84329725 L507.60000000,526.84329725z" fill="none" stroke="rgba(0, 0, 0, 1)" stroke-linecap="butt" stroke-linejoin="miter" stroke-width="1" opacity="1"/>
<path d="M507.60000000,549.40000000 L507.60000000,571.79992000 L104.40000000,571.79992000 L104.40000000,549.40000000 L507.60000000,549.40000000z" fill="none" stroke="rgba(0, 0, 0, 1)" stroke-linecap="butt" stroke-linejoin="miter" stroke-width="1" opacity="1"/>
<path d="M507.60000000,571.84329725 L507.60000000,594.24321725 L104.40000000,594.24321725 L104.40000000,571.84329725 L507.60000000,571.84329725z" fill="none" stroke="rgba(0, 0, 0, 1)" stroke-linecap="butt" stroke-linejoin="miter" stroke-width="1" opacity="1"/>
<path d="M507.60000000,594.40000000 L507.60000000,616.79992000 L104.40000000,616.79992000 L104.40000000,594.40000000 L507.60000000,594.40000000z" fill="none" stroke="rgba(0, 0, 0, 1)" stroke-linecap="butt" stroke-linejoin="miter" stroke-width="1" opacity="1"/>
<path d="M507.60000000,616.84329725 L507.60000000,639.24321725 L104.40000000,639.24321725 L104.40000000,616.84329725 L507.60000000,616.84329725z" fill="none" stroke="rgba(0, 0, 0, 1)" stroke-linecap="butt" stroke-linejoin="miter" stroke-width="1" opacity="1"/>
<path d="M507.60000000,639.40000000 L507.60000000,661.79992000 L104.40000000,661.79992000 L104.40000000,639.40000000 L507.60000000,639.40000000z" fill="none" stroke="rgba(0, 0, 0, 1)" stroke-linecap="butt" stroke-linejoin="miter" stroke-width="1" opacity="1"/>
<path d="M507.60000000,661.84329725 L507.60000000,684.24321725 L104.40000000,684.24321725 L104.40000000,661.84329725 L507.60000000,661.84329725z" fill="none" stroke="rgba(0, 0, 0, 1)" stroke-linecap="butt" stroke-linejoin="miter" stroke-width="1" opacity="1"/>
<path d="M507.60000000,683.84329725 L507.60000000,706.24321725 L104.40000000,706.24321725 L104.40000000,683.84329725 L507.60000000,683.84329725z" fill="none" stroke="rgba(0, 0, 0, 1)" stroke-linecap="butt" stroke-linejoin="miter" stroke-width="1" opacity="1"/>
</g>
<path d="M452.77928057,370.28926954 C452.77928057,376.25394484 447.94395587,381.08926954 441.97928057,381.08926954 C436.01460527,381.08926954 431.17928057,376.25394484 431.17928057,370.28926954 C431.17928057,364.32459425 436.01460527,359.48926954 441.97928057,359.48926954 C447.94395587,359.48926954 452.77928057,364.32459425 452.77928057,370.28926954z" fill="rgba(0, 0, 0, 1)" stroke="none" stroke-linecap="butt" stroke-linejoin="miter" stroke-width="1" opacity="1"/>
<path d="M182.53444335,662.52180082 C182.53444335,668.48647611 177.69911864,673.32180082 171.73444335,673.32180082 C165.76976805,673.32180082 160.93444335,668.48647611 160.93444335,662.52180082 C160.93444335,656.55712552 165.76976805,651.72180082 171.73444335,651.72180082 C177.69911864,651.72180082 182.53444335,656.55712552 182.53444335,662.52180082z" fill="rgba(255, 255, 255, 1)" stroke="none" stroke-linecap="butt" stroke-linejoin="miter" stroke-width="1" opacity="1"/>
<path d="M475.53444335,661.52180082 C475.53444335,667.48647611 470.69911864,672.32180082 464.73444335,672.32180082 C458.76976805,672.32180082 453.93444335,667.48647611 453.93444335,661.52180082 C453.93444335,655.55712552 458.76976805,650.72180082 464.73444335,650.72180082 C470.69911864,650.72180082 475.53444335,655.55712552 475.53444335,661.52180082z" fill="rgba(255, 255, 255, 1)" stroke="none" stroke-linecap="butt" stroke-linejoin="miter" stroke-width="1" opacity="1"/>
<path d="M182.77928057,369.78926954 C182.77928057,375.75394484 177.94395587,380.58926954 171.97928057,380.58926954 C166.01460527,380.58926954 161.17928057,375.75394484 161.17928057,369.78926954 C161.17928057,363.82459425 166.01460527,358.98926954 171.97928057,358.98926954 C177.94395587,358.98926954 182.77928057,363.82459425 182.77928057,369.78926954z" fill="rgba(0, 0, 0, 1)" stroke="none" stroke-linecap="butt" stroke-linejoin="miter" stroke-width="1" opacity="1"/>
<path d="M475.25193682,483.00997267 C475.25193682,488.97464797 470.41661212,493.80997267 464.45193682,493.80997267 C458.48726152,493.80997267 453.65193682,488.97464797 453.65193682,483.00997267 C453.65193682,477.04529737 458.48726152,472.20997267 464.45193682,472.20997267 C470.41661212,472.20997267 475.25193682,477.04529737 475.25193682,483.00997267z" fill="rgba(0, 0, 0, 1)" stroke="none" stroke-linecap="butt" stroke-linejoin="miter" stroke-width="1" opacity="1"/>
<path d="M430.03444335,682.52180082 C430.03444335,688.48647611 425.19911864,693.32180082 419.23444335,693.32180082 C413.26976805,693.32180082 408.43444335,688.48647611 408.43444335,682.52180082 C408.43444335,676.55712552 413.26976805,671.72180082 419.23444335,671.72180082 C425.19911864,671.72180082 430.03444335,676.55712552 430.03444335,682.52180082z" fill="rgba(255, 255, 255, 1)" stroke="none" stroke-linecap="butt" stroke-linejoin="miter" stroke-width="1" opacity="1"/>
<path d="M451.27928057,615.78926954 C451.27928057,621.75394484 446.44395587,626.58926954 440.47928057,626.58926954 C434.51460527,626.58926954 429.67928057,621.75394484 429.67928057,615.78926954 C429.67928057,609.82459425 434.51460527,604.98926954 440.47928057,604.98926954 C446.44395587,604.98926954 451.27928057,609.82459425 451.27928057,615.78926954z" fill="rgba(0, 0, 0, 1)" stroke="none" stroke-linecap="butt" stroke-linejoin="miter" stroke-width="1" opacity="1"/>
<g mondrian:type="text" mondrian:x="111.29785156250003" mondrian:y="53.451171875000085" mondrian:width="389.4042968749999" mondrian:height="90.33203124999997" mondrian:spacing="90.33203124999997" fill="rgba(0, 0, 0, 1)" stroke="none" font-size="48pt" font-family="Arial">
<text x="306" y="101.45117187500009" mondrian:width="389.4042968749999" mondrian:height="90.33203124999997" fill="rgba(0, 0, 0, 1)" stroke="none" text-anchor="middle">
Go Club</text>
</g>
<g mondrian:type="text" mondrian:x="111.29785156250003" mondrian:y="146.13476562500006" mondrian:width="389.4042968749999" mondrian:height="90.33203124999997" mondrian:spacing="90.33203124999997" fill="rgba(0, 0, 0, 1)" stroke="none" font-size="18pt" font-family="Arial">
<text x="306" y="164.13476562500006" mondrian:width="389.4042968749999" mondrian:height="90.33203124999997" fill="rgba(0, 0, 0, 1)" stroke="none" text-anchor="middle">
every Wednesday 6pm</text>
<text x="306" y="191.13476562500006" mondrian:width="389.4042968749999" mondrian:height="90.33203124999997" fill="rgba(0, 0, 0, 1)" stroke="none" text-anchor="middle">
at Pie By The Pound</text>
</g>
<g mondrian:type="text" mondrian:x="111.29785156250003" mondrian:y="243.54882812500003" mondrian:width="389.4042968749999" mondrian:height="90.33203124999997" mondrian:spacing="90.33203124999997" fill="rgba(0, 0, 0, 1)" stroke="none" font-size="18pt" font-family="Arial">
<text x="306" y="261.548828125" mondrian:width="389.4042968749999" mondrian:height="90.33203124999997" fill="rgba(0, 0, 0, 1)" stroke="none" text-anchor="middle">
Beginners Welcome!</text>
</g>
</svg>
