<!-- Made in Mondrian.io -->
<svg xmlns="http://www.w3.org/2000/svg" width="388.84" height="115.02" xmlns:mondrian="https://mondrian.io/xml">
<path d="M147.84520196,58.23249640 C147.84520196,46.61467112 144.53248844,40.65022946 137.90706140,40.32362210 C135.27088257,40.19920367 132.69692492,40.61912285 130.19294317,41.59116628 C128.19442974,42.30658622 126.84913102,43.01423549 126.14148175,43.72965543 L126.14148175,71.46002252 C130.37957480,74.11952931 134.14332209,75.35595891 137.42492901,75.16155661 C144.36918476,74.70275217 147.84520196,69.06491787 147.84520196,58.23249640z M156.01811664,58.71462879 C156.01811664,64.61685725 154.63393268,69.51594365 151.85000746,73.41188004 C148.74725353,77.82105541 144.44694728,80.09174164 138.94908869,80.21616805 C134.80430747,80.34836512 130.53510781,79.04971434 126.14148175,76.32800233 L126.14148175,101.53106530 L119.03392232,98.99598492 L119.03392232,43.05311276 C120.20036805,41.62227288 121.70119977,40.39361395 123.52086021,39.35158665 C127.75118260,36.88649015 132.89132722,35.61894597 138.94131005,35.55674074 L139.04240052,35.65783122 C144.57136571,35.58783937 148.83279470,37.85853357 151.82667950,42.46211125 C154.61837539,46.68465499 156.01811664,52.09698039 156.01811664,58.71462879z " fill="rgba(100, 100, 100, 1)" stroke="none" stroke-linecap="butt" stroke-linejoin="miter" stroke-width="1" opacity="1"/>
<path d="M199.45665568,75.25486843 C199.45665568,83.17116761 198.66347323,88.65347449 197.07710832,91.70179386 C195.48295678,94.75011323 192.45019470,97.18410313 187.97102748,98.99598492 C184.33948525,100.42682480 180.41244226,101.20445795 176.19767717,101.33665502 L175.02345279,96.85749577 C179.30820176,96.27427291 182.32542251,95.69104207 184.07509109,95.10781921 C187.52000169,93.94137348 189.88400772,92.15281965 191.18265053,89.75770701 C192.22467782,87.80585189 192.73791681,84.08099783 192.73791681,78.56758195 L192.73791681,76.71682289 C187.87771565,78.92529591 182.78421896,80.02175777 177.45744270,80.02175777 C173.95809754,80.02175777 170.87089293,78.92529591 168.21139412,76.71682289 C165.22527998,74.31393161 163.73222689,71.26561224 163.73222689,67.57186479 L163.73222689,37.99073065 L170.83978632,35.55674074 L170.83978632,65.33227718 C170.83978632,68.51279363 171.86626431,70.96234082 173.91921230,72.68091079 C175.97216028,74.39947277 178.63166707,75.22376183 181.88994603,75.16155661 C185.14822499,75.09156476 188.63979150,73.83179922 192.34909625,71.36671070 L192.34909625,36.62987464 L199.45665568,36.62987464 L199.45665568,75.25486843z " fill="rgba(100, 100, 100, 1)" stroke="none" stroke-linecap="butt" stroke-linejoin="miter" stroke-width="1" opacity="1"/>
<path d="M227.20258007,79.82734749 C226.35496305,79.89733136 225.57732991,79.92843796 224.86190997,79.92843796 C220.84154718,79.92843796 217.70768665,78.97195183 215.46810702,77.05120092 C213.23629807,75.13045000 212.11651623,72.47872186 212.11651623,69.09602447 L212.11651623,41.10125524 L207.24853643,41.10125524 L207.24853643,36.62987464 L212.11651623,36.62987464 L212.11651623,24.75542588 L219.21629702,22.22811617 L219.21629702,36.62987464 L227.20258007,36.62987464 L227.20258007,41.10125524 L219.21629702,41.10125524 L219.21629702,68.90161419 C219.21629702,71.56889164 219.93171696,73.45853595 221.36256482,74.56277645 C222.59122375,75.47260667 224.54308126,75.99362431 227.20258007,76.12582138 L227.20258007,79.82734749z " fill="rgba(100, 100, 100, 1)" stroke="none" stroke-linecap="butt" stroke-linejoin="miter" stroke-width="1" opacity="1"/>
<path d="M270.23674924,79.24412462 L263.12918980,79.24412462 L263.12918980,51.80925828 C263.12918980,49.01755442 262.47597509,46.61467112 261.17734027,44.60837904 C259.67650854,42.33769282 257.59244597,41.20234572 254.91739785,41.20234572 C251.65911091,41.20234572 247.58431356,42.92091568 242.69302175,46.35805561 L242.69302175,79.24412462 L235.58545434,79.24412462 L235.58545434,13.66638882 L242.69302175,11.42680920 L242.69302175,41.29566552 C247.23439420,37.99073065 252.19567786,36.33437389 257.58466733,36.33437389 C261.34841461,36.33437389 264.39673398,37.60191009 266.72962543,40.12921980 C269.07030351,42.65652153 270.23674924,45.80593137 270.23674924,49.56967068 L270.23674924,79.24412462z " fill="rgba(100, 100, 100, 1)" stroke="none" stroke-linecap="butt" stroke-linejoin="miter" stroke-width="1" opacity="1"/>
<path d="M308.01412601,57.11270659 C308.01412601,52.64909665 307.16651698,48.96311986 305.47904563,46.04699757 C303.47276154,42.49321785 300.35445830,40.61912285 296.13968523,40.42471257 C288.34781246,40.87574634 284.45965472,46.45914609 284.45965472,57.15936250 C284.45965472,62.06622756 285.26838649,66.16434489 286.90140731,69.45373045 C288.98546988,73.64516759 292.11155177,75.71367287 296.27966095,75.64368899 C304.10264032,75.58147579 308.01412601,69.40707454 308.01412601,57.11270659z M315.79823609,57.15936250 C315.79823609,63.51262472 314.17298593,68.80052372 310.93025628,73.02306746 C307.36092726,77.75107154 302.43073424,80.12284824 296.13968523,80.12284824 C289.90307874,80.12284824 285.04287758,77.75107154 281.53575378,73.02306746 C278.35523734,68.80052372 276.76886445,63.51262472 276.76886445,57.15936250 C276.76886445,51.18715017 278.48743441,46.16364533 281.92456636,42.07329867 C285.55611657,37.73410716 290.33077657,35.55674074 296.23299705,35.55674074 C302.13523349,35.55674074 306.94099211,37.73410716 310.64253417,42.07329867 C314.07965815,46.16364533 315.79823609,51.18715017 315.79823609,57.15936250z " fill="rgba(100, 100, 100, 1)" stroke="none" stroke-linecap="butt" stroke-linejoin="miter" stroke-width="1" opacity="1"/>
<path d="M356.54616174,79.24412462 L349.43860231,79.24412462 L349.43860231,50.25399200 C349.43860231,47.07347555 348.48211618,44.59282973 346.56914391,42.80426792 C344.65616367,41.02349273 342.10553398,40.16031842 338.92501753,40.23031027 C335.55009878,40.29252348 332.33846776,41.39675600 329.29015637,43.53524515 L329.29015637,79.24412462 L322.18259694,79.24412462 L322.18259694,42.65652153 C326.27294360,39.67819401 330.03668291,37.73410716 333.47380688,36.82427694 C336.71654451,35.97665993 339.57823224,35.55674074 342.04332875,35.55674074 C343.73079211,35.55674074 345.31715702,35.72004442 346.81021010,36.04664380 C349.60191397,36.69207987 351.87259221,37.88963220 353.62226878,39.64708741 C355.57411832,41.59116628 356.54616174,43.92406571 356.54616174,46.65354839 L356.54616174,79.24412462z " fill="rgba(100, 100, 100, 1)" stroke="none" stroke-linecap="butt" stroke-linejoin="miter" stroke-width="1" opacity="1"/>
<path d="M48.83439173,13.92901184 C45.17750867,13.94600383 41.68526721,14.25788314 38.61245429,14.80161625 C29.56033251,16.40082893 27.91681810,19.74811817 27.91681730,25.92108975 L27.91681730,34.07370815 L49.30809127,34.07370815 L49.30809127,36.79124762 L27.91681730,36.79124762 L19.88885667,36.79124762 C13.67195689,36.79124762 8.22826145,40.52796272 6.52554316,47.63647394 C4.56147916,55.78447781 4.47436225,60.86896483 6.52554316,69.37678968 C8.04611135,75.70968541 11.67743410,80.22201440 17.89433229,80.22201599 L25.24914094,80.22201599 L25.24914094,70.44884653 C25.24914094,63.38830841 31.35808510,57.16032945 38.61245429,57.16032785 L59.97879671,57.16032785 C65.92642931,57.16032785 70.67443609,52.26324075 70.67443369,46.29016998 L70.67443369,25.92108975 C70.67443369,20.12393364 65.78387587,15.76913817 59.97879671,14.80161625 C56.30409536,14.18991533 52.49127480,13.91201984 48.83439173,13.92901184z M37.26615033,20.48601082 C39.47572193,20.48601082 41.28013064,22.31989301 41.28013064,24.57478579 C41.28012905,26.82168612 39.47572193,28.63862922 37.26615033,28.63862922 C35.04865727,28.63862842 33.25217002,26.82168532 33.25217002,24.57478579 C33.25216922,22.31989381 35.04865727,20.48601082 37.26615033,20.48601082z " fill="rgba(95, 154, 188, 1)" stroke="none" stroke-linecap="butt" stroke-linejoin="miter" stroke-width="1" opacity="1"/>
<path d="M73.34211005,36.79124762 L73.34211005,46.29016998 C73.34211005,53.65455634 67.09853470,59.85293497 59.97879671,59.85293576 L38.61245429,59.85293576 C32.75985518,59.85293576 27.91681810,64.86197073 27.91681730,70.72309363 L27.91681730,91.09217147 C27.91681730,96.88932838 32.95784842,100.29915131 38.61245429,101.96232934 C45.38372973,103.95335134 51.87702830,104.31317949 59.97879671,101.96232934 C65.36413619,100.40309794 70.67443609,97.26513667 70.67443369,91.09217147 L70.67443369,82.93955546 L49.30809127,82.93955546 L49.30809127,80.22201599 L70.67443369,80.22201599 L81.37007387,80.22201599 C87.58697445,80.22201599 89.90364643,75.88559449 92.06570288,69.37678968 C94.29903565,62.67607652 94.20400853,56.23225491 92.06570288,47.63647394 C90.52929682,41.44751186 87.59488075,36.79124762 81.37007387,36.79124762 L73.34211005,36.79124762z M61.32510066,88.37463440 C63.54259532,88.37463679 65.33908098,90.19157989 65.33908098,92.43847543 C65.33907938,94.69336502 63.54259292,96.52725041 61.32510066,96.52725041 C59.11552666,96.52725041 57.31112035,94.69336502 57.31112035,92.43847543 C57.31112194,90.19157989 59.11552427,88.37463440 61.32510066,88.37463440z " fill="rgba(243, 233, 36, 1)" stroke="none" stroke-linecap="butt" stroke-linejoin="miter" stroke-width="1" opacity="1"/>
<path d="M370.38702007,30.29321484 L371.63315901,30.29321484 L371.63315901,22.47767904 L374.58515881,22.47767904 L374.58515881,21.54610850 L367.43502027,21.54610850 L367.43502027,22.47767904 L370.38702007,22.47767904 L370.38702007,30.29321484z M375.69007745,30.29321484 L376.75473063,30.29321484 L376.75473063,23.15518706 L379.06551477,30.29231810 L380.25081274,30.29231810 L382.65873022,23.17938463 L382.65873022,30.29321484 L383.82017368,30.29321484 L383.82017368,21.54610850 L382.28367986,21.54610850 L379.65225598,29.03982141 L377.40804108,21.54610850 L375.69007745,21.54610850 L375.69007745,30.29321484z " fill="rgba(100, 100, 100, 1)" stroke="none" stroke-linecap="butt" stroke-linejoin="miter" stroke-width="NaN" opacity="1"/>
</svg>
