<!-- Made in Mondrian.io -->
<svg xmlns="http://www.w3.org/2000/svg" width="462.36864" height="462.3686" xmlns:mondrian="https://mondrian.io/xml">
<path d="M42.53200000,1.70000000 L419.82800000,1.70000000 C442.28800000,1.70000000 460.66800000,20.08000000 460.66800000,42.53300000 L460.66800000,419.83700000 C460.66800000,442.29700000 442.28800000,460.67000000 419.82800000,460.67000000 L42.53200000,460.67000000 C20.07200000,460.67000000 1.69900000,442.29700000 1.69900000,419.83700000 L1.69900000,42.53400000 C1.69900000,20.08100000 20.07200000,1.70100000 42.53200000,1.70000000z " fill="rgba(255, 255, 255, 1)" stroke="rgba(0, 0, 0, 1)" stroke-width="3.4" stroke-linecap="butt" stroke-linejoin="miter"/>
<path d="M42.53200000,11.89800000 L419.82800000,11.89800000 C436.68500000,11.89800000 450.47600000,25.68800000 450.47600000,42.53100000 L450.47600000,419.83500000 C450.47600000,436.69200000 436.68600000,450.47500000 419.82800000,450.47500000 L42.53200000,450.47500000 C25.68900000,450.47500000 11.90600000,436.69200000 11.90600000,419.83500000 L11.90600000,42.53100000 C11.90600000,25.68800000 25.68900000,11.89800000 42.53200000,11.89800000z " fill="rgba(21, 81, 150, 1)" fill-rule="evenodd" stroke="none" stroke-width="1" stroke-linecap="butt" stroke-linejoin="miter"/>
<path d="M183.81000000,114.10000000 C200.27800000,112.57700000 213.06900000,98.39000000 213.06900000,81.80200000 C213.06900000,63.94600000 198.50700000,49.38400000 180.65800000,49.38400000 C162.80200000,49.38400000 148.23300000,63.94600000 148.23300000,81.80200000 C148.23300000,87.24900000 149.75600000,92.82300000 152.28400000,97.51200000 L163.83600000,260.05600000 L282.82100000,260.09900000 L331.61500000,374.43700000 L395.67200000,349.30700000 L385.75600000,325.68600000 L349.90300000,338.61900000 L302.68900000,229.62100000 L192.05500000,230.35800000 L190.55300000,209.77500000 L270.63200000,209.80300000 L270.63200000,179.34700000 L187.49400000,179.31200000 L183.81000000,114.10000000z M303.47500000,347.22600000 C283.40200000,386.91800000 241.35800000,413.07500000 196.53800000,413.07500000 C130.68900000,413.07500000 76.97200000,359.36600000 76.97200000,293.51600000 C76.97200000,247.28600000 104.99900000,204.32200000 146.80900000,185.26900000 L149.52200000,220.58400000 C124.78100000,236.16600000 109.53900000,264.28500000 109.53900000,293.76400000 C109.53900000,341.52400000 148.50900000,380.48600000 196.27500000,380.48600000 C239.97600000,380.48600000 277.23200000,346.94900000 282.32500000,303.92000000 L303.47500000,347.22600000z " fill="rgba(255, 255, 255, 1)" fill-rule="evenodd" stroke="none" stroke-width="1" stroke-linecap="butt" stroke-linejoin="miter"/>
</svg>
