<!-- Made in Mondrian.io -->
<svg xmlns="http://www.w3.org/2000/svg" width="237.4" height="240.3" xmlns:mondrian="https://mondrian.io/xml">
<g>
<path fill="rgba(255, 255, 255, 1)" d="M237.40000000,118.70000000 C237.40000000,184.30000000 184.20000000,237.40000000 118.70000000,237.40000000 C53.10000000,237.40000000 0.00000000,184.20000000 0.00000000,118.70000000 C0.00000000,53.10000000 53.20000000,0.00000000 118.70000000,0.00000000 C184.20000000,0.00000000 237.40000000,53.10000000 237.40000000,118.70000000z " stroke="none" stroke-width="1" stroke-linecap="butt" stroke-linejoin="miter"/>
<path fill="rgba(0, 100, 60, 1)" d="M130.60000000,51.30000000 C129.60000000,51.10000000 124.60000000,50.30000000 118.70000000,50.30000000 C112.80000000,50.30000000 107.80000000,51.10000000 106.80000000,51.30000000 C106.20000000,51.40000000 106.00000000,50.80000000 106.40000000,50.50000000 C106.80000000,50.20000000 118.70000000,41.10000000 118.70000000,41.10000000 C118.70000000,41.10000000 130.60000000,50.20000000 131.00000000,50.50000000 C131.40000000,50.80000000 131.20000000,51.40000000 130.60000000,51.30000000z M110.00000000,110.10000000 C110.00000000,110.10000000 109.40000000,110.30000000 109.20000000,110.90000000 C111.70000000,112.80000000 113.40000000,117.20000000 118.60000000,117.20000000 C123.80000000,117.20000000 125.50000000,112.80000000 128.00000000,110.90000000 C127.80000000,110.30000000 127.20000000,110.10000000 127.20000000,110.10000000 C127.20000000,110.10000000 123.90000000,110.90000000 118.60000000,110.90000000 C113.30000000,110.90000000 110.00000000,110.10000000 110.00000000,110.10000000z M118.60000000,102.80000000 C117.20000000,102.80000000 116.80000000,102.30000000 115.90000000,102.30000000 C115.00000000,102.30000000 113.10000000,103.10000000 112.70000000,103.70000000 C112.70000000,104.00000000 112.90000000,104.30000000 113.10000000,104.60000000 C115.20000000,104.90000000 116.20000000,106.10000000 118.60000000,106.10000000 C121.00000000,106.10000000 122.00000000,104.90000000 124.10000000,104.60000000 C124.40000000,104.30000000 124.50000000,104.00000000 124.50000000,103.70000000 C124.10000000,103.00000000 122.30000000,102.30000000 121.30000000,102.30000000 C120.40000000,102.20000000 120.10000000,102.80000000 118.60000000,102.80000000z M237.20000000,125.20000000 C237.00000000,128.00000000 236.80000000,130.90000000 236.50000000,133.60000000 C223.10000000,135.80000000 218.30000000,123.90000000 204.50000000,124.40000000 C205.30000000,127.30000000 206.00000000,130.30000000 206.50000000,133.30000000 C217.90000000,133.30000000 222.40000000,143.90000000 235.10000000,142.30000000 C234.40000000,145.50000000 233.60000000,148.70000000 232.70000000,151.90000000 C222.70000000,152.90000000 219.20000000,143.00000000 207.60000000,143.20000000 C207.70000000,144.90000000 207.70000000,146.50000000 207.70000000,148.20000000 C207.70000000,149.10000000 207.70000000,150.10000000 207.60000000,151.00000000 C217.50000000,150.90000000 220.70000000,160.00000000 230.10000000,159.60000000 C228.90000000,162.80000000 227.60000000,165.90000000 226.20000000,169.00000000 C219.40000000,168.60000000 217.10000000,160.00000000 206.90000000,160.70000000 C206.60000000,162.90000000 206.20000000,165.10000000 205.70000000,167.30000000 C214.60000000,166.70000000 216.50000000,174.90000000 222.90000000,175.50000000 C221.30000000,178.50000000 219.50000000,181.40000000 217.70000000,184.20000000 C213.90000000,182.20000000 210.60000000,176.10000000 203.50000000,175.70000000 C204.20000000,173.40000000 204.90000000,171.10000000 205.40000000,168.80000000 C199.00000000,168.80000000 191.80000000,166.30000000 185.70000000,160.80000000 C187.70000000,149.50000000 170.20000000,138.10000000 170.20000000,129.80000000 C170.20000000,120.90000000 174.70000000,115.90000000 174.70000000,103.80000000 C174.70000000,94.80000000 170.30000000,85.10000000 163.80000000,78.50000000 C162.50000000,77.20000000 161.20000000,76.20000000 159.70000000,75.20000000 C165.70000000,82.70000000 170.40000000,91.50000000 170.40000000,101.80000000 C170.40000000,113.20000000 165.10000000,119.20000000 165.10000000,129.70000000 C165.10000000,140.20000000 180.50000000,149.30000000 180.50000000,160.10000000 C180.50000000,164.40000000 179.10000000,168.50000000 174.70000000,176.70000000 C181.60000000,183.60000000 190.60000000,187.30000000 196.40000000,187.30000000 C198.30000000,187.30000000 199.30000000,186.70000000 200.00000000,185.30000000 C200.60000000,184.00000000 201.10000000,182.70000000 201.60000000,181.40000000 C207.80000000,181.60000000 210.70000000,187.30000000 214.10000000,189.60000000 C212.20000000,192.10000000 210.20000000,194.60000000 208.10000000,197.00000000 C205.80000000,194.40000000 202.70000000,190.10000000 198.10000000,188.90000000 C197.30000000,190.50000000 196.40000000,192.00000000 195.50000000,193.60000000 C199.40000000,194.70000000 202.10000000,198.60000000 204.20000000,201.20000000 C202.00000000,203.50000000 199.60000000,205.70000000 197.20000000,207.90000000 C195.70000000,205.60000000 193.30000000,202.60000000 190.70000000,200.90000000 C189.70000000,202.20000000 188.70000000,203.50000000 187.70000000,204.80000000 C190.00000000,206.30000000 191.90000000,209.10000000 193.20000000,211.30000000 C190.40000000,213.60000000 187.50000000,215.70000000 184.50000000,217.70000000 C183.00000000,205.60000000 166.60000000,197.40000000 171.00000000,183.40000000 C169.50000000,185.90000000 167.80000000,189.00000000 167.80000000,192.70000000 C167.80000000,202.80000000 178.60000000,210.90000000 179.40000000,220.90000000 C177.20000000,222.20000000 174.90000000,223.50000000 172.50000000,224.70000000 C172.10000000,213.60000000 160.70000000,201.50000000 160.70000000,192.50000000 C160.70000000,182.40000000 174.00000000,172.20000000 174.00000000,160.20000000 C174.00000000,148.20000000 158.70000000,139.90000000 158.70000000,129.40000000 C158.70000000,118.90000000 165.20000000,112.90000000 165.20000000,99.40000000 C165.20000000,89.50000000 160.50000000,79.60000000 153.30000000,73.20000000 C152.00000000,72.10000000 150.80000000,71.20000000 149.20000000,70.40000000 C156.00000000,78.60000000 160.00000000,86.00000000 160.00000000,97.30000000 C160.00000000,110.00000000 152.50000000,117.00000000 152.50000000,129.40000000 C152.50000000,141.80000000 167.50000000,148.70000000 167.50000000,160.20000000 C167.50000000,171.70000000 153.50000000,181.50000000 153.50000000,193.40000000 C153.50000000,204.20000000 165.80000000,215.00000000 166.00000000,227.80000000 C163.30000000,229.00000000 160.60000000,230.10000000 157.80000000,231.00000000 C159.40000000,218.10000000 145.50000000,204.70000000 145.50000000,194.10000000 C145.50000000,182.60000000 160.00000000,172.60000000 160.00000000,160.20000000 C160.00000000,147.80000000 145.30000000,142.00000000 145.30000000,129.20000000 C145.30000000,116.40000000 154.40000000,109.30000000 154.40000000,95.20000000 C154.40000000,84.20000000 149.00000000,74.30000000 141.00000000,68.20000000 C140.80000000,68.10000000 140.70000000,67.90000000 140.50000000,67.80000000 C139.80000000,67.20000000 139.10000000,67.90000000 139.70000000,68.60000000 C145.30000000,75.60000000 148.30000000,82.70000000 148.30000000,93.20000000 C148.30000000,106.10000000 137.90000000,116.60000000 137.90000000,129.10000000 C137.90000000,143.90000000 151.90000000,148.10000000 151.90000000,160.20000000 C151.90000000,172.30000000 136.90000000,182.00000000 136.90000000,194.90000000 C136.90000000,206.80000000 151.10000000,220.10000000 148.60000000,233.80000000 C145.80000000,234.50000000 142.90000000,235.20000000 140.00000000,235.70000000 C142.70000000,218.60000000 128.80000000,206.20000000 128.80000000,195.00000000 C128.80000000,182.90000000 144.30000000,172.00000000 144.30000000,160.20000000 C144.30000000,149.00000000 133.20000000,145.40000000 131.70000000,133.90000000 C131.50000000,132.30000000 130.20000000,131.20000000 128.50000000,131.50000000 C126.20000000,131.90000000 123.30000000,133.40000000 118.80000000,133.40000000 C114.20000000,133.40000000 111.40000000,131.90000000 109.10000000,131.50000000 C107.40000000,131.20000000 106.10000000,132.40000000 105.90000000,133.90000000 C104.40000000,145.40000000 93.30000000,149.00000000 93.30000000,160.20000000 C93.30000000,172.10000000 108.80000000,182.90000000 108.80000000,195.00000000 C108.80000000,206.20000000 94.90000000,218.50000000 97.60000000,235.70000000 C94.70000000,235.20000000 91.80000000,234.50000000 89.00000000,233.80000000 C86.60000000,220.00000000 100.70000000,206.80000000 100.70000000,194.90000000 C100.70000000,182.00000000 85.70000000,172.30000000 85.70000000,160.20000000 C85.70000000,148.10000000 99.70000000,143.90000000 99.70000000,129.10000000 C99.70000000,116.60000000 89.30000000,106.10000000 89.30000000,93.20000000 C89.30000000,82.70000000 92.30000000,75.60000000 97.90000000,68.60000000 C98.40000000,67.90000000 97.80000000,67.30000000 97.10000000,67.80000000 C96.90000000,67.90000000 96.80000000,68.10000000 96.60000000,68.20000000 C88.70000000,74.30000000 83.20000000,84.20000000 83.20000000,95.20000000 C83.20000000,109.30000000 92.30000000,116.40000000 92.30000000,129.20000000 C92.30000000,142.00000000 77.60000000,147.80000000 77.60000000,160.20000000 C77.60000000,172.60000000 92.10000000,182.60000000 92.10000000,194.10000000 C92.10000000,204.70000000 78.20000000,218.00000000 79.80000000,231.00000000 C77.00000000,230.00000000 74.30000000,229.00000000 71.60000000,227.80000000 C71.80000000,215.00000000 84.10000000,204.20000000 84.10000000,193.40000000 C84.10000000,181.50000000 70.10000000,171.80000000 70.10000000,160.20000000 C70.10000000,148.60000000 85.10000000,141.80000000 85.10000000,129.40000000 C85.10000000,117.00000000 77.60000000,110.00000000 77.60000000,97.30000000 C77.60000000,86.00000000 81.60000000,78.60000000 88.40000000,70.40000000 C86.90000000,71.20000000 85.60000000,72.10000000 84.30000000,73.20000000 C77.10000000,79.60000000 72.40000000,89.60000000 72.40000000,99.40000000 C72.40000000,112.90000000 78.90000000,118.90000000 78.90000000,129.40000000 C78.90000000,139.90000000 63.60000000,148.20000000 63.60000000,160.20000000 C63.60000000,172.20000000 76.90000000,182.30000000 76.90000000,192.50000000 C76.90000000,201.60000000 65.50000000,213.70000000 65.10000000,224.70000000 C62.80000000,223.50000000 60.50000000,222.30000000 58.20000000,220.90000000 C59.10000000,210.80000000 69.90000000,202.80000000 69.90000000,192.70000000 C69.90000000,189.00000000 68.20000000,185.90000000 66.70000000,183.40000000 C71.10000000,197.40000000 54.70000000,205.70000000 53.20000000,217.70000000 C50.20000000,215.70000000 47.30000000,213.60000000 44.50000000,211.30000000 C45.80000000,209.10000000 47.80000000,206.30000000 50.00000000,204.80000000 C49.00000000,203.50000000 47.90000000,202.30000000 47.00000000,200.90000000 C44.30000000,202.50000000 42.00000000,205.50000000 40.50000000,207.90000000 C38.10000000,205.80000000 35.70000000,203.50000000 33.50000000,201.20000000 C35.60000000,198.60000000 38.30000000,194.60000000 42.20000000,193.60000000 C41.30000000,192.10000000 40.40000000,190.50000000 39.60000000,188.90000000 C35.00000000,190.10000000 31.90000000,194.40000000 29.60000000,197.00000000 C27.50000000,194.60000000 25.50000000,192.20000000 23.60000000,189.60000000 C27.10000000,187.30000000 29.90000000,181.70000000 36.20000000,181.40000000 C36.70000000,182.70000000 37.30000000,184.00000000 37.80000000,185.30000000 C38.50000000,186.80000000 39.50000000,187.30000000 41.40000000,187.30000000 C47.20000000,187.30000000 56.20000000,183.50000000 63.10000000,176.70000000 C58.60000000,168.50000000 57.30000000,164.40000000 57.30000000,160.10000000 C57.30000000,149.30000000 72.70000000,140.20000000 72.70000000,129.70000000 C72.70000000,119.20000000 67.40000000,113.20000000 67.40000000,101.80000000 C67.40000000,91.50000000 72.00000000,82.70000000 78.10000000,75.20000000 C76.60000000,76.10000000 75.30000000,77.20000000 74.00000000,78.50000000 C67.40000000,85.10000000 63.10000000,94.90000000 63.10000000,103.80000000 C63.10000000,115.90000000 67.60000000,120.80000000 67.60000000,129.80000000 C67.60000000,138.10000000 50.10000000,149.50000000 52.10000000,160.80000000 C46.00000000,166.40000000 38.70000000,168.80000000 32.30000000,168.80000000 C32.90000000,171.10000000 33.50000000,173.40000000 34.20000000,175.70000000 C27.00000000,176.10000000 23.70000000,182.20000000 20.00000000,184.20000000 C18.10000000,181.40000000 16.40000000,178.50000000 14.80000000,175.50000000 C21.20000000,174.80000000 23.10000000,166.60000000 32.00000000,167.30000000 C31.50000000,165.10000000 31.10000000,162.90000000 30.80000000,160.70000000 C20.50000000,160.00000000 18.20000000,168.70000000 11.50000000,169.00000000 C10.10000000,165.90000000 8.80000000,162.80000000 7.60000000,159.60000000 C17.00000000,160.00000000 20.20000000,150.90000000 30.00000000,151.00000000 C30.00000000,150.10000000 30.00000000,149.20000000 30.00000000,148.20000000 C30.00000000,146.50000000 30.10000000,144.90000000 30.10000000,143.20000000 C18.50000000,142.90000000 15.00000000,152.90000000 5.00000000,151.90000000 C4.10000000,148.80000000 3.30000000,145.60000000 2.60000000,142.30000000 C15.20000000,143.90000000 19.80000000,133.20000000 31.20000000,133.30000000 C31.70000000,130.30000000 32.40000000,127.30000000 33.20000000,124.40000000 C19.40000000,123.80000000 14.60000000,135.80000000 1.20000000,133.60000000 C0.80000000,130.80000000 0.60000000,128.00000000 0.40000000,125.20000000 C16.00000000,126.90000000 21.90000000,114.10000000 36.10000000,115.70000000 C37.40000000,112.30000000 39.00000000,109.00000000 40.80000000,105.80000000 C23.00000000,102.70000000 16.90000000,117.60000000 0.30000000,115.30000000 C1.70000000,51.30000000 54.20000000,0.00000000 118.60000000,0.00000000 C183.10000000,0.00000000 235.50000000,51.30000000 237.30000000,115.40000000 C220.70000000,117.70000000 214.60000000,102.80000000 196.80000000,105.90000000 C198.60000000,109.10000000 200.10000000,112.40000000 201.50000000,115.80000000 C215.70000000,114.10000000 221.50000000,127.00000000 237.20000000,125.20000000z M67.60000000,75.40000000 C58.90000000,71.80000000 48.30000000,72.70000000 39.20000000,78.50000000 C37.80000000,70.10000000 33.20000000,62.60000000 26.70000000,58.10000000 C25.80000000,57.50000000 24.90000000,58.10000000 24.90000000,59.10000000 C26.30000000,76.90000000 15.90000000,92.30000000 3.10000000,105.90000000 C16.30000000,109.90000000 27.50000000,92.90000000 44.50000000,98.80000000 C50.80000000,89.70000000 58.60000000,81.70000000 67.60000000,75.40000000z M118.60000000,64.70000000 C107.60000000,64.70000000 98.30000000,70.90000000 95.90000000,79.00000000 C95.70000000,79.60000000 96.00000000,80.00000000 96.70000000,79.70000000 C98.70000000,78.80000000 100.90000000,78.40000000 103.40000000,78.40000000 C107.90000000,78.40000000 111.90000000,80.10000000 114.20000000,82.90000000 C115.20000000,86.30000000 115.30000000,91.30000000 114.10000000,94.10000000 C112.30000000,93.70000000 111.60000000,92.30000000 109.80000000,92.30000000 C108.00000000,92.30000000 106.60000000,93.60000000 103.50000000,93.60000000 C100.40000000,93.60000000 100.10000000,92.10000000 98.10000000,92.10000000 C95.70000000,92.10000000 95.30000000,94.50000000 95.30000000,97.30000000 C95.30000000,109.60000000 106.60000000,126.50000000 118.60000000,126.50000000 C130.60000000,126.50000000 141.90000000,109.60000000 141.90000000,97.30000000 C141.90000000,94.50000000 141.30000000,92.20000000 138.90000000,91.90000000 C137.70000000,92.80000000 136.50000000,93.60000000 133.70000000,93.60000000 C130.60000000,93.60000000 129.80000000,92.30000000 128.00000000,92.30000000 C125.80000000,92.30000000 126.00000000,96.90000000 123.40000000,97.20000000 C121.70000000,93.10000000 121.60000000,87.70000000 123.00000000,83.00000000 C125.30000000,80.10000000 129.30000000,78.50000000 133.80000000,78.50000000 C136.20000000,78.50000000 138.50000000,78.90000000 140.50000000,79.80000000 C141.20000000,80.10000000 141.50000000,79.70000000 141.30000000,79.10000000 C138.90000000,70.90000000 129.60000000,64.70000000 118.60000000,64.70000000z M136.20000000,82.30000000 C133.50000000,82.30000000 130.50000000,83.10000000 128.50000000,85.30000000 C128.30000000,85.90000000 128.30000000,86.80000000 128.60000000,87.30000000 C133.40000000,85.70000000 137.60000000,85.60000000 139.70000000,87.90000000 C140.80000000,86.90000000 141.10000000,86.00000000 141.10000000,85.00000000 C141.10000000,83.40000000 139.40000000,82.30000000 136.20000000,82.30000000z M97.60000000,87.90000000 C99.90000000,85.60000000 104.80000000,85.70000000 109.80000000,87.50000000 C110.00000000,85.00000000 105.50000000,82.20000000 101.00000000,82.20000000 C97.70000000,82.20000000 96.10000000,83.30000000 96.10000000,84.90000000 C96.20000000,86.00000000 96.50000000,86.90000000 97.60000000,87.90000000z M173.60000000,46.30000000 C164.90000000,46.90000000 157.30000000,49.90000000 151.20000000,54.90000000 C153.80000000,47.50000000 157.10000000,41.10000000 161.30000000,34.90000000 C150.20000000,36.10000000 141.00000000,40.10000000 134.20000000,47.10000000 L128.90000000,33.20000000 L140.60000000,22.80000000 L124.90000000,21.70000000 L118.60000000,7.10000000 L112.30000000,21.70000000 L96.60000000,22.80000000 L108.30000000,33.20000000 L103.00000000,47.10000000 C96.20000000,40.20000000 87.00000000,36.10000000 75.90000000,34.90000000 C80.10000000,41.10000000 83.40000000,47.60000000 86.00000000,54.90000000 C79.90000000,49.90000000 72.30000000,46.90000000 63.60000000,46.30000000 C68.80000000,53.00000000 73.40000000,60.20000000 76.90000000,67.90000000 C77.30000000,68.80000000 78.10000000,69.10000000 79.00000000,68.60000000 C90.90000000,62.70000000 104.30000000,59.30000000 118.60000000,59.30000000 C132.80000000,59.30000000 146.20000000,62.60000000 158.20000000,68.60000000 C159.10000000,69.10000000 159.90000000,68.80000000 160.30000000,67.90000000 C163.70000000,60.20000000 168.40000000,53.00000000 173.60000000,46.30000000z M192.60000000,98.80000000 C209.70000000,92.90000000 220.90000000,109.80000000 234.10000000,105.90000000 C221.30000000,92.30000000 210.90000000,76.90000000 212.30000000,59.10000000 C212.40000000,58.10000000 211.40000000,57.50000000 210.60000000,58.10000000 C204.10000000,62.60000000 199.50000000,70.10000000 198.10000000,78.50000000 C189.10000000,72.70000000 178.50000000,71.90000000 169.70000000,75.40000000 C178.70000000,81.70000000 186.40000000,89.70000000 192.60000000,98.80000000z " stroke="none" stroke-width="1" stroke-linecap="butt" stroke-linejoin="miter"/>
<path fill="rgba(0, 100, 60, 1)" d="M190.40000000,240.30000000 L188.60000000,240.30000000 L188.60000000,228.90000000 L184.40000000,228.90000000 L184.40000000,227.30000000 L194.70000000,227.30000000 L194.70000000,228.90000000 L190.40000000,228.90000000 L190.40000000,240.30000000z" stroke="none" stroke-width="1" stroke-linecap="butt" stroke-linejoin="miter"/>
<path fill="rgba(0, 100, 60, 1)" d="M203.20000000,237.30000000 L203.30000000,237.30000000 L207.20000000,227.30000000 L210.00000000,227.30000000 L210.00000000,240.30000000 L208.20000000,240.30000000 L208.20000000,229.40000000 L208.10000000,229.40000000 L203.80000000,240.30000000 L202.60000000,240.30000000 L198.20000000,229.40000000 L198.20000000,229.40000000 L198.20000000,240.30000000 L196.40000000,240.30000000 L196.40000000,227.30000000 L199.30000000,227.30000000 L203.20000000,237.30000000z" stroke="none" stroke-width="1" stroke-linecap="butt" stroke-linejoin="miter"/>
</g>
</svg>
