<!-- Made in Mondrian.io -->
<svg xmlns="http://www.w3.org/2000/svg" width="702.06213" height="555.66827" xmlns:mondrian="https://mondrian.io/xml">
<g>
<path fill="rgba(255, 255, 255, 1)" class="st13" d="M489.63600000,454.02700000 C489.63600000,454.02700000 499.23600000,501.72700000 535.73600000,504.92700000 C572.23600000,508.12700000 497.13600000,568.72700000 430.63600000,501.72700000 C430.63600000,501.72700000 395.83600000,584.82700000 341.63600000,513.02700000 C341.63600000,513.02700000 293.93600000,590.72700000 248.93600000,514.12700000 C248.93600000,514.12700000 202.33600000,582.72700000 160.53600000,517.92700000 C160.53600000,517.92700000 104.23600000,580.12700000 56.53600000,512.02700000 C56.53600000,512.02700000 112.23600000,504.02700000 116.53600000,471.32700000 C120.83600000,438.62700000 114.93600000,192.62700000 114.93600000,192.62700000 C114.93600000,192.62700000 137.43600000,15.72700000 293.43600000,6.62700000 C449.43600000,-2.47300000 482.13600000,165.82700000 482.13600000,165.82700000" stroke="none" stroke-width="1" stroke-linecap="butt" stroke-linejoin="miter"/>
<path d="M276.83600000,1.72700000 C318.53600000,-4.27300000 361.93600000,5.52700000 397.93600000,28.52700000 C428.93600000,48.12700000 454.43600000,77.22700000 471.33600000,111.02700000 C486.63600000,141.42700000 494.93600000,175.62700000 495.73600000,210.02700000 C495.83600000,211.92700000 496.13600000,213.82700000 496.13600000,215.62700000 L496.13600000,436.22700000 C496.13600000,438.42700000 496.03600000,440.62700000 496.33600000,442.82700000 C496.83600000,446.72700000 496.33600000,450.62700000 497.13600000,454.52700000 C498.23600000,459.82700000 499.63600000,465.22700000 502.23600000,469.92700000 C509.43600000,484.12700000 523.23600000,493.72700000 537.83600000,496.92700000 C540.83600000,497.62700000 544.33600000,497.52700000 546.63600000,500.12700000 C550.23600000,503.62700000 549.83600000,510.62700000 545.73600000,513.52700000 C543.73600000,514.72700000 542.53600000,517.02700000 540.93600000,518.72700000 C528.23600000,533.82700000 509.43600000,542.52700000 490.53600000,543.32700000 C469.13600000,544.72700000 447.23600000,536.02700000 432.53600000,519.32700000 C430.13600000,523.42700000 427.53600000,527.42700000 424.23600000,531.02700000 C421.03600000,534.82700000 417.13600000,537.72700000 413.33600000,540.52700000 C410.33600000,542.02700000 407.53600000,544.02700000 404.33600000,545.22700000 C395.53600000,549.12700000 385.73600000,549.92700000 376.33600000,548.92700000 C362.83600000,547.12700000 350.33600000,539.92700000 341.23600000,529.22700000 C331.03600000,545.62700000 312.83600000,556.02700000 294.23600000,555.62700000 C288.93600000,555.92700000 283.73600000,554.52700000 278.73600000,553.42700000 C266.63600000,549.72700000 255.83600000,541.52700000 248.53600000,530.72700000 C240.73600000,541.62700000 229.13600000,549.12700000 216.63600000,552.12700000 C206.93600000,554.32700000 196.63600000,554.02700000 187.13600000,550.72700000 C179.53600000,548.22700000 172.63600000,543.92700000 166.73600000,538.32700000 C164.73600000,536.62700000 163.23600000,534.22700000 161.23600000,532.42700000 C149.03600000,543.82700000 133.03600000,550.62700000 116.73600000,551.52700000 C98.33600000,552.82700000 79.43600000,546.92700000 65.13600000,534.42700000 C60.83600000,530.82700000 57.13600000,526.62700000 53.73600000,522.02700000 C52.43600000,520.22700000 52.13600000,517.92700000 50.83600000,516.02700000 C48.33600000,512.22700000 49.53600000,506.62700000 53.13600000,504.12700000 C55.53600000,502.22700000 58.73600000,502.62700000 61.53600000,502.22700000 C72.13600000,500.72700000 82.33600000,495.92700000 90.43600000,488.62700000 C100.03600000,479.92700000 106.63600000,466.92700000 106.73600000,453.42700000 C107.23600000,440.72700000 106.83600000,428.02700000 106.93600000,415.32700000 L106.93600000,216.32700000 C107.13600000,213.52700000 106.43600000,210.62700000 106.53600000,207.82700000 C107.63600000,177.52700000 114.43600000,147.42700000 126.73600000,120.02700000 C140.43600000,89.42700000 160.93600000,62.22700000 186.33600000,41.72700000 C212.83600000,20.32700000 244.13600000,6.22700000 276.83600000,1.72700000z M291.23600000,17.92700000 C265.63600000,19.52700000 240.43600000,27.52700000 218.03600000,40.72700000 C196.63600000,53.32700000 177.73600000,70.82700000 162.83600000,91.42700000 C139.53600000,123.32700000 125.93600000,162.92700000 123.73600000,203.22700000 C124.03600000,211.52700000 123.83600000,219.92700000 123.93600000,228.22700000 L123.93600000,377.12700000 C123.83600000,402.72700000 124.13600000,428.32700000 123.83600000,453.82700000 C123.43600000,465.52700000 120.03600000,477.02700000 113.93600000,486.82700000 C104.63600000,502.32700000 89.23600000,513.12700000 72.63600000,517.72700000 C77.93600000,522.82700000 84.03600000,526.92700000 90.73600000,529.62700000 C99.43600000,533.32700000 109.03600000,534.32700000 118.33600000,533.52700000 C131.13600000,532.42700000 143.53600000,526.52700000 152.73600000,517.02700000 C154.33600000,515.62700000 154.13600000,513.12700000 155.53600000,511.52700000 C158.03600000,508.02700000 163.23600000,507.12700000 166.63600000,509.62700000 C168.73600000,511.02700000 169.73600000,513.62700000 171.03600000,515.72700000 C172.83600000,518.52700000 174.83600000,521.22700000 177.03600000,523.62700000 C182.23600000,529.32700000 189.13600000,533.02700000 196.43600000,534.72700000 C200.23600000,535.62700000 204.13600000,535.52700000 207.93600000,535.42700000 C222.13600000,534.52700000 235.33600000,524.72700000 240.93600000,510.82700000 C243.13600000,504.42700000 252.23600000,502.72700000 256.33600000,507.82700000 C258.03600000,509.82700000 258.43600000,512.62700000 259.73600000,515.02700000 C264.63600000,525.12700000 273.43600000,532.92700000 283.63600000,536.12700000 C287.83600000,537.12700000 292.13600000,538.02700000 296.43600000,537.72700000 C310.43600000,537.42700000 323.93600000,528.52700000 330.13600000,515.22700000 C331.73600000,512.42700000 332.13600000,508.92700000 334.13600000,506.32700000 C336.83600000,502.72700000 342.43600000,502.22700000 345.73600000,505.12700000 C347.43600000,506.42700000 348.03600000,508.72700000 349.33600000,510.32700000 C350.73600000,512.12700000 351.83600000,514.12700000 353.23600000,515.92700000 C360.83600000,525.62700000 372.43600000,531.92700000 384.43600000,531.42700000 C390.73600000,531.52700000 397.23600000,530.02700000 402.73600000,526.62700000 C408.53600000,523.32700000 413.73600000,518.52700000 417.43600000,512.62700000 C419.23600000,509.82700000 420.13600000,506.52700000 421.73600000,503.62700000 C422.83600000,501.92700000 422.33600000,499.62700000 423.33600000,497.92700000 C425.03600000,494.02700000 429.53600000,492.02700000 433.33600000,493.52700000 C436.43600000,494.52700000 438.13600000,497.62700000 440.13600000,500.22700000 C443.53600000,505.92700000 448.13600000,510.82700000 453.33600000,514.82700000 C470.43600000,527.82700000 494.23600000,529.52700000 513.13600000,519.92700000 C517.53600000,517.72700000 521.53600000,514.62700000 525.43600000,511.42700000 C515.13600000,507.52700000 505.83600000,501.12700000 498.13600000,492.92700000 C491.43600000,485.52700000 486.13600000,476.42700000 483.43600000,466.52700000 C481.53600000,460.52700000 481.03600000,454.12700000 480.43600000,447.82700000 L480.43600000,221.02700000 C480.43600000,219.12700000 480.03600000,217.22700000 480.03600000,215.32700000 C479.93600000,196.52700000 477.53600000,177.72700000 472.63600000,159.62700000 C462.33600000,120.52700000 440.53600000,84.82700000 410.83600000,59.12700000 C397.03600000,47.42700000 381.63600000,37.42700000 365.13600000,30.82700000 C341.33600000,20.62700000 316.13600000,16.32700000 291.23600000,17.92700000z " fill="rgba(3, 105, 148, 1)" stroke="none" stroke-width="1" stroke-linecap="butt" stroke-linejoin="miter"/>
<path d="M375.73600000,209.82700000 C366.23600000,213.12700000 355.73600000,213.62700000 345.93600000,210.92700000 C334.33600000,207.82700000 323.93600000,200.52700000 317.23600000,190.52700000 C310.93600000,181.32700000 307.83600000,170.02700000 308.53600000,158.92700000 C309.13600000,147.92700000 313.53600000,137.12700000 320.83600000,128.72700000 C321.33600000,128.12700000 322.03600000,127.82700000 322.73600000,127.62700000 C339.43600000,123.02700000 356.13600000,118.32700000 372.83600000,113.62700000 C374.13600000,113.22700000 375.43600000,114.02700000 376.73600000,114.42700000 C388.73600000,118.82700000 398.83600000,127.92700000 404.43600000,139.32700000 C408.63600000,147.82700000 410.43600000,157.52700000 409.43600000,166.92700000 C408.33600000,178.02700000 403.33600000,188.82700000 395.53600000,196.92700000 C390.13600000,202.82700000 383.23600000,207.22700000 375.73600000,209.82700000z " fill="rgba(3, 105, 148, 1)" stroke="none" stroke-width="1" stroke-linecap="butt" stroke-linejoin="miter"/>
<path d="M234.53600000,212.32700000 C222.93600000,211.12700000 211.93600000,205.82700000 203.73600000,197.42700000 C191.53600000,185.12700000 186.33600000,166.32700000 190.83600000,149.52700000 C194.93600000,132.82700000 208.23600000,118.62700000 224.73600000,113.72700000 C241.83600000,118.02700000 258.83600000,122.82700000 275.93600000,127.32700000 C277.53600000,127.52700000 278.43600000,129.02700000 279.33600000,130.12700000 C284.23600000,136.22700000 287.73600000,143.32700000 289.33600000,151.02700000 C291.73600000,161.32700000 290.63600000,172.52700000 286.33600000,182.22700000 C282.13600000,192.02700000 274.73600000,200.32700000 265.53600000,205.62700000 C256.33600000,211.12700000 245.23600000,213.52700000 234.53600000,212.32700000z " fill="rgba(3, 105, 148, 1)" stroke="none" stroke-width="1" stroke-linecap="butt" stroke-linejoin="miter"/>
<path d="M217.13600000,258.12700000 C217.13600000,258.12700000 295.13600000,294.32700000 380.33600000,258.12700000" stroke="rgba(3, 105, 148, 1)" stroke-linecap="round" stroke-miterlimit="10" stroke-width="14.473" class="st14" fill="none" stroke-linejoin="miter"/>
<path stroke-linejoin="round" d="M83.63600000,341.72700000 C83.63600000,341.72700000 53.03600000,323.22700000 26.33600000,352.12700000 C11.23600000,372.72700000 7.23600000,395.72700000 7.23600000,395.72700000 L30.73600000,381.82700000 L34.63600000,408.12700000 L52.93600000,393.12700000 L63.33600000,414.22700000 C63.33600000,414.22700000 73.03600000,380.12700000 82.33600000,382.52700000 C91.73600000,384.82700000 97.63600000,353.92700000 83.63600000,341.72700000z " stroke="rgba(3, 105, 148, 1)" stroke-linecap="round" stroke-miterlimit="10" stroke-width="14.473" class="st15" fill="rgba(255, 255, 255, 1)"/>
<path stroke-linejoin="round" d="M581.93600000,302.12700000 C581.93600000,302.12700000 566.03600000,268.02700000 540.73600000,271.32700000 C515.33600000,274.72700000 531.33600000,290.62700000 531.33600000,290.62700000 C531.33600000,290.62700000 506.53600000,296.62700000 521.53600000,311.22700000 C536.53600000,325.82700000 504.53600000,316.52700000 516.63600000,328.92700000 C528.73600000,341.32700000 535.83600000,352.22700000 557.63600000,349.12700000 C557.53600000,349.22700000 593.53600000,340.92700000 581.93600000,302.12700000z " stroke="rgba(3, 105, 148, 1)" stroke-linecap="round" stroke-miterlimit="10" stroke-width="14.473" class="st15" fill="rgba(255, 255, 255, 1)"/>
<path d="M676.43600000,139.22700000 C685.23600000,116.42700000 699.33600000,86.12700000 699.43600000,85.82700000 C700.83600000,82.72700000 699.53600000,79.12700000 696.43600000,77.72700000 C693.33600000,76.32700000 689.73600000,77.62700000 688.33600000,80.72700000 C688.23600000,80.92700000 681.43600000,95.52700000 674.33600000,112.12700000 L664.03600000,91.92700000 C662.53600000,88.92700000 658.83600000,87.72700000 655.83600000,89.22700000 C652.83600000,90.72700000 651.63600000,94.42700000 653.13600000,97.42700000 L667.83600000,126.22700000 C667.93600000,126.42700000 668.03600000,126.62700000 668.23600000,126.82700000 C667.13600000,129.52700000 666.03600000,132.22700000 665.03600000,134.82700000 C658.73600000,151.12700000 657.13600000,161.52700000 656.83600000,167.52700000 L623.93600000,205.52700000 L619.53600000,179.62700000 C618.93600000,176.32700000 615.73600000,174.02700000 612.43600000,174.62700000 C609.13600000,175.22700000 606.83600000,178.32700000 607.43600000,181.72700000 L613.53600000,217.52700000 L563.73600000,275.12700000 C562.63600000,276.42700000 562.13600000,278.02700000 562.23600000,279.72700000 C562.43600000,281.42700000 563.23600000,282.92700000 564.53600000,283.92700000 L571.23600000,289.22700000 C572.53600000,290.22700000 574.13600000,290.72700000 575.73600000,290.52700000 C577.33600000,290.32700000 578.83600000,289.52700000 579.83600000,288.22700000 L665.93600000,177.92700000 L698.63600000,161.62700000 C701.63600000,160.12700000 702.93600000,156.42700000 701.43600000,153.42700000 C699.93600000,150.42700000 696.23600000,149.12700000 693.23600000,150.62700000 L670.53600000,161.92700000 L669.83600000,161.42700000 C670.73600000,156.32700000 672.63600000,149.02700000 676.43600000,139.22700000z " fill="rgba(3, 105, 148, 1)" stroke="none" stroke-width="1" stroke-linecap="butt" stroke-linejoin="miter"/>
<path d="M521.63600000,334.22700000 L510.83600000,349.12700000 C509.73600000,350.42700000 509.23600000,352.02700000 509.33600000,353.72700000 C509.53600000,355.42700000 510.33600000,356.92700000 511.63600000,357.92700000 L518.33600000,363.22700000 C519.63600000,364.22700000 521.23600000,364.72700000 522.83600000,364.52700000 C524.43600000,364.32700000 525.93600000,363.52700000 526.93600000,362.22700000 L540.73600000,344.62700000 L529.13600000,344.62700000" fill="rgba(3, 105, 148, 1)" stroke="none" stroke-width="1" stroke-linecap="butt" stroke-linejoin="miter"/>
</g>
</svg>
