<!-- Made in Mondrian.io -->
<svg xmlns="http://www.w3.org/2000/svg" width="600" height="400" xmlns:mondrian="https://mondrian.io/xml">
<path d="M60.80765083,114.40949706 C60.80765083,79.43231577 86.16659957,50.37803431 119.50186742,44.62930760 C115.56392604,43.95019289 111.51467454,43.59630764 107.38276871,43.59630764 C68.27372410,43.59630764 36.56957929,75.30045246 36.56957929,114.40949706 C36.56957929,153.51854166 68.27372410,185.22268648 107.38276871,185.22268648 C111.51467454,185.22268648 115.56392604,184.86880123 119.50186742,184.18968653 C86.16659957,178.44095981 60.80765083,149.38667835 60.80765083,114.40949706z " stroke="rgba(0, 72, 90, 1)" fill="rgba(189, 222, 227, 1)" stroke-width="2" stroke-linecap="butt" stroke-linejoin="miter" points="[object Object]"/>
<path d="M181.52478185,102.29039835 C180.84566714,106.22833973 180.49178190,110.27759123 180.49178190,114.40949706 C180.49178190,153.51854166 212.19592671,185.22268648 251.30497132,185.22268648 C256.33595446,185.22268648 261.24439969,184.69803929 265.97858727,183.70050991 C270.71271206,184.69805252 275.62109695,185.22268648 280.65201667,185.22268648 C284.78392250,185.22268648 288.83317400,184.86880123 292.77111538,184.18968653 C287.67263556,183.31044454 282.76074043,181.88603128 278.09762075,179.97863760 C303.92315828,169.41485896 322.11816073,144.03701327 322.11816073,114.40949706 C322.11816073,110.27759123 321.76427549,106.22833973 321.08516078,102.29039835 C315.34971981,135.54862582 286.41632150,160.86735936 251.54738186,160.98421214 C240.66820433,148.53441356 234.07689879,132.24169626 234.07689879,114.40949706 C234.07689879,79.43231577 259.43584753,50.37803431 292.77111538,44.62930760 C288.83317400,43.95019289 284.78392250,43.59630764 280.65201667,43.59630764 C241.54297206,43.59630764 209.83882725,75.30045246 209.83882725,114.40949706 C209.83882725,129.46771900 214.53894802,143.42816890 222.55217109,154.90382833 C201.31728813,145.45763716 185.59101281,125.86934109 181.52478185,102.29039835z " stroke="rgba(0, 72, 90, 1)" fill="rgba(189, 222, 227, 1)" stroke-width="2" stroke-linecap="butt" stroke-linejoin="miter" points="[object Object]"/>
<path d="M568.44051011,100.99927401 C569.11962482,97.06133263 569.47351007,93.01208113 569.47351007,88.88017529 C569.47351007,49.77113069 537.76936525,18.06698588 498.66032065,18.06698588 C493.62933750,18.06698588 488.72089227,18.59163307 483.98670470,19.58916245 C479.25257990,18.59161984 474.34419501,18.06698588 469.31327529,18.06698588 C465.18136946,18.06698588 461.13211796,18.42087112 457.19417658,19.09998583 C462.29265641,19.97922782 467.20455153,21.40364107 471.86767121,23.31103476 C446.04213368,33.87481340 427.84713123,59.25265908 427.84718696,88.91374125 C427.84713123,88.88017529 427.84713123,88.88017529 427.84713123,88.88017529 C427.84713123,88.89136456 427.84713382,88.90255322 427.84718696,88.91374125 C414.46312862,101.79633107 406.13553304,119.89506787 406.13553304,139.93881883 C406.13553304,154.99704076 410.83565381,168.95749067 418.84887688,180.43315009 C397.61399392,170.98695893 381.88771860,151.39866286 377.82148764,127.81972011 C377.14237294,131.75766149 376.78848769,135.80691300 376.78848769,139.93881883 C376.78848769,179.04786343 408.49263250,210.75200825 447.60167711,210.75200825 C452.63266026,210.75200825 457.54110548,210.22736105 462.27529306,209.22983167 C467.00941786,210.22737428 471.91780274,210.75200825 476.94872246,210.75200825 C481.08062829,210.75200825 485.12987979,210.39812300 489.06782118,209.71900829 C483.96934135,208.83976630 479.05744623,207.41535305 474.39432655,205.50795936 C500.21986407,194.94418072 518.41486653,169.56633504 518.41486653,139.93881883 C518.41486653,139.92761601 518.41486393,139.91641379 518.41485872,139.90521219 C531.79888717,127.02262386 540.12646471,108.92390455 540.12646471,88.88017529 C540.12646471,73.82195336 535.42634395,59.86150345 527.41312087,48.38584403 C548.64800384,57.83203519 564.37427915,77.42033126 568.44051011,100.99927401z M498.41791011,42.30546021 C509.29708764,54.75525880 515.88839317,71.04797610 515.88839317,88.88017529 C515.88839317,123.85735659 490.52944443,152.91163804 457.19417658,158.66036476 C461.13211796,159.33947947 465.18136946,159.69336471 469.31327529,159.69336471 C485.28277225,159.69336471 500.01760959,154.40715849 511.86338414,145.48909192 C500.64658030,169.64610559 476.20925257,186.41847657 447.84408765,186.51353391 C436.96491012,174.06373532 430.37360459,157.77101802 430.37360459,139.93881883 C430.37360459,104.96163754 455.73255332,75.90735608 489.06782118,70.15862936 C485.12987979,69.47951466 481.08062829,69.12562941 476.94872246,69.12562941 C460.97925310,69.12562941 446.24443910,74.41181736 434.39865033,83.32982337 C445.61547017,59.17285236 470.05277578,42.40051744 498.41791011,42.30546021z " stroke="rgba(0, 72, 90, 1)" fill="rgba(189, 222, 227, 1)" stroke-width="2" stroke-linecap="butt" stroke-linejoin="miter" points="[object Object]"/>
<path d="M161.78047254,315.45940230 C161.78047254,351.77984628 132.33693518,381.22338364 96.01649120,381.22338364 C59.69604722,381.22338364 30.25250986,351.77984628 30.25250986,315.45940230 C30.25250986,279.13895832 59.69604722,249.69542096 96.01649120,249.69542096 C132.33693518,249.69542096 161.78047254,279.13895832 161.78047254,315.45940230z" fill="rgba(189, 222, 227, 1)" stroke="rgba(0, 72, 90, 1)" stroke-linecap="butt" stroke-linejoin="miter" stroke-width="2" opacity="1" points="[object Object]"/>
<path d="M424.66126563,277.34907600 L424.66126563,296.71061341 L444.02280304,296.71061341 C446.80980202,302.36494342 448.37548720,308.72933018 448.37548720,315.45940230 C448.37548720,322.18947443 446.80980202,328.55386118 444.02280304,334.20819120 L424.66126563,334.20819120 L424.66126563,353.56972860 C420.34597104,355.69672183 415.61710394,357.11236093 410.62773650,357.66350848 C401.06076970,346.24237054 395.30105355,331.52351331 395.30105355,315.45940230 C395.30105355,299.39529129 401.06076970,284.67643407 410.62773650,273.25529612 C415.61710394,273.80644368 420.34597104,275.22208277 424.66126563,277.34907600z " stroke="rgba(0, 72, 90, 1)" fill="rgba(189, 222, 227, 1)" stroke-width="2" stroke-linecap="butt" stroke-linejoin="miter" points="[object Object]"/>
<path d="M461.55446952,277.34907600 L461.55446952,296.71061341 L480.91600692,296.71061341 C483.70300590,302.36494342 485.26869109,308.72933018 485.26869109,315.45940230 C485.26869109,322.18947443 483.70300590,328.55386118 480.91600692,334.20819120 L461.55446952,334.20819120 L461.55446952,353.56972860 C457.23917492,355.69672183 452.51030783,357.11236093 447.52094039,357.66350848 C459.58458120,372.06520012 477.70190580,381.22338364 497.95823877,381.22338364 C534.27868275,381.22338364 563.72222011,351.77984628 563.72222011,315.45940230 C563.72222011,279.13895832 534.27868275,249.69542096 497.95823877,249.69542096 C477.70190580,249.69542096 459.58458120,258.85360449 447.52094039,273.25529612 C452.51030783,273.80644368 457.23917492,275.22208277 461.55446952,277.34907600z " fill="rgba(189, 222, 227, 1)" stroke="rgba(0, 72, 90, 1)" stroke-linecap="butt" stroke-linejoin="miter" stroke-width="2" opacity="1" points="[object Object]"/>
<path d="M282.40438612,272.99639184 C289.13445825,272.99639184 295.49884500,274.56207702 301.15317502,277.34907600 L301.15317502,296.71061341 L320.51471242,296.71061341 C323.30171141,302.36494342 324.86739659,308.72933018 324.86739659,315.45940230 C324.86739659,322.18947443 323.30171141,328.55386118 320.51471242,334.20819120 L301.15317502,334.20819120 L301.15317502,353.56972860 C295.49884500,356.35672759 289.13445825,357.92241277 282.40438612,357.92241277 C275.67431400,357.92241277 269.30992724,356.35672759 263.65559723,353.56972860 L263.65559723,334.20819120 L244.29405982,334.20819120 C241.50706084,328.55386118 239.94137566,322.18947443 239.94137566,315.45940230 C239.94137566,308.72933018 241.50706084,302.36494342 244.29405982,296.71061341 L263.65559723,296.71061341 L263.65559723,277.34907600 C269.30992724,274.56207702 275.67431400,272.99639184 282.40438612,272.99639184z " fill="rgba(189, 222, 227, 1)" stroke="rgba(0, 72, 90, 1)" stroke-linecap="butt" stroke-linejoin="miter" stroke-width="2" opacity="1" points="[object Object]"/>
</svg>
