<!-- Made in Mondrian.io -->
<svg xmlns="http://www.w3.org/2000/svg" width="272" height="160" xmlns:mondrian="https://mondrian.io/xml">
<path d="M117.88342947,82.17249662 C117.88342947,94.07926994 108.56873366,102.85317260 97.13748535,102.85317260 C85.70623704,102.85317260 76.39154123,94.07926994 76.39154123,82.17249662 C76.39154123,70.18180712 85.70623704,61.49182064 97.13748535,61.49182064 C108.56873366,61.49182064 117.88342947,70.18180712 117.88342947,82.17249662z M108.80183416,82.17249662 C108.80183416,74.73192880 103.40322668,69.64101397 97.13748535,69.64101397 C90.87174403,69.64101397 85.47313655,74.73192880 85.47313655,82.17249662 C85.47313655,89.53847228 90.87174403,94.70397927 97.13748535,94.70397927 C103.40322668,94.70397927 108.80183416,89.52914826 108.80183416,82.17249662z " fill="rgba(234, 67, 53, 1)" stroke="none" stroke-linecap="butt" stroke-linejoin="miter" stroke-width="0" opacity="1"/>
<path d="M162.63872465,82.17249662 C162.63872465,94.07926994 153.32402884,102.85317260 141.89278053,102.85317260 C130.46153222,102.85317260 121.14683641,94.07926994 121.14683641,82.17249662 C121.14683641,70.19113114 130.46153222,61.49182064 141.89278053,61.49182064 C153.32402884,61.49182064 162.63872465,70.18180712 162.63872465,82.17249662z M153.55712934,82.17249662 C153.55712934,74.73192880 148.15852186,69.64101397 141.89278053,69.64101397 C135.62703921,69.64101397 130.22843173,74.73192880 130.22843173,82.17249662 C130.22843173,89.53847228 135.62703921,94.70397927 141.89278053,94.70397927 C148.15852186,94.70397927 153.55712934,89.52914826 153.55712934,82.17249662z " fill="rgba(251, 188, 5, 1)" stroke="none" stroke-linecap="butt" stroke-linejoin="miter" stroke-width="0" opacity="1"/>
<path d="M205.52921586,62.74123930 L205.52921586,99.86948626 C205.52921586,115.14223073 196.52221271,121.38000000 185.87418206,121.38000000 C175.85086075,121.38000000 169.81821992,114.67602974 167.54315908,109.19350608 L175.44992790,105.90212708 C176.85785489,109.26809824 180.30774223,113.24013069 185.86485804,113.24013069 C192.68071654,113.24013069 196.90449752,109.03499775 196.90449752,101.11890491 L196.90449752,98.14454259 L196.58748085,98.14454259 C194.55484452,100.65270392 190.63875620,102.84384858 185.69702569,102.84384858 C175.35668770,102.84384858 165.88348355,93.83684543 165.88348355,82.24708878 C165.88348355,70.57341595 175.35668770,61.49182064 185.69702569,61.49182064 C190.62943218,61.49182064 194.54552050,63.68296530 196.58748085,66.11653447 L196.90449752,66.11653447 L196.90449752,62.75056332 L205.52921586,62.74123930z M197.54785489,82.25641280 C197.54785489,74.97435331 192.69004056,69.65033799 186.50821541,69.65033799 C180.24247409,69.65033799 174.99305092,74.97435331 174.99305092,82.25641280 C174.99305092,89.46388013 180.24247409,94.71330329 186.50821541,94.71330329 C192.69004056,94.71330329 197.54785489,89.46388013 197.54785489,82.25641280z " fill="rgba(66, 133, 244, 1)" stroke="none" stroke-linecap="butt" stroke-linejoin="miter" stroke-width="0" opacity="1"/>
<g>
<path d="M219.74834610,40.97897702 L219.74834610,101.58510590 L210.89052726,101.58510590 L210.89052726,40.97897702 L219.74834610,40.97897702z " fill="rgba(52, 168, 83, 1)" stroke="none" stroke-linecap="butt" stroke-linejoin="miter" stroke-width="0" opacity="1"/>
<path d="M254.26586751,88.97903110 L261.31482650,93.67833709 C259.03976566,97.04430825 253.55724200,102.84384858 244.08403785,102.84384858 C232.33577287,102.84384858 223.56187021,93.76225327 223.56187021,82.16317260 C223.56187021,69.86479045 232.41036503,61.48249662 243.06771969,61.48249662 C253.79966652,61.48249662 259.04908968,70.02329878 260.76470933,74.63868860 L261.70643533,76.98834160 L234.06071654,88.43823795 C236.17726904,92.58742677 239.46864804,94.70397927 244.08403785,94.70397927 C248.70875169,94.70397927 251.91621451,92.42891843 254.26586751,88.97903110z M232.56887337,81.53846327 L251.04908067,73.86479495 C250.03276251,71.28204146 246.97448400,69.48250563 243.37541235,69.48250563 C238.76002253,69.48250563 232.33577287,73.55710230 232.56887337,81.53846327z " fill="rgba(234, 67, 53, 1)" stroke="none" stroke-linecap="butt" stroke-linejoin="miter" stroke-width="0" opacity="1"/>
<path d="M42.86236593,76.79253718 L42.86236593,68.01863452 L72.42883281,68.01863452 C72.71787742,69.54777377 72.86706174,71.35663362 72.86706174,73.31467778 C72.86706174,79.89743578 71.06752591,88.03730509 65.26798558,93.83684543 C59.62695358,99.71097792 52.41948626,102.84384858 42.87168995,102.84384858 C25.17470032,102.84384858 10.29356467,88.42891393 10.29356467,70.73192429 C10.29356467,53.03493466 25.17470032,38.62000000 42.87168995,38.62000000 C52.66191077,38.62000000 59.63627760,42.46149617 64.87637675,47.46849482 L58.68522758,53.65964398 C54.92764759,50.13516449 49.83673276,47.39390266 42.86236593,47.39390266 C29.93927445,47.39390266 19.83203695,57.80883281 19.83203695,70.73192429 C19.83203695,83.65501577 29.93927445,94.06994592 42.86236593,94.06994592 C51.24465976,94.06994592 56.01855791,90.70397476 59.07683641,87.64569626 C61.55702569,85.16550699 63.18872916,81.62237945 63.83208653,76.78321316 L42.86236593,76.79253718z " fill="rgba(66, 133, 244, 1)" stroke="none" stroke-linecap="butt" stroke-linejoin="miter" stroke-width="0" opacity="1"/>
</g>
</svg>
