<!-- Made in Mondrian.io -->
<svg xmlns="http://www.w3.org/2000/svg" width="100" height="100" xmlns:mondrian="https://mondrian.io/xml">
<g>
<path d="M69.50892004,61.37407500 C69.50892004,78.47670850 55.64449623,92.34113230 38.54186274,92.34113230 C21.43922924,92.34113230 7.57480543,78.47670850 7.57480543,61.37407500 C7.57480543,44.27144150 21.43922924,30.40701770 38.54186274,30.40701770 C55.64449623,30.40701770 69.50892004,44.27144150 69.50892004,61.37407500z" fill="rgba(0, 0, 0, 1)" stroke="none" strokeLineCap="butt" strokeLineJoin="miter" opacity="1" stroke-width="1" stroke-linecap="butt" stroke-linejoin="miter"/>
<path d="M64.50421133,61.42135295 C64.50421133,75.78607304 52.85930487,87.43097949 38.49458479,87.43097949 C24.12986470,87.43097949 12.48495825,75.78607304 12.48495825,61.42135295 C12.48495825,47.05663286 24.12986470,35.41172641 38.49458479,35.41172641 C52.85930487,35.41172641 64.50421133,47.05663286 64.50421133,61.42135295z" fill="rgba(254, 255, 255, 1)" stroke="none" strokeLineCap="butt" strokeLineJoin="miter" opacity="1" stroke-width="1" stroke-linecap="butt" stroke-linejoin="miter"/>
<path d="M50.96245562,65.73715439 C50.96245562,75.00652064 43.44814959,82.52082667 34.17878334,82.52082667 C24.90941710,82.52082667 17.39511106,75.00652064 17.39511106,65.73715439 C17.39511106,56.46778815 24.90941710,48.95348211 34.17878334,48.95348211 C43.44814959,48.95348211 50.96245562,56.46778815 50.96245562,65.73715439z" fill="rgba(0, 0, 0, 1)" stroke="none" strokeLineCap="butt" strokeLineJoin="miter" opacity="1" stroke-width="1" stroke-linecap="butt" stroke-linejoin="miter"/>
<path d="M46.09958076,65.73715439 C46.09958076,72.32082901 40.76245796,77.65795181 34.17878334,77.65795181 C27.59510873,77.65795181 22.25798593,72.32082901 22.25798593,65.73715439 C22.25798593,59.15347978 27.59510873,53.81635698 34.17878334,53.81635698 C40.76245796,53.81635698 46.09958076,59.15347978 46.09958076,65.73715439z" fill="rgba(254, 255, 255, 1)" stroke="none" strokeLineCap="butt" strokeLineJoin="miter" opacity="1" stroke-width="1" stroke-linecap="butt" stroke-linejoin="miter"/>
<path d="M46.79247262,86.45286822 L92.42519457,72.40360699 L92.42519457,77.14466901 L46.79247262,91.19393024 L46.79247262,86.45286822z" fill="rgba(0, 0, 0, 1)" stroke="none" strokeLineCap="butt" strokeLineJoin="miter" opacity="1" stroke-width="1" stroke-linecap="butt" stroke-linejoin="miter"/>
<path d="M8.64070692,53.29158964 L22.68996815,7.65886770 L27.43103017,7.65886770 L13.38176894,53.29158964 L8.64070692,53.29158964z" fill="rgba(0, 0, 0, 1)" stroke="none" strokeLineCap="butt" strokeLineJoin="miter" opacity="1" stroke-width="1" stroke-linecap="butt" stroke-linejoin="miter"/>
</g>
</svg>
