<svg xmlns="http://www.w3.org/2000/svg" width="512" height="512" viewBox="0 0 512 512"><path d="M42.14 507.786c-20.912 0-37.926-17.014-37.926-37.926v-427.72c0-20.912 17.014-37.926 37.926-37.926h427.72c20.912 0 37.926 17.014 37.926 37.926v427.72c0 20.912-17.014 37.926-37.926 37.926h-427.72z" fill="#fff"/><path d="M469.86 8.428c18.588 0 33.712 15.124 33.712 33.712v427.72c0 18.588-15.124 33.712-33.712 33.712h-427.72c-18.588 0-33.712-15.124-33.712-33.712v-427.72c0-18.588 15.124-33.712 33.712-33.712h427.72m0-8.428h-427.72c-23.236 0-42.14 18.904-42.14 42.14v427.72c0 23.236 18.904 42.14 42.14 42.14h427.72c23.234 0 42.14-18.904 42.14-42.14v-427.72c0-23.236-18.906-42.14-42.14-42.14zM490.93 469.86c0 11.635-9.433 21.07-21.07 21.07h-427.72c-11.637 0-21.07-9.435-21.07-21.07v-427.72c0-11.637 9.433-21.07 21.07-21.07h427.72c11.637 0 21.07 9.433 21.07 21.07v427.72z" fill="#221e1e"/><path d="M318.276 218.424l-17.791 35.488c-1.669 3.477-3.337 7.655-6.675 7.655-3.335 0-6.112-3.477-6.112-7.655 0-4.174-2.779-152.391-2.779-152.391 0-8.35-5.56-14.612-12.229-14.612-6.119 0-11.679 6.957-11.679 14.612l-2.777 121.78h-4.446l-2.229-141.264c0-8.352-5.556-14.614-12.229-14.614-6.115 0-11.679 6.959-11.679 14.614l-3.333 141.264h-4.45l-2.223-121.78c0-8.35-5.56-14.612-12.231-14.612-6.119 0-11.675 6.957-11.675 14.612l-3.337 121.78h-3.892l-3.337-82.811c-.554-8.35-5.56-14.616-12.233-14.616-6.115 0-11.671 6.959-11.671 14.616l-3.337 170.483c-.558 27.836 18.904 49.405 18.904 62.63v43.143c0 12.524-6.115 27.831-6.115 27.831h105.078s-6.115-15.307-6.115-27.831v-38.271c0-29.924 32.802-50.104 42.812-70.978l45.589-97.421c-5.567-9.047-30.025-6.959-37.808 8.348z" fill="#db1e28"/></svg>