<svg version="1.1" id="Layer_1" xmlns="http://www.w3.org/2000/svg" xmlns:xlink="http://www.w3.org/1999/xlink" x="0px" y="0px" viewBox="0 0 100.3 63.8" style="enable-background:new 0 0 100.3 63.8;" xml:space="preserve"><path class="st0" style="fill:encodeURIComponent(#000000)" d="M54.1,47.1L52.3,47v4.8c-0.1,0.1-0.7,0.5-2.2,0.5c-1.5,0-2.1-0.4-2.2-0.5V47l-1.8,0.2 c-8.8,0.8-14.5,4.1-14.5,8.2c0,4.9,7.8,8.4,18.5,8.4s18.5-3.5,18.5-8.4C68.6,51.2,62.9,48,54.1,47.1 M61.3,58.7 c-3,1.2-6.9,1.8-11.2,1.8s-8.2-0.7-11.2-1.8c-2.4-1-4-2.2-4-3.3c0-1.7,3.6-3.8,9.6-4.7v1.1c0,1.7,1.4,3.7,5.5,3.7 c4.1,0,5.5-2,5.5-3.7v-1.1c6.1,0.9,9.6,3,9.6,4.7C65.3,56.4,63.7,57.7,61.3,58.7 M47.8,38.7l0-34.8C47.8,1.7,46,0,43.9,0h-40 C1.7,0,0,1.7,0,3.9v34.8c0,2.1,1.7,3.9,3.9,3.9h40C46,42.6,47.8,40.8,47.8,38.7 M43.2,38H4.6V4.6h38.6L43.2,38z M100.3,3.9 c0-2.1-1.7-3.9-3.9-3.9h-40c-2.1,0-3.9,1.7-3.9,3.9v34.8c0,2.1,1.7,3.9,3.9,3.9h40c2.1,0,3.9-1.7,3.9-3.9L100.3,3.9z M95.7,38H57.1 V4.6h38.6V38z"/></svg>