<svg xmlns="http://www.w3.org/2000/svg" width="300" height="250"><path d="M192.48023402857382,20.750397906866958 L192.48023402857382,20.763826135297712 L204.48023402857382,20.750397906866958 L204.48023402857382,148.4820011345568 C204.48023402857382,201.02453405443518 174.54414740904548,222.48421325064942 139.1538669540752,222.48421325064942 C137.18834284036546,222.48421325064942 135.26898934518542,222.40392906227905 133.43516896664968,222.25221818591046 C131.381065510864,222.40695840554304 129.2772837813734,222.48421325064942 127.1538669540752,222.48421325064942 C93.83989892509689,222.48421325064942 73.78953863230726,199.42067163319373 66.22804263317171,180.55924955939113 L92.50734020393766,169.2359808654246 C93.0782331518724,170.64872704055117 93.75014012485958,172.0925066704388 94.52307873258715,173.5380165285347 C100.08878690036958,183.94671656893425 104.50734020393766,169.2359808654246 104.50734020393766,169.2359808654246 C108.70012775598296,179.6115593319278 118.34142884850856,191.66102613607418 133.59638438620112,194.05652061754688 C152.41837912956336,191.4912143794273 163.8147266548019,177.31781152881314 163.8147266548019,152.78035242348463 L163.81472665480194,151.97628940151694 C157.01857961739097,156.00994641124052 148.40337396580443,158.71464338207906 138.56506193774888,158.71464338207906 C136.50300479109939,158.71464338207906 134.4513230086323,158.60309154295686 132.44047361241584,158.38736120928198 C130.5219171791365,158.60244550717357 128.56885837751977,158.71464338207906 126.56506193774888,158.71464338207906 C92.19744282692386,158.71464338207906 60.71186932232679,127.72802140368918 60.71186932232679,87.8560016116202 C60.71186932232679,47.695286583727736 92.19744282692386,16.4520466179392 126.56506193774888,16.4520466179392 C128.58147120076427,16.4520466179392 130.5467764959361,16.56609134042274 132.44969971252422,16.78103710049681 C134.45132300863233,16.564522281816036 136.50300479109939,16.4520466179392 138.56506193774888,16.4520466179392 C148.4012046841654,16.4520466179392 157.02131012317994,19.16578183468018 163.81472665480186,23.14819194707803 C168.33504356319798,25.798073718998907 163.8147266548019,20.78247515529183 163.8147266548019,20.78247515529183 L192.48023402857382,20.750397906866958 M165.95301855619684,87.88807886004503 C165.95301855619684,65.3159286112093 152.84596102716966,48.21225025556454 135.20603996712472,45.0439803404918 C117.1525155879372,48.212250255564555 102.98884305657032,65.3159286112093 102.98884305657032,87.88807886004503 C102.98884305657032,110.22901630223468 117.15251558793723,127.10148185123317 135.20603996712472,130.22619689983077 C152.84596102716966,127.10148185123316 165.95301855619684,110.22901630223465 165.95301855619684,87.88807886004503 " stroke="rgba(0, 0, 0, 1)" fill="rgba(165, 191, 204, 1)" stroke-width="1"/></svg>