<svg xmlns="http://www.w3.org/2000/svg" width="400" height="400"><path d="M250.372909392383,188.82854245752588 C245.99501533431115,199.37511559217103 239.98878228200465,208.80285972659877 232.74545931949226,216.93511738454944 C238.17659735979635,227.15101418266354 241.85954558279278,238.31481506604294 243.50417371088153,249.9959937547638 C251.19019570218248,243.69053816302812 257.96940004090953,236.21931959370662 263.5479993380314,227.72121282444778 C261.88081091555927,213.83183861434205 257.32472939708225,200.61443696974237 250.372909392383,188.82854245752588 M211.0415403344805,151.2228184016022 C203.35212176854594,147.15632442030775 194.99681981270646,144.03260331651262 186.0961628520463,142.03819048768423 C183.60796476250923,141.48064802622642 181.12065025279094,141.02110822683292 178.61181841800376,140.65313836273916 C170.31248334600565,147.4704324692815 163.13196759855768,155.5880335072013 157.3706822621557,164.71190943841876 C160.35043165030103,165.10399827940566 163.3309046917736,165.63139453987495 166.31264659989367,166.2995277282556 C174.13777899323966,168.0529426167914 181.54139101852286,170.67923193668378 188.48099732926352,174.07046103017822 C207.685865465897,183.45541025624902 202.3438400325391,157.5801521799451 211.0415403344805,151.2228184016022 " stroke="rgba(0, 0, 0, 1)" fill="rgba(165, 191, 204, 1)" stroke-width="1"/></svg>