<svg xmlns="http://www.w3.org/2000/svg" width="400" height="400">
<path d="M252.6531004294912,182.79733925761923 C239.98208984062717,219.81715827942725 207.74897875366435,244.59358578572875 171.53095859545417,249.52933193165453 C170.52438353971993,243.83161661497724 170.0000000000001,237.9770464765688 170.0000000000001,232 C170.0000000000001,181.35548844051618 207.64788289995346,139.50411108112567 256.519517174588,132.9008590799792 C259.40581165299034,149.0354987565097 258.35104900323563,166.15012524763125 252.6531004294912,182.79733925761923 M98.6533138110133,230.9025263527417 C110.39818534955319,247.32806203320507 127.13298271097685,260.32759494492745 147.61594490687236,267.33842962033594 C150.5805401700009,268.35314063090755 153.55995883901412,269.22059877098985 156.53200892681713,269.9415346403444 C169.0113646128523,290.42079624821463 188.60755899952778,306.0443772017062 211.87652227522744,313.38310652374764 C197.4912461122454,303.1074738487936 185.93723494536653,289.0821121845492 178.645728356086,272.74493063904004 C220.7577496886883,273.29954649383944 260.24916613525284,247.0689753163077 274.61064635044187,205.110254287467 C283.12881048106414,180.2234552194525 281.26999337220934,154.29204354551953 271.3356231590981,132.00873733139065 C281.34208538022034,132.13820713135468 291.0089150926792,133.74227651775416 300.1233839542498,136.6168345446179 C289.814419415036,129.25294258052355 278.0837996517627,123.80106035881687 265.44388368171076,120.76354252648993 C258.77816892926535,109.78825653894856 249.97830434220486,100.04659590159454 239.3876258261364,92.23862720366554 C245.15241269637875,100.30080798043895 249.69357226871273,109.18989634088858 252.8514729123686,118.58214398619263 C249.27165858544726,118.19649315724453 245.65877601067916,118 242.0000000000001,118 C186.7715250169207,118 142.00000000000006,162.77152501692066 142.00000000000006,218.00000000000003 C142.00000000000006,229.1390311193373 143.82125442354092,239.8526854757563 147.17686770028533,249.84391817373924 C139.95624089600778,249.04407058650585 132.7647328089879,247.4578449880793 125.6583989859219,245.02551459048823 C115.73043261546047,241.62740594679448 106.683015693957,236.82238347597834 98.6533138110133,230.9025263527417 " stroke="rgba(0, 0, 0, 1)" fill="rgba(204, 204, 204, 1)" stroke-width="1"/>
<path d="M166.31264659989367,166.2995277282556 C220.20474297280003,178.37538784213837 254.10350024172516,231.85298277968008 242.02764012784405,285.74507915258437 C239.73322670620632,295.9845774634371 235.94421065743455,305.5023162326356 230.93595846920113,314.1300755424189 C245.9817258707701,300.6628890082952 257.0774192153556,282.60944369019137 261.81115637999613,261.4837419120142 C273.8870164938784,207.5916455391091 239.98825922495314,154.11405060156605 186.0961628520463,142.03819048768423 C142.44356478999242,132.25674379544196 99.06292111968116,152.6392435680575 77.74237109519544,189.3681090098341 C100.93308366904282,168.61044278997542 133.54625200516753,158.95740477901745 166.31264659989367,166.2995277282556 " stroke="rgba(0, 0, 0, 1)" fill="rgba(204, 204, 204, 1)" stroke-width="1"/>
</svg>
