<!-- Made in Mondrian.io -->
<svg xmlns="http://www.w3.org/2000/svg" width="400" height="400" xmlns:mondrian="https://mondrian.io/xml">
<path d="M380.00000000,200.00000000 C380.00000000,299.41125497 299.41125497,380.00000000 200.00000000,380.00000000 C100.58874503,380.00000000 20.00000000,299.41125497 20.00000000,200.00000000 C20.00000000,100.58874503 100.58874503,20.00000000 200.00000000,20.00000000 C299.41125497,20.00000000 380.00000000,100.58874503 380.00000000,200.00000000z" fill="rgba(9, 9, 9, 1)" stroke="none" stroke-linecap="butt" stroke-linejoin="miter" stroke-width="1" opacity="1"/>
<path d="M43.91046224,200.54538920 C43.91046224,114.27849204 113.84359990,44.34535438 200.11049706,44.34535438 C209.30870694,44.34535438 218.32122002,45.14041691 227.08306097,46.66556806 L361.84444444,278.86666667 L278.92792311,361.81793526 C278.90677241,361.82827102 278.88561938,361.83860274 278.86446403,361.84893045 L46.09995089,226.75574950 C44.66012107,218.23371236 43.91046224,209.47709688 43.91046224,200.54538920z " fill="rgba(254, 254, 254, 1)" stroke="none" stroke-linecap="butt" stroke-linejoin="miter" stroke-width="1" opacity="1"/>
<path d="M391.08024030,325.00000000 C391.08024030,361.49510898 361.49510898,391.08024030 325.00000000,391.08024030 C288.50489102,391.08024030 258.91975970,361.49510898 258.91975970,325.00000000 C258.91975970,288.50489102 288.50489102,258.91975970 325.00000000,258.91975970 C361.49510898,258.91975970 391.08024030,288.50489102 391.08024030,325.00000000z" fill="rgba(0, 0, 0, 1)" stroke="none" stroke-linecap="butt" stroke-linejoin="miter" stroke-width="1" opacity="1"/>
<path d="M375.00000000,325.00000000 C375.00000000,352.61423749 352.61423749,375.00000000 325.00000000,375.00000000 C297.38576251,375.00000000 275.00000000,352.61423749 275.00000000,325.00000000 C275.00000000,297.38576251 297.38576251,275.00000000 325.00000000,275.00000000 C352.61423749,275.00000000 375.00000000,297.38576251 375.00000000,325.00000000z" fill="rgba(0, 0, 0, 1)" stroke="none" stroke-linecap="butt" stroke-linejoin="miter" stroke-width="1" opacity="1"/>
<path d="M355.93379276,200.00000000 C355.93379276,286.11985572 286.11985572,355.93379276 200.00000000,355.93379276 C113.88014428,355.93379276 44.06620724,286.11985572 44.06620724,200.00000000 C44.06620724,113.88014428 113.88014428,44.06620724 200.00000000,44.06620724 C286.11985572,44.06620724 355.93379276,113.88014428 355.93379276,200.00000000z M380.00000000,200.00000000 C380.00000000,299.41125497 299.41125497,380.00000000 200.00000000,380.00000000 C100.58874503,380.00000000 20.00000000,299.41125497 20.00000000,200.00000000 C20.00000000,100.58874503 100.58874503,20.00000000 200.00000000,20.00000000 C299.41125497,20.00000000 380.00000000,100.58874503 380.00000000,200.00000000z " fill="rgba(9, 9, 9, 1)" stroke="none" stroke-linecap="butt" stroke-linejoin="miter" stroke-width="1" opacity="1"/>
<path d="M281.02816358,325.00000000 C281.02816358,300.71502532 300.71502532,281.02816358 325.00000000,281.02816358 C336.35514006,281.02816358 346.70499487,285.33230143 354.50712524,292.39806580 C339.24482220,317.86470183 317.86470203,339.24482205 292.39806591,354.50712515 C285.33230143,346.70499487 281.02816358,336.35514006 281.02816358,325.00000000z " fill="rgba(255, 254, 254, 1)" stroke="none" stroke-linecap="butt" stroke-linejoin="miter" stroke-width="1" opacity="1"/>
</svg>
