<!-- Made in Mondrian.io -->
<svg xmlns="http://www.w3.org/2000/svg" width="300" height="300" xmlns:mondrian="https://mondrian.io/xml">
<path stroke="rgba(0, 0, 0, 1)" fill="rgba(126, 185, 201, 1)" stroke-width="1" stroke-linecap="butt" stroke-linejoin="miter" d="M8.17568043,42.87485055 C55.20957874,21.26468106 84.44686687,37.79010479 90.80279907,55.58671496 C97.15873128,73.38332513 73.00618890,176.34942682 73.00618890,176.34942682 C73.00618890,176.34942682 31.05703636,156.01044377 3.09093467,138.21383360 C-24.87516703,120.41722343 -38.85821787,64.48502004 8.17568043,42.87485055z "/>
<path stroke="rgba(0, 0, 0, 1)" fill="rgba(118, 160, 197, 1)" stroke-width="1" stroke-linecap="butt" stroke-linejoin="miter" d="M308.65467253,136.49430340 C308.65467253,152.94402208 278.86982207,198.27915386 278.86982207,198.27915386 C278.86982207,198.27915386 249.08497161,152.94402208 249.08497161,136.49430340 C249.08497161,120.04458471 262.42010338,106.70945294 278.86982207,106.70945294 C295.31954075,106.70945294 308.65467253,120.04458471 308.65467253,136.49430340z "/>
<path stroke="rgba(0, 0, 0, 1)" fill="rgba(126, 185, 201, 1)" stroke-width="1" stroke-linecap="butt" stroke-linejoin="miter" d="M130.16738167,223.37277586 C177.20127998,201.76260637 206.43856811,218.28803010 212.79450031,236.08464027 C219.15043252,253.88125044 194.99789014,356.84735213 194.99789014,356.84735213 C194.99789014,356.84735213 153.04873760,336.50836908 125.08263591,318.71175891 C97.11653421,300.91514874 83.13348337,244.98294535 130.16738167,223.37277586z "/>
<path stroke="rgba(0, 0, 0, 1)" fill="rgba(118, 160, 197, 1)" stroke-width="1" stroke-linecap="butt" stroke-linejoin="miter" d="M116.95342772,211.18310008 C116.95342772,227.63281876 87.16857726,272.96795054 87.16857726,272.96795054 C87.16857726,272.96795054 57.38372680,227.63281876 57.38372680,211.18310008 C57.38372680,194.73338139 70.71885857,181.39824962 87.16857726,181.39824962 C103.61829594,181.39824962 116.95342772,194.73338139 116.95342772,211.18310008z "/>
<path stroke="rgba(0, 0, 0, 1)" fill="rgba(126, 185, 201, 1)" stroke-width="1" stroke-linecap="butt" stroke-linejoin="miter" d="M189.91841902,-31.81394613 C236.95231733,-53.42411562 266.18960546,-36.89869189 272.54553766,-19.10208172 C278.90146987,-1.30547155 254.74892749,101.66063014 254.74892749,101.66063014 C254.74892749,101.66063014 212.79977495,81.32164709 184.83367326,63.52503692 C156.86757156,45.72842675 142.88452072,-10.20377664 189.91841902,-31.81394613z "/>
<path stroke="rgba(0, 0, 0, 1)" fill="rgba(44, 105, 99, 1)" stroke-width="1" stroke-linecap="butt" stroke-linejoin="miter" d="M131.89118705,-14.12810324 C131.89118705,2.32161544 102.10633659,47.65674722 102.10633659,47.65674722 C102.10633659,47.65674722 72.32148613,2.32161544 72.32148613,-14.12810324 C72.32148613,-30.57782193 85.65661790,-43.91295370 102.10633659,-43.91295370 C118.55605527,-43.91295370 131.89118705,-30.57782193 131.89118705,-14.12810324z "/>
<path stroke="rgba(0, 0, 0, 1)" fill="rgba(152, 63, 84, 1)" stroke-width="1" stroke-linecap="butt" stroke-linejoin="miter" d="M141.37070118,85.19850200 C188.40459949,63.58833251 217.64188762,80.11375624 223.99781982,97.91036641 C230.35375203,115.70697658 206.20120965,218.67307827 206.20120965,218.67307827 C206.20120965,218.67307827 164.25205711,198.33409522 136.28595542,180.53748505 C108.31985372,162.74087488 94.33680288,106.80867149 141.37070118,85.19850200z "/>
<path stroke="rgba(0, 0, 0, 1)" fill="rgba(152, 63, 84, 1)" stroke-width="1" stroke-linecap="butt" stroke-linejoin="miter" d="M333.07194599,24.20265138 C380.10584430,2.59248189 409.34313243,19.11790562 415.69906463,36.91451579 C422.05499684,54.71112596 397.90245446,157.67722765 397.90245446,157.67722765 C397.90245446,157.67722765 355.95330192,137.33824460 327.98720023,119.54163443 C300.02109853,101.74502426 286.03804769,45.81282087 333.07194599,24.20265138z "/>
<path stroke="rgba(0, 0, 0, 1)" fill="rgba(44, 105, 99, 1)" stroke-width="1" stroke-linecap="butt" stroke-linejoin="miter" d="M150.56338622,55.58144033 C150.56338622,72.03115901 120.77853576,117.36629079 120.77853576,117.36629079 C120.77853576,117.36629079 90.99368530,72.03115901 90.99368530,55.58144033 C90.99368530,39.13172164 104.32881707,25.79658987 120.77853576,25.79658987 C137.22825444,25.79658987 150.56338622,39.13172164 150.56338622,55.58144033z "/>
<path stroke="rgba(0, 0, 0, 1)" fill="rgba(126, 185, 201, 1)" stroke-width="1" stroke-linecap="butt" stroke-linejoin="miter" d="M304.44124060,-44.26207891 C351.47513891,-65.87224840 380.71242704,-49.34682467 387.06835924,-31.55021450 C393.42429145,-13.75360433 369.27174907,89.21249736 369.27174907,89.21249736 C369.27174907,89.21249736 327.32259653,68.87351431 299.35649484,51.07690414 C271.39039314,33.28029397 257.40734230,-22.65190942 304.44124060,-44.26207891z "/>
<path stroke="rgba(0, 0, 0, 1)" fill="rgba(118, 160, 197, 1)" stroke-width="1" stroke-linecap="butt" stroke-linejoin="miter" d="M11.14429909,285.87189676 C11.14429909,302.32161544 -18.64055137,347.65674722 -18.64055137,347.65674722 C-18.64055137,347.65674722 -48.42540183,302.32161544 -48.42540183,285.87189676 C-48.42540183,269.42217807 -35.09027006,256.08704630 -18.64055137,256.08704630 C-2.19083269,256.08704630 11.14429909,269.42217807 11.14429909,285.87189676z "/>
<path stroke="rgba(0, 0, 0, 1)" fill="rgba(126, 185, 201, 1)" stroke-width="1" stroke-linecap="butt" stroke-linejoin="miter" d="M284.52422814,203.45576341 C331.55812645,181.84559392 360.79541458,198.37101765 367.15134678,216.16762782 C373.50727899,233.96423799 349.35473661,336.93033968 349.35473661,336.93033968 C349.35473661,336.93033968 307.40558407,316.59135663 279.43948238,298.79474646 C251.47338068,280.99813629 237.49032984,225.06593290 284.52422814,203.45576341z "/>
<path stroke="rgba(0, 0, 0, 1)" fill="rgba(118, 160, 197, 1)" stroke-width="1" stroke-linecap="butt" stroke-linejoin="miter" d="M400.77085510,141.47355651 C400.77085510,157.92327519 370.98600464,203.25840697 370.98600464,203.25840697 C370.98600464,203.25840697 341.20115418,157.92327519 341.20115418,141.47355651 C341.20115418,125.02383782 354.53628595,111.68870605 370.98600464,111.68870605 C387.43572332,111.68870605 400.77085510,125.02383782 400.77085510,141.47355651z "/>
<path stroke="rgba(0, 0, 0, 1)" fill="rgba(126, 185, 201, 1)" stroke-width="1" stroke-linecap="butt" stroke-linejoin="miter" d="M-56.55461003,17.97858499 C-9.52071172,-3.63158450 19.71657641,12.89383923 26.07250861,30.69044940 C32.42844082,48.48705957 8.27589844,151.45316126 8.27589844,151.45316126 C8.27589844,151.45316126 -33.67325410,131.11417821 -61.63935579,113.31756804 C-89.60545749,95.52095787 -103.58850833,39.58875448 -56.55461003,17.97858499z "/>
</svg>
