<svg width="102" height="17" viewBox="0 0 102 17" xmlns="http://www.w3.org/2000/svg">
<title>Group 16</title>
<g>
<path fill="#231F1F" d="M31.115 1.312l-6.53 6.435V1.312h-2.447v15.15h2.447v-5.686l2.09-2.024 4.767 7.71h3.252l-6.15-9.517 5.824-5.633zM36.027 1.312h2.419v2.617c.198-.51.684-1.13 1.457-1.86.773-.731 1.665-1.096 2.674-1.096.047 0 .127.005.24.014.113.009.307.028.58.056V3.73a4.043 4.043 0 0 0-.834-.071c-1.283 0-2.268.413-2.957 1.238a4.32 4.32 0 0 0-1.033 2.85v8.714h-2.546V1.312zM47.521 14.172c.538.424 1.174.635 1.91.635a5.82 5.82 0 0 0 2.603-.62c1.414-.689 2.122-1.814 2.122-3.377V8.762c-.31.2-.71.365-1.2.497-.49.133-.97.227-1.44.283l-1.539.198c-.922.123-1.616.316-2.08.58-.789.441-1.182 1.147-1.182 2.116 0 .734.27 1.313.806 1.736zm5.362-6.878c.585-.076.975-.32 1.174-.735.113-.227.17-.554.17-.98 0-.87-.309-1.503-.925-1.896-.616-.392-1.499-.589-2.647-.589-1.327 0-2.269.36-2.824 1.08-.31.4-.513.991-.607 1.778h-2.376c.047-1.873.652-3.176 1.815-3.909 1.163-.732 2.513-1.099 4.048-1.099 1.78 0 3.227.34 4.338 1.02 1.102.677 1.654 1.734 1.654 3.167v8.73c0 .263.054.475.162.635.108.16.337.24.686.24.113 0 .24-.007.382-.02a6.17 6.17 0 0 0 .452-.064v1.881a6.998 6.998 0 0 1-.905.212c-.208.03-.49.043-.849.043-.877 0-1.513-.312-1.91-.934-.207-.33-.352-.797-.438-1.4-.519.68-1.263 1.268-2.235 1.768-.97.5-2.042.75-3.21.75-1.406 0-2.555-.427-3.446-1.279-.89-.853-1.337-1.919-1.337-3.2 0-1.404.44-2.492 1.316-3.264.877-.772 2.027-1.248 3.452-1.427l4.06-.508zM60.044 1.312h2.448v6.436l6.53-6.436h3.252L66.45 6.945l6.15 9.517h-3.253l-4.765-7.71-2.091 2.024v5.686h-2.448zM83.9 7.677c-.104-1.104-.342-1.985-.716-2.645-.692-1.226-1.847-1.839-3.465-1.839-1.159 0-2.13.422-2.917 1.266-.786.844-1.202 1.917-1.249 3.218H83.9zm-.912-5.948c1.003.504 1.766 1.157 2.291 1.96.507.763.844 1.654 1.013 2.673.15.697.225 1.81.225 3.338h-11.02c.047 1.541.407 2.778 1.081 3.71.674.931 1.717 1.397 3.13 1.397 1.32 0 2.372-.44 3.158-1.322a4.5 4.5 0 0 0 .934-1.776h2.504c-.065.556-.285 1.176-.658 1.86-.372.684-.788 1.243-1.246 1.676-.768.755-1.718 1.264-2.85 1.528a8.568 8.568 0 0 1-2.063.227c-1.875 0-3.464-.687-4.767-2.059-1.302-1.372-1.954-3.293-1.954-5.764 0-2.434.656-4.409 1.97-5.928C76.045 1.731 77.761.972 79.88.972c1.07 0 2.104.252 3.108.757zM88.755 1.312h2.419v2.15c.717-.886 1.476-1.523 2.277-1.91.802-.386 1.694-.58 2.674-.58 2.15 0 3.603.75 4.358 2.25.415.82.622 1.994.622 3.522v9.718h-2.59V6.914c0-.924-.136-1.67-.41-2.235-.452-.943-1.272-1.415-2.46-1.415-.604 0-1.1.062-1.486.184-.698.208-1.31.622-1.84 1.245-.423.5-.7 1.016-.827 1.549-.127.533-.19 1.294-.19 2.284v7.936h-2.547V1.312z"/>
<path fill="#ffffff" d="M9.683 1.258C4.333 1.258 0 5.595 0 10.944v4.15a1.383 1.383 0 1 0 2.767 0v-4.15a1.383 1.383 0 1 1 2.766 0v4.15a1.383 1.383 0 1 0 2.768 0v-4.15a1.384 1.384 0 1 1 2.768 0v4.15a1.382 1.382 0 1 0 2.764 0v-4.15a1.385 1.385 0 0 1 2.769 0v4.15a1.383 1.383 0 0 0 2.768 0v-4.15c0-5.349-4.337-9.686-9.687-9.686"/>
</g>
</svg>
