<!-- Made in Mondrian.io -->
<svg xmlns="http://www.w3.org/2000/svg" width="300" height="300" xmlns:mondrian="http://mondrian.io/xml">
<path fill="rgba(255, 255, 255, 1)" stroke="rgba(0, 0, 0, 1)" d="M21.43824929,26.97889147 L63.52531998,26.97889147 L63.52531998,53.95778293 L21.43824929,53.95778293 L21.43824929,26.97889147" stroke-width="1"/>
<path fill="rgba(255, 255, 255, 1)" stroke="rgba(0, 0, 0, 1)" d="M89.42505579,38.84960371 L117.48310291,38.84960371 L117.48310291,57.19524991 L89.42505579,57.19524991 L89.42505579,38.84960371" stroke-width="1"/>
<path fill="rgba(255, 255, 255, 1)" stroke="rgba(0, 0, 0, 1)" d="M136.90790477,32.37466976 L162.80764058,32.37466976 L162.80764058,50.72031596 L136.90790477,50.72031596 L136.90790477,32.37466976" stroke-width="1"/>
<path fill="rgba(255, 255, 255, 1)" stroke="rgba(0, 0, 0, 1)" d="M186.54906507,33.45382542 L207.05302258,33.45382542 L207.05302258,46.40369332 L186.54906507,46.40369332 L186.54906507,33.45382542" stroke-width="1"/>
<path fill="rgba(255, 255, 255, 1)" stroke="rgba(0, 0, 0, 1)" d="M220.00289049,34.53298108 L246.98178195,34.53298108 L246.98178195,48.56200464 L220.00289049,48.56200464 L220.00289049,34.53298108" stroke-width="1"/>
<path fill="rgba(255, 255, 255, 1)" stroke="rgba(0, 0, 0, 1)" d="M19.27993797,85.25329704 L54.89207471,85.25329704 L54.89207471,106.83641021 L19.27993797,106.83641021 L19.27993797,85.25329704" stroke-width="1"/>
<path fill="rgba(255, 255, 255, 1)" stroke="rgba(0, 0, 0, 1)" d="M86.18758881,78.77836308 L122.87888121,78.77836308 L122.87888121,111.15303284 L86.18758881,111.15303284 L86.18758881,78.77836308" stroke-width="1"/>
<path fill="rgba(255, 255, 255, 1)" stroke="rgba(0, 0, 0, 1)" d="M149.85777267,80.93667440 L161.72848492,80.93667440 L161.72848492,92.80738665 L149.85777267,92.80738665 L149.85777267,80.93667440" stroke-width="1"/>
<path fill="rgba(255, 255, 255, 1)" stroke="rgba(0, 0, 0, 1)" d="M180.07413112,76.62005177 L213.52795653,76.62005177 L213.52795653,99.28232060 L180.07413112,99.28232060 L180.07413112,76.62005177" stroke-width="1"/>
<path fill="rgba(255, 255, 255, 1)" stroke="rgba(0, 0, 0, 1)" d="M229.71529141,79.85751874 L248.06093761,79.85751874 L248.06093761,98.20316494 L229.71529141,98.20316494 L229.71529141,79.85751874" stroke-width="1"/>
<path fill="rgba(255, 255, 255, 1)" stroke="rgba(0, 0, 0, 1)" d="M38.70473983,135.97361299 L52.73376339,135.97361299 L52.73376339,158.63588183 L38.70473983,158.63588183 L38.70473983,135.97361299" stroke-width="1"/>
<path fill="rgba(255, 255, 255, 1)" stroke="rgba(0, 0, 0, 1)" d="M102.37492369,133.81530168 L121.79972555,133.81530168 L121.79972555,152.16094787 L102.37492369,152.16094787 L102.37492369,133.81530168" stroke-width="1"/>
<path fill="rgba(255, 255, 255, 1)" stroke="rgba(0, 0, 0, 1)" d="M143.38283872,125.18205641 L164.96595189,125.18205641 L164.96595189,141.36939129 L143.38283872,141.36939129 L143.38283872,125.18205641" stroke-width="1"/>
<path fill="rgba(255, 255, 255, 1)" stroke="rgba(0, 0, 0, 1)" d="M197.34062165,128.41952338 L215.68626785,128.41952338 L215.68626785,144.60685826 L197.34062165,144.60685826 L197.34062165,128.41952338" stroke-width="1"/>
<path fill="rgba(255, 255, 255, 1)" stroke="rgba(0, 0, 0, 1)" d="M230.79444707,123.02374509 L252.37756025,123.02374509 L252.37756025,138.13192431 L230.79444707,138.13192431 L230.79444707,123.02374509" stroke-width="1"/>

<text x="100" y="100">
<tspan>hello,</tspan> world duba duba hello duba 1 2 3 4 5 the examples above we are already making use of the font property to make the text a bit larger than the default size. There are some more properties which let you adjust the way the text gets displayed on the canvas
</text>
</svg>
