<!-- Made in Mondrian.io -->
<svg xmlns="http://www.w3.org/2000/svg" width="300" height="300" xmlns:mondrian="https://mondrian.io/xml">
<g mondrian:type="text" mondrian:x="12.220309810671147" mondrian:y="25.253012048192662" mondrian:width="200" mondrian:height="50" mondrian:spacing="50" style="font-size: 12pt; font-family: &quot;Times New Roman&quot;;">
<text x="12.220309810671147" y="37.25301204819266" mondrian:width="200" mondrian:height="50" text-anchor="start">
hello, world i love mondy it's</text>
<text x="12.220309810671147" y="55.25301204819266" mondrian:width="200" mondrian:height="50" text-anchor="start">
so amazing!</text>
</g>
<path d="M232.88663121,112.31346092 C228.05616857,111.95815075 223.14457946,111.77559860 218.16701819,111.77559860 C201.40680360,111.77559860 185.39456314,113.84532469 170.70882415,117.61087805 L155.76560871,79.84883721 L155.48630009,122.28512772 C119.11882131,135.40992238 93.61583032,159.60230247 89.88781660,187.81089528 L50.00000000,192.79687235 L90.56378862,206.14698000 C99.00086581,246.82597001 152.91526357,278.19767442 218.16701819,278.19767442 C229.50898975,278.19767442 240.50842663,277.24984358 250.98604047,275.47005473 C203.73859996,271.99462607 164.25262456,251.99131734 146.70909025,224.62518054 L222.99136829,249.73074040 L176.67469295,132.68684226 C192.20559563,123.07581874 211.45441030,115.95411258 232.88663121,112.31346092 M138.07153377,181.78793063 C140.42748826,170.26826684 146.42969088,159.49194928 155.30415394,149.95919925 L155.10867947,179.65828742 L138.07153377,181.78793063" stroke="rgba(0, 0, 0, 1)" fill="rgba(128, 103, 129, 1)" stroke-width="1"/>
<path d="M312.23546842,112.87160045 C307.40500578,112.51629028 302.49341667,112.33373813 297.51585540,112.33373813 C280.75564081,112.33373813 264.74340035,114.40346422 250.05766136,118.16901758 L235.11444592,80.40697674 L234.83513730,122.84326725 C198.46765852,135.96806191 172.96466753,160.16044200 169.23665381,188.36903481 L129.34883721,193.35501188 L169.91262583,206.70511953 C178.34970302,247.38410954 232.26410078,278.75581395 297.51585540,278.75581395 C308.85782696,278.75581395 319.85726384,277.80798311 330.33487768,276.02819426 C283.08743717,272.55276560 243.60146177,252.54945687 226.05792746,225.18332007 L302.34020550,250.28887993 L256.02353016,133.24498179 C271.55443284,123.63395827 290.80324751,116.51225211 312.23546842,112.87160045 M217.42037098,182.34607016 C219.77632547,170.82640637 225.77852809,160.05008881 234.65299115,150.51733878 L234.45751668,180.21642695 L217.42037098,182.34607016 " stroke="rgba(0, 0, 0, 1)" fill="rgba(122, 148, 48, 1)" stroke-width="1"/>
</svg>
