<?xml version="1.0" encoding="UTF-8" standalone="no"?>
<!-- Created with Inkscape (http://www.inkscape.org/) -->

<svg
   xmlns:dc="http://purl.org/dc/elements/1.1/"
   xmlns:cc="http://creativecommons.org/ns#"
   xmlns:rdf="http://www.w3.org/1999/02/22-rdf-syntax-ns#"
   xmlns:svg="http://www.w3.org/2000/svg"
   xmlns="http://www.w3.org/2000/svg"
   xmlns:sodipodi="http://sodipodi.sourceforge.net/DTD/sodipodi-0.dtd"
   xmlns:inkscape="http://www.inkscape.org/namespaces/inkscape"
   id="svg2985"
   version="1.1"
   inkscape:version="0.48.0 r9654"
   width="697.40002"
   height="550.12"
   sodipodi:docname="windows98.svg">
  <metadata
     id="metadata2991">
    <rdf:RDF>
      <cc:Work
         rdf:about="">
        <dc:format>image/svg+xml</dc:format>
        <dc:type
           rdf:resource="http://purl.org/dc/dcmitype/StillImage" />
        <dc:title />
      </cc:Work>
    </rdf:RDF>
  </metadata>
  <defs
     id="defs2989">
    <inkscape:perspective
       id="perspective48"
       inkscape:persp3d-origin="138 : 19.666667 : 1"
       inkscape:vp_z="276 : 29.5 : 1"
       inkscape:vp_y="0 : 1000 : 0"
       inkscape:vp_x="0 : 29.5 : 1"
       sodipodi:type="inkscape:persp3d" />
  </defs>
  <sodipodi:namedview
     pagecolor="#ffffff"
     bordercolor="#666666"
     borderopacity="1"
     objecttolerance="10"
     gridtolerance="10"
     guidetolerance="10"
     inkscape:pageopacity="0"
     inkscape:pageshadow="2"
     inkscape:window-width="1280"
     inkscape:window-height="738"
     id="namedview2987"
     showgrid="false"
     inkscape:zoom="0.69093274"
     inkscape:cx="640.89234"
     inkscape:cy="428.71618"
     inkscape:window-x="-8"
     inkscape:window-y="-8"
     inkscape:window-maximized="1"
     inkscape:current-layer="svg2985"
     showborder="false" />
  <rect
     y="496.01556"
     x="-9.1886244"
     style="fill:none"
     width="719.29657"
     height="166.13831"
     id="rect41" />
  <g
     id="g3652"
     transform="translate(-7.1580335,-394.4817)">
    <g
       transform="matrix(1.2255961,0,0,1.1850403,0.13489938,-286.02467)"
       id="g3578">
      <path
         inkscape:connector-curvature="0"
         d="m 37.875786,733.0381 -9.984149,31.234 c 0,0 -1.045065,3.38754 -1.69139,5.48538 -0.549897,-1.85004 -1.469867,-4.93346 -1.469867,-4.93346 L 14.9026,733.0381 H 5.8175708 v 45.47684 h 6.2964512 c 0,0 0,-29.25442 0,-34.90312 1.696602,5.40372 10.958849,34.90312 10.958849,34.90312 h 5.642308 c 0,0 9.369099,-29.09391 11.065701,-34.36528 0,5.52198 0,34.36528 0,34.36528 h 6.296451 V 733.0381 h -8.201545 z"
         id="path3" />
      <path
         inkscape:connector-curvature="0"
         d="m 54.203298,733.0381 v 7.37485 h 6.093172 v -7.37485 h -6.093172 z m 0,12.23229 v 33.24737 h 6.093172 v -33.24737 h -6.093172 z"
         id="path5" />
      <path
         inkscape:connector-curvature="0"
         d="m 73.105683,746.5826 0,0 c -2.264742,1.35445 -3.974375,3.41006 -5.081987,6.11051 -1.086763,2.65258 -1.639267,5.7895 -1.639267,9.32064 0,5.47693 1.295256,9.7571 3.84928,12.72225 2.564448,2.97641 5.996744,4.48292 10.195247,4.48292 3.359324,0 6.239116,-1.09539 8.558587,-3.25519 2.316865,-2.15979 3.773701,-5.17563 4.334023,-8.96865 l 0.0834,-0.56599 -6.009776,-0.90391 -0.07297,0.55755 c -0.336193,2.57655 -1.128461,4.49418 -2.353351,5.70784 -1.237919,1.2221 -2.741666,1.81625 -4.602455,1.81625 -2.324684,0 -4.154199,-0.88982 -5.592792,-2.72579 -1.441199,-1.83597 -2.170921,-4.8687 -2.170921,-9.01652 0,-4.08588 0.758389,-7.09045 2.251711,-8.93205 1.498535,-1.85005 3.393204,-2.75114 5.801284,-2.75114 1.566294,0 2.864156,0.48715 3.96395,1.49243 1.091975,0.99965 1.871213,2.52587 2.309046,4.54205 l 0.109458,0.50968 5.897711,-1.00809 -0.104246,-0.57163 c -0.599414,-3.35092 -1.991096,-5.98098 -4.133349,-7.81976 -2.139647,-1.82753 -4.915194,-2.75677 -8.24585,-2.75677 -2.634814,-0.003 -5.105442,0.67581 -7.346728,2.01337 z"
         id="path7" />
      <path
         inkscape:connector-curvature="0"
         d="m 105.53918,745.75191 0,0 c -0.76099,0.56599 -1.55847,1.66983 -2.38462,3.0468 0,-1.4164 0,-3.52832 0,-3.52832 h -5.603217 v 33.24737 h 6.093167 v -17.36005 c 0,-2.23019 0.27365,-4.30833 0.81573,-6.17809 0.33619,-1.14607 0.90694,-2.05279 1.68878,-2.69482 0.78966,-0.64484 1.65491,-0.9574 2.64524,-0.9574 1.13107,0 2.28038,0.35761 3.42448,1.06722 l 0.53165,0.32946 2.12662,-6.09361 -0.36747,-0.24217 c -1.82951,-1.20802 -3.66163,-1.82189 -5.44685,-1.82189 -1.2744,0 -2.4602,0.39986 -3.52351,1.1855 z"
         id="path9" />
      <path
         inkscape:connector-curvature="0"
         d="m 120.65744,748.26651 0,0 c -3.16647,2.95951 -4.77185,7.54662 -4.77185,13.62616 0,5.54169 1.34477,9.85847 3.99522,12.8377 2.65827,2.97923 6.17918,4.49137 10.46629,4.49137 2.6713,0 5.17059,-0.68427 7.43273,-2.03309 2.27256,-1.35726 4.0291,-3.28897 5.22011,-5.74444 1.18319,-2.43857 1.78261,-5.80358 1.78261,-10.00491 0,-5.22068 -1.35781,-9.38259 -4.03953,-12.36744 -2.68694,-2.99049 -6.18439,-4.50545 -10.39592,-4.50545 -3.78673,0 -7.04702,1.24463 -9.68966,3.7001 z m 1.4412,13.60926 c 0,-3.94508 0.79488,-6.91868 2.36117,-8.83631 1.57411,-1.92326 3.49745,-2.85814 5.88468,-2.85814 2.34814,0 4.25845,0.94051 5.84298,2.87504 1.57672,1.92889 2.37681,4.83491 2.37681,8.63919 0,4.04927 -0.79488,7.08482 -2.36378,9.02216 -1.57411,1.94297 -3.48963,2.8863 -5.85601,2.8863 -2.38723,0 -4.31057,-0.9377 -5.88468,-2.87222 -1.56629,-1.9289 -2.36117,-4.91094 -2.36117,-8.85602 z"
         id="path11" />
      <path
         inkscape:connector-curvature="0"
         d="m 156.46069,745.2366 0,0 c -1.40992,0.45336 -2.54099,1.01654 -3.36453,1.67264 -1.0998,0.84759 -1.98589,1.93734 -2.627,3.22703 -0.64372,1.29531 -0.97209,2.72016 -0.97209,4.23793 0,1.66983 0.39874,3.21858 1.18579,4.60119 0.78706,1.38824 1.95722,2.48644 3.474,3.26645 1.46465,0.75466 4.00825,1.62196 7.77413,2.65258 3.32545,0.90109 4.55555,1.45864 5.0012,1.76557 0.84439,0.59416 1.25616,1.38824 1.25616,2.41886 0,1.19958 -0.48995,2.22738 -1.49853,3.13692 -1.02161,0.9208 -2.64785,1.38824 -4.8344,1.38824 -2.16832,0 -3.86492,-0.53221 -5.04811,-1.58254 -1.17277,-1.0447 -1.89988,-2.58218 -2.1605,-4.57584 l -0.073,-0.566 -6.01759,1.01373 0.0938,0.56599 c 0.58117,3.5227 1.9494,6.22878 4.0708,8.04222 2.11359,1.805 5.19666,2.71735 9.16582,2.71735 2.39244,0 4.57639,-0.45899 6.4867,-1.3629 1.93376,-0.91235 3.43751,-2.23301 4.47215,-3.92255 1.03203,-1.68954 1.55847,-3.51706 1.55847,-5.43188 0,-1.96268 -0.43783,-3.63815 -1.30307,-4.9757 -0.86003,-1.33192 -2.05364,-2.35691 -3.54957,-3.04962 -1.42817,-0.66174 -3.95874,-1.52059 -7.52395,-2.55121 l -4.39917,-1.36853 c -0.76621,-0.33228 -1.34217,-0.7603 -1.694,-1.25871 -0.34401,-0.47026 -0.5082,-0.97712 -0.5082,-1.5572 0,-0.92924 0.41698,-1.72896 1.27701,-2.4442 0.89131,-0.74058 2.44718,-1.1151 4.62591,-1.1151 1.82431,0 3.24205,0.42802 4.21414,1.27279 0.9747,0.84477 1.54545,1.99648 1.75394,3.52551 l 0.0756,0.55474 5.97068,-0.90673 -0.0886,-0.56881 c -0.32837,-2.15698 -0.94603,-3.9141 -1.82951,-5.21787 -0.89652,-1.32629 -2.2882,-2.38507 -4.13856,-3.14818 -1.81388,-0.74621 -3.9431,-1.12636 -6.32773,-1.12636 -1.58714,0 -3.10131,0.22527 -4.49821,0.67019 z"
         id="path13" />
      <path
         inkscape:connector-curvature="0"
         d="m 183.27534,748.26651 0,0 c -3.16647,2.95951 -4.77186,7.54662 -4.77186,13.62616 0,5.54169 1.34478,9.85847 3.99523,12.8377 2.65827,2.97923 6.17917,4.49137 10.46628,4.49137 2.6713,0 5.1706,-0.68427 7.43274,-2.03309 2.27256,-1.35726 4.0291,-3.28897 5.22011,-5.74444 1.18319,-2.43857 1.7826,-5.80358 1.7826,-10.00491 0,-5.22068 -1.3578,-9.38259 -4.03953,-12.36744 -2.68693,-2.99049 -6.18438,-4.50545 -10.39592,-4.50545 -3.78673,0 -7.04702,1.24463 -9.68965,3.7001 z m 1.4438,13.60926 c 0,-3.94508 0.79488,-6.91868 2.36117,-8.83631 1.57412,-1.92326 3.49745,-2.85814 5.88468,-2.85814 2.34814,0 4.25845,0.94051 5.84299,2.87504 1.57671,1.92889 2.3768,4.83491 2.3768,8.63919 0,4.04927 -0.79487,7.08482 -2.36377,9.02216 -1.57412,1.94297 -3.48963,2.8863 -5.85602,2.8863 -2.38723,0 -4.31056,-0.9377 -5.88468,-2.87222 -1.5689,-1.9289 -2.36117,-4.91094 -2.36117,-8.85602 z"
         id="path15" />
      <path
         inkscape:connector-curvature="0"
         d="m 231.19457,750.6206 c 0,1.05878 0,17.93168 0,17.93168 0,3.37908 0.21631,5.55859 0.65674,6.65961 0.45347,1.12636 1.24314,2.04434 2.34293,2.73143 1.08416,0.673 2.60094,1.01372 4.50864,1.01372 l 4.45129,-0.56881 -0.13551,-0.57445 -0.81052,-5.32205 -2.62178,0.23372 -1.42817,-0.30975 c 0,0 -0.65154,-0.7969 -0.65154,-0.7969 -0.0834,-0.2112 -0.22152,-0.84759 -0.22152,-2.77649 0,0 0,-17.16011 0,-18.22171 0.83657,0 5.00902,0 5.00902,0 v -5.35021 c 0,0 -4.17245,0 -5.00902,0 0,-1.01654 0,-11.65221 0,-11.65221 l -6.09317,3.94226 c 0,0 0,6.73846 0,7.70995 h -10.64872 c 0,-0.74059 0,-2.4076 0,-2.4076 0,-1.77965 0.27104,-2.98486 0.8053,-3.58183 0.52905,-0.59134 1.49593,-0.88983 2.87458,-0.88983 l 3.35672,0.34073 0.12509,-0.50686 0.84961,-5.32488 -5.31133,-0.60823 c -2.29601,0 -4.12032,0.47589 -5.426,1.41077 -1.30828,0.94051 -2.23868,2.18795 -2.75991,3.70291 -0.38049,1.12636 -0.56553,2.7624 -0.56553,5.00949 0,0 0,2.06969 0,2.85533 -0.81312,0 -4.43827,0 -4.43827,0 v 5.35021 c 0,0 3.62776,0 4.43827,0 0,1.08131 0,27.89434 0,27.89434 h 6.09317 c 0,0 0,-26.81303 0,-27.89434 h 10.60963 z"
         id="path17" />
      <path
         inkscape:connector-curvature="0"
         d="m 250.26374,741.19859 c 0.96688,0 1.91031,0.26751 2.83289,0.80535 0.92257,0.53502 1.63926,1.30376 2.15528,2.30341 0.51341,0.99964 0.77142,2.04153 0.77142,3.12565 0,1.07286 -0.2528,2.1063 -0.761,3.09749 -0.50559,0.9912 -1.21707,1.75994 -2.12922,2.30905 -0.91476,0.5491 -1.87121,0.82224 -2.86937,0.82224 -0.99815,0 -1.95461,-0.27314 -2.86936,-0.82224 -0.91476,-0.54629 -1.62624,-1.31785 -2.13444,-2.30905 -0.5082,-0.99119 -0.7636,-2.02181 -0.7636,-3.09749 0,-1.08412 0.25801,-2.12601 0.77403,-3.12565 0.51601,-0.99683 1.23531,-1.76557 2.15789,-2.30341 0.92257,-0.53784 1.8686,-0.80535 2.83548,-0.80535 z m 0,1.03344 c -0.81051,0 -1.59756,0.22527 -2.36117,0.673 -0.7662,0.45054 -1.36562,1.08975 -1.79824,1.92608 -0.43262,0.8335 -0.64893,1.7008 -0.64893,2.60471 0,0.89545 0.21371,1.75712 0.63851,2.57936 0.4248,0.82225 1.019,1.46427 1.7826,1.92608 0.7636,0.45899 1.56109,0.6899 2.38984,0.6899 0.82876,0 1.62624,-0.23091 2.38984,-0.6899 0.76099,-0.46181 1.35519,-1.10102 1.77739,-1.92608 0.4222,-0.82224 0.63329,-1.68391 0.63329,-2.57936 0,-0.90109 -0.21631,-1.77121 -0.64632,-2.60471 -0.43002,-0.83351 -1.02943,-1.47554 -1.79564,-1.92608 -0.77142,-0.44773 -1.55847,-0.673 -2.36117,-0.673 z m -2.53056,8.64482 v -6.7103 h 2.13704 c 0.72972,0 1.25877,0.062 1.58453,0.18585 0.32577,0.1239 0.58899,0.34073 0.78185,0.64766 0.19546,0.30693 0.29189,0.63639 0.29189,0.98275 0,0.48997 -0.16159,0.91517 -0.48996,1.28124 -0.32577,0.36325 -0.75839,0.56599 -1.29786,0.61105 0.21892,0.0986 0.39353,0.21964 0.52905,0.3548 0.25019,0.2647 0.55511,0.70679 0.91736,1.33192 l 0.75839,1.31503 h -1.22228 l -0.5499,-1.05878 c -0.43523,-0.83069 -0.78184,-1.35445 -1.04767,-1.56283 -0.18504,-0.15487 -0.45087,-0.2309 -0.8053,-0.22808 h -0.58899 v 2.84969 h -0.99815 z m 0.99815,-3.77331 h 1.22228 c 0.58639,0 0.98252,-0.0929 1.19622,-0.28159 0.21371,-0.18867 0.32056,-0.43647 0.32056,-0.7434 0,-0.19711 -0.0521,-0.37451 -0.15376,-0.5322 -0.10164,-0.1577 -0.24498,-0.27315 -0.42741,-0.35199 -0.18243,-0.0788 -0.52123,-0.11545 -1.01119,-0.11545 h -1.1467 v 2.02463 z"
         id="path33" />
    </g>
    <g
       transform="translate(-740.13263,153.4158)"
       id="g3643">
      <path
         inkscape:connector-curvature="0"
         d="m 793.14168,481.81457 h 23.99837 l 8.67383,49.00317 12.64648,-49.00317 h 23.79784 l 12.71755,49.055 8.67891,-49.055 h 23.87398 l -18.02543,87.89851 h -24.78274 l -14.34469,-55.34067 -14.28124,55.34067 h -24.76751 l -18.18535,-87.89851 z"
         id="path19" />
      <path
         inkscape:connector-curvature="0"
         d="m 912.65628,481.81457 h 22.68853 v 16.62539 h -22.68853 v -16.62539 z m 0,24.2124 h 22.68853 v 63.68611 h -22.68853 v -63.68611 z"
         id="path21" />
      <path
         inkscape:connector-curvature="0"
         d="m 943.53889,506.02697 h 21.12739 v 10.35062 c 3.16289,-4.23409 6.36385,-7.25689 9.60289,-9.07384 3.23651,-1.81695 7.18378,-2.72543 11.83673,-2.72543 6.29024,0 11.21227,2.01065 14.7686,6.02923 3.5564,4.01857 5.3333,10.22514 5.3333,18.6224 v 40.48313 h -22.84595 v -35.0541 c 0,-4.00221 -0.68791,-6.83131 -2.06375,-8.49275 -1.37583,-1.65872 -3.31266,-2.49081 -5.80539,-2.49081 -2.75421,0 -4.9855,1.12127 -6.69894,3.36109 -1.71345,2.23982 -2.56635,6.26385 -2.56635,12.06392 v 30.61265 h -22.68853 v -63.68611 z"
         id="path23" />
      <path
         inkscape:connector-curvature="0"
         d="m 1075.799,481.81457 v 87.89851 h -21.2518 v -9.42851 c -2.97,4.00766 -5.681,6.71399 -8.1306,8.11627 -3.267,1.8415 -6.9046,2.76362 -10.9128,2.76362 -8.0544,0 -14.2076,-3.29835 -18.4569,-9.89776 -4.2494,-6.59668 -6.374,-14.61473 -6.374,-24.05143 0,-10.55797 2.348,-18.63605 7.0416,-24.23422 4.6961,-5.60091 10.6614,-8.4 17.8985,-8.4 3.5259,0 6.7268,0.64112 9.6054,1.92062 2.8761,1.2795 5.4272,3.20285 7.656,5.75914 v -30.44624 h 22.9246 z m -22.7596,55.86722 c 0,-4.99254 -0.9824,-8.71648 -2.9472,-11.17455 -1.9647,-2.45806 -4.4473,-3.68573 -7.4503,-3.68573 -2.6323,0 -4.8382,1.18129 -6.6151,3.53569 -1.7795,2.3544 -2.6679,6.3075 -2.6679,11.86203 0,5.19441 0.9163,9.00019 2.7516,11.41461 1.8353,2.41988 4.1047,3.62572 6.8107,3.62572 2.8912,0 5.3002,-1.21676 7.2269,-3.653 1.9292,-2.43898 2.8913,-6.4139 2.8913,-11.92477 z"
         id="path25" />
      <path
         inkscape:connector-curvature="0"
         d="m 1080.5788,538.05008 c 0,-9.71497 3.0487,-17.72211 9.1486,-24.02143 6.0998,-6.29931 14.337,-9.45033 24.7142,-9.45033 11.8646,0 20.8278,3.69938 26.8921,11.09541 4.8713,5.96103 7.3082,13.29977 7.3082,22.01623 0,9.79682 -3.0207,17.82306 -9.0648,24.08418 -6.044,6.25567 -14.403,9.38486 -25.0772,9.38486 -9.5216,0 -17.2207,-2.5972 -23.0972,-7.79707 -7.2167,-6.43572 -10.8239,-14.87392 -10.8239,-25.31185 z m 22.7673,-0.0382 c 0,5.68548 1.0661,9.88957 3.2035,12.61227 2.1348,2.7227 4.8179,4.08405 8.0493,4.08405 3.267,0 5.9527,-1.33952 8.0494,-4.02675 2.0968,-2.67906 3.1477,-6.98682 3.1477,-12.90965 0,-5.52451 -1.0585,-9.63858 -3.1756,-12.34219 -2.1171,-2.7036 -4.7342,-4.05404 -7.8565,-4.05404 -3.305,0 -6.0338,1.37227 -8.1889,4.11679 -2.1526,2.73908 -3.2289,6.91316 -3.2289,12.51952 z"
         id="path27" />
      <path
         inkscape:connector-curvature="0"
         d="m 1144.5347,506.02697 h 21.9499 l 9.5394,40.09846 12.0601,-40.09846 h 20.4243 l 12.5297,40.05208 9.5699,-40.05208 h 21.8127 l -21.8051,63.68611 h -20.1857 l -11.9915,-38.3197 -11.6057,38.3197 h -20.3101 l -21.9879,-63.68611 z"
         id="path29" />
      <path
         inkscape:connector-curvature="0"
         d="m 1248.7654,552.06463 22.5286,-2.30256 c 0.9291,2.87002 2.2338,4.92432 3.9117,6.16018 1.6754,1.23585 3.9118,1.85514 6.7066,1.85514 3.0563,0 5.4246,-0.69841 7.1,-2.09795 1.3047,-1.03943 1.9571,-2.3353 1.9571,-3.89581 0,-1.75967 -0.8605,-3.11556 -2.5765,-4.07314 -1.2286,-0.67931 -4.488,-1.51958 -9.7628,-2.51809 -7.8819,-1.47594 -13.3573,-2.84547 -16.4262,-4.10315 -3.0639,-1.25768 -5.6506,-3.38291 -7.7499,-6.38116 -2.1018,-2.99552 -3.1502,-6.41117 -3.1502,-10.24423 0,-4.19318 1.1322,-7.80526 3.4041,-10.84442 2.2668,-3.03099 5.3916,-5.30081 9.3693,-6.79858 3.9803,-1.49776 9.3161,-2.24527 16.0125,-2.24527 7.0644,0 12.2809,0.57837 15.6469,1.73511 3.366,1.15401 6.176,2.94641 8.4251,5.3772 2.249,2.43079 4.1173,5.71276 5.6048,9.8541 l -21.498,2.30256 c -0.561,-2.03248 -1.49,-3.52477 -2.7948,-4.48236 -1.7896,-1.27677 -3.9523,-1.91243 -6.4857,-1.91243 -2.574,0 -4.4473,0.49107 -5.6201,1.46774 -1.1728,0.97941 -1.7591,2.16889 -1.7591,3.56571 0,1.55778 0.7412,2.73906 2.2262,3.53569 1.4824,0.79935 4.7139,1.51959 9.6943,2.15797 7.5467,0.91939 13.1617,2.1989 16.8425,3.83306 3.6782,1.64236 6.4958,3.98039 8.4479,7.01683 1.952,3.03644 2.9268,6.37297 2.9268,10.01233 0,3.67756 -1.0331,7.25144 -3.0969,10.73258 -2.0637,3.47294 -5.3205,6.24475 -9.7628,8.30178 -4.4473,2.05702 -10.499,3.08827 -18.16,3.08827 -10.8239,0 -18.5305,-1.65326 -23.1226,-4.96798 -4.5895,-3.31197 -7.5366,-8.02077 -8.8388,-14.12912 z"
         id="path31" />
    </g>
    <g
       id="g3601"
       transform="matrix(1.0930603,0,0,1.1433666,-67.157801,-269.66267)">
      <path
         inkscape:connector-curvature="0"
         d="m 586.31583,848.73795 11.22765,-0.96868 c 0.94796,4.90531 2.76538,8.46461 5.44322,10.67509 2.67787,2.21049 6.11048,3.31714 10.30083,3.31714 3.58655,0 6.73235,-0.76593 9.44642,-2.29496 2.71709,-1.53467 4.93002,-3.57902 6.64179,-6.13867 1.7118,-2.56247 3.15185,-6.01759 4.31716,-10.37379 1.16534,-4.35339 1.74802,-8.78844 1.74802,-13.30796 0,-0.48434 -0.0208,-1.21084 -0.0633,-2.17669 -2.3337,3.46637 -5.52477,6.28228 -9.56417,8.43926 -4.04547,2.1598 -8.42298,3.23547 -13.13868,3.23547 -7.86749,0 -14.52739,-2.65821 -19.97666,-7.98308 -5.44927,-5.31925 -8.17244,-12.33648 -8.17244,-21.04325 0,-8.98837 2.84391,-16.22524 8.53167,-21.7078 5.69083,-5.48257 12.81565,-8.22244 21.38054,-8.22244 6.1859,0 11.84051,1.55438 16.96977,4.6575 5.12322,3.10595 9.01472,7.52973 11.67747,13.27699 2.65973,5.74444 3.98808,14.06262 3.98808,24.9489 0,11.3312 -1.31931,20.35617 -3.95488,27.06928 -2.63862,6.71312 -6.56027,11.82398 -11.76805,15.3326 -5.20776,3.50862 -11.31516,5.26011 -18.31621,5.26011 -7.43578,0 -13.51004,-1.92326 -18.21968,-5.7726 -4.71262,-3.84371 -7.54446,-9.25306 -8.49844,-16.22242 z m 47.73935,-39.16641 c 0,-6.25693 -1.77515,-11.22137 -5.32548,-14.89613 -3.55337,-3.67475 -7.85242,-5.51072 -12.89414,-5.51072 -5.21983,0 -9.74835,1.97958 -13.57944,5.93311 -3.83414,3.95634 -5.74817,9.0841 -5.74817,15.38046 0,5.65434 1.82047,10.24708 5.45834,13.77822 3.63787,3.53396 8.1513,5.29953 13.54623,5.29953 5.40096,0 9.84496,-1.76557 13.32586,-5.29953 3.47788,-3.53114 5.2168,-8.428 5.2168,-14.68494 z"
         id="path37" />
      <path
         inkscape:connector-curvature="0"
         style="font-size:43.95706177px;font-style:normal;font-weight:normal;fill:#000000;fill-opacity:1;stroke:none;font-family:Bitstream Vera Sans"
         d="m 661.62366,821.81092 c -4.83464,-1.65319 -8.41741,-4.01209 -10.7483,-7.07669 -2.33102,-3.0645 -3.49649,-6.73389 -3.49649,-11.00819 0,-6.45161 2.48202,-11.87506 7.44611,-16.27034 4.96408,-4.39513 11.56847,-6.59273 19.81323,-6.59282 8.28783,9e-5 14.95694,2.24809 20.00744,6.74402 5.0504,4.4961 7.57558,9.96995 7.57563,16.42156 -5e-5,4.11301 -1.15476,7.69168 -3.46404,10.73601 -2.30949,3.04444 -5.81669,5.39326 -10.52172,7.04645 5.82735,1.77426 10.26264,4.63719 13.30589,8.58881 3.04315,3.95169 4.56475,8.66948 4.5648,14.15339 -5e-5,7.58075 -2.87057,13.95178 -8.6116,19.11311 -5.74116,5.16136 -13.29518,7.74203 -22.66214,7.74203 -9.36709,0 -16.92111,-2.59076 -22.66219,-7.77227 -5.74109,-5.18149 -8.6116,-11.64326 -8.6116,-19.3853 0,-5.76616 1.56476,-10.59484 4.6943,-14.48605 3.12954,-3.89113 7.58641,-6.54237 13.37068,-7.95372 l 0,0 z m -2.33097,-18.44779 c -2e-5,4.19366 1.44602,7.62112 4.33817,10.28238 2.89212,2.66137 6.64753,3.99203 11.26635,3.99198 4.48922,5e-5 8.1691,-1.32053 11.03969,-3.96174 2.87049,-2.6411 4.30577,-5.87702 4.30582,-9.70777 -5e-5,-3.99191 -1.47849,-7.3488 -4.43529,-10.07068 -2.95696,-2.72173 -6.63684,-4.08263 -11.03975,-4.08271 -4.44611,8e-5 -8.13681,1.33074 -11.07206,3.99198 -2.9353,2.6614 -4.40295,5.84691 -4.40293,9.55656 l 0,0 z m -3.75545,40.94805 c 0,3.10489 0.78776,6.10895 2.36338,9.0122 1.57552,2.90327 3.91727,5.15128 7.02526,6.74402 3.10788,1.59277 6.45324,2.38915 10.03606,2.38915 5.56838,0 10.16554,-1.6734 13.79158,-5.02022 3.62585,-3.3468 5.43882,-7.60088 5.43887,-12.76225 -5e-5,-5.24196 -1.86699,-9.57668 -5.60077,-13.00417 -3.73393,-3.42742 -8.40662,-5.14115 -14.01817,-5.14119 -5.48209,4e-5 -10.02533,1.69361 -13.62966,5.0807 -3.6044,3.38717 -5.40655,7.62109 -5.40655,12.70176 l 0,0 z"
         id="text2429" />
    </g>
    <g
       transform="matrix(1.0872006,0.414276,-0.414276,1.0872006,-68.950933,-262.32295)"
       id="g3509">
      <polygon
         style="fill:#a8ce81;fill-rule:evenodd"
         clip-rule="evenodd"
         points="329.128,372.217 329.128,342.317 329.128,342.317 347.601,342.317 347.601,372.217 "
         id="polygon3234"
         transform="matrix(3.357686,0,0,3.4628058,-481.17152,-914.30628)" />
      <polygon
         style="fill:#fddb1d;fill-rule:evenodd"
         clip-rule="evenodd"
         points="329.128,402.689 329.128,372.788 329.128,372.788 347.601,372.788 347.601,402.689 "
         id="polygon3236"
         transform="matrix(3.357686,0,0,3.4628058,-481.17152,-914.30628)" />
      <polygon
         style="fill:#ef7066;fill-rule:evenodd"
         clip-rule="evenodd"
         points="306.651,372.979 306.651,343.085 306.651,343.085 325.125,343.085 325.125,372.979 "
         id="polygon3238"
         transform="matrix(3.357686,0,0,3.4628058,-481.17152,-914.30628)" />
      <polygon
         style="fill:#6eaed7;fill-rule:evenodd"
         clip-rule="evenodd"
         points="306.651,403.254 306.651,373.55 306.651,373.55 325.125,373.55 325.125,403.254 "
         id="polygon3240"
         transform="matrix(3.357686,0,0,3.4628058,-481.17152,-914.30628)" />
      <path
         style="fill:#000101;fill-rule:evenodd"
         inkscape:connector-curvature="0"
         clip-rule="evenodd"
         d="m 682.75354,363.39634 c -13.62884,-4.3943 -31.15261,-8.00947 -51.78223,-8.00947 -1.34979,0.10042 -2.60556,0.0242 -3.84791,0.0242 V 275.029 c 1.47067,-0.29088 2.92455,-0.31858 4.4758,0 20.34422,-0.31858 37.66988,3.19963 51.15434,7.25458 v 81.11276 l 0,0 0,0 z m 0,106.84487 c -13.61877,-4.07918 -31.15261,-7.69781 -51.78223,-7.94714 -1.33636,0.24933 -2.58542,0.24933 -3.84791,0 v -82.41131 c 1.47067,-0.14544 2.92455,-0.16968 4.4758,0 20.34422,-0.16968 37.66988,3.34507 51.15434,7.91597 v 82.44248 l 0,0 0,0 z m 33.25117,-207.7441 c 0,0 -31.91481,-22.15157 -83.76755,-22.42167 -52.0307,0.2701 -83.95894,17.78151 -83.76755,17.78151 v 36.29366 c -0.19139,-0.24239 20.49531,-12.91972 56.28489,-17.80574 v 81.11622 c -35.99775,4.59168 -56.38898,17.95119 -56.38898,17.80575 l 0.10409,25.05686 c 0,0 20.11925,-14.23906 56.28489,-19.12507 v 83.75834 c -29.74574,3.49744 -49.64003,11.72853 -56.28489,15.17055 v 34.95357 c 8.40764,-4.22809 37.8109,-16.386 81.21235,-16.386 51.90311,-0.10042 83.81456,21.32396 83.81456,21.00538 l 2.50819,-257.20336 0,0 z"
         id="path3242" />
      <polygon
         style="fill:#000101;fill-rule:evenodd"
         clip-rule="evenodd"
         points="295.799,353.553 295.799,343.27 295.799,343.27 305.51,339.08 305.51,349.364 "
         id="polygon3244"
         transform="matrix(3.357686,0,0,3.4628058,-481.17152,-914.30628)" />
      <polygon
         style="fill:#000101;fill-rule:evenodd"
         clip-rule="evenodd"
         points="295.799,417.348 295.799,407.07 295.799,407.07 305.51,402.881 305.51,412.975 "
         id="polygon3246"
         transform="matrix(3.357686,0,0,3.4628058,-481.17152,-914.30628)" />
      <polygon
         style="fill:#000101;fill-rule:evenodd"
         clip-rule="evenodd"
         points="295.799,405.928 295.799,396.594 295.799,396.594 305.51,392.404 305.51,401.738 "
         id="polygon3248"
         transform="matrix(3.357686,0,0,3.4628058,-481.17152,-914.30628)" />
      <polygon
         style="fill:#000101;fill-rule:evenodd"
         clip-rule="evenodd"
         points="295.799,364.028 295.799,354.696 295.799,354.696 305.51,350.506 305.51,359.838 "
         id="polygon3250"
         transform="matrix(3.357686,0,0,3.4628058,-481.17152,-914.30628)" />
      <polygon
         style="fill:#000101;fill-rule:evenodd"
         clip-rule="evenodd"
         points="295.799,384.977 295.799,375.645 295.799,375.645 305.51,371.455 305.51,380.787 "
         id="polygon3252"
         transform="matrix(3.357686,0,0,3.4628058,-481.17152,-914.30628)" />
      <polygon
         style="fill:#000101;fill-rule:evenodd"
         clip-rule="evenodd"
         points="295.799,395.451 295.799,386.12 295.799,386.12 305.51,381.93 305.51,391.262 "
         id="polygon3254"
         transform="matrix(3.357686,0,0,3.4628058,-481.17152,-914.30628)" />
      <polygon
         style="fill:#000101;fill-rule:evenodd"
         clip-rule="evenodd"
         points="295.799,374.502 295.799,365.17 295.799,365.17 305.51,360.98 305.51,370.313 "
         id="polygon3256"
         transform="matrix(3.357686,0,0,3.4628058,-481.17152,-914.30628)" />
      <polygon
         style="fill:#000101;fill-rule:evenodd"
         clip-rule="evenodd"
         points="285.134,354.505 285.134,346.507 285.134,346.507 294.467,342.317 294.467,350.506 "
         id="polygon3258"
         transform="matrix(3.357686,0,0,3.4628058,-481.17152,-914.30628)" />
      <polygon
         style="fill:#000101;fill-rule:evenodd"
         clip-rule="evenodd"
         points="250.856,344.602 250.856,341.174 250.856,341.174 254.666,339.467 254.666,342.889 "
         id="polygon3260"
         transform="matrix(3.357686,0,0,3.4628058,-481.17152,-914.30628)" />
      <polygon
         style="fill:#000101;fill-rule:evenodd"
         clip-rule="evenodd"
         points="275.423,353.553 275.423,347.269 275.423,347.269 283.61,343.65 283.61,349.935 "
         id="polygon3262"
         transform="matrix(3.357686,0,0,3.4628058,-481.17152,-914.30628)" />
      <polygon
         style="fill:#000101;fill-rule:evenodd"
         clip-rule="evenodd"
         points="266.662,351.268 266.662,346.507 266.662,346.507 273.33,343.65 273.33,348.412 "
         id="polygon3264"
         transform="matrix(3.357686,0,0,3.4628058,-481.17152,-914.30628)" />
      <polygon
         style="fill:#000101;fill-rule:evenodd"
         clip-rule="evenodd"
         points="258.663,347.65 258.663,343.84 258.663,343.84 264.188,341.555 264.188,345.174 "
         id="polygon3266"
         transform="matrix(3.357686,0,0,3.4628058,-481.17152,-914.30628)" />
      <polygon
         style="fill:#000101;fill-rule:evenodd"
         clip-rule="evenodd"
         points="285.134,386.5 285.134,378.501 285.134,378.501 294.467,374.502 294.467,382.501 "
         id="polygon3268"
         transform="matrix(3.357686,0,0,3.4628058,-481.17152,-914.30628)" />
      <polygon
         style="fill:#000101;fill-rule:evenodd"
         clip-rule="evenodd"
         points="250.856,376.597 250.856,373.169 250.856,373.169 254.666,371.455 254.666,375.074 "
         id="polygon3270"
         transform="matrix(3.357686,0,0,3.4628058,-481.17152,-914.30628)" />
      <polygon
         style="fill:#000101;fill-rule:evenodd"
         clip-rule="evenodd"
         points="275.423,385.548 275.423,379.263 275.423,379.263 283.61,375.645 283.61,381.93 "
         id="polygon3272"
         transform="matrix(3.357686,0,0,3.4628058,-481.17152,-914.30628)" />
      <polygon
         style="fill:#000101;fill-rule:evenodd"
         clip-rule="evenodd"
         points="266.662,383.263 266.662,378.501 266.662,378.501 273.33,375.645 273.33,380.406 "
         id="polygon3274"
         transform="matrix(3.357686,0,0,3.4628058,-481.17152,-914.30628)" />
      <polygon
         style="fill:#000101;fill-rule:evenodd"
         clip-rule="evenodd"
         points="258.663,379.644 258.663,376.026 258.663,376.026 264.188,373.55 264.188,377.168 "
         id="polygon3276"
         transform="matrix(3.357686,0,0,3.4628058,-481.17152,-914.30628)" />
      <polygon
         style="fill:#000101;fill-rule:evenodd"
         clip-rule="evenodd"
         points="285.134,418.299 285.134,410.301 285.134,410.301 294.467,406.111 294.467,414.117 "
         id="polygon3278"
         transform="matrix(3.357686,0,0,3.4628058,-481.17152,-914.30628)" />
      <polygon
         style="fill:#000101;fill-rule:evenodd"
         clip-rule="evenodd"
         points="250.856,408.402 250.856,404.785 250.856,404.785 254.666,403.254 254.666,406.689 "
         id="polygon3280"
         transform="matrix(3.357686,0,0,3.4628058,-481.17152,-914.30628)" />
      <polygon
         style="fill:#000101;fill-rule:evenodd"
         clip-rule="evenodd"
         points="275.423,417.164 275.423,411.063 275.423,411.063 283.61,407.443 283.61,413.545 "
         id="polygon3282"
         transform="matrix(3.357686,0,0,3.4628058,-481.17152,-914.30628)" />
      <polygon
         style="fill:#000101;fill-rule:evenodd"
         clip-rule="evenodd"
         points="266.662,414.879 266.662,410.301 266.662,410.301 273.33,407.443 273.33,412.021 "
         id="polygon3284"
         transform="matrix(3.357686,0,0,3.4628058,-481.17152,-914.30628)" />
      <polygon
         style="fill:#000101;fill-rule:evenodd"
         clip-rule="evenodd"
         points="258.663,411.26 258.663,407.641 258.663,407.641 264.188,405.35 264.188,408.967 "
         id="polygon3286"
         transform="matrix(3.357686,0,0,3.4628058,-481.17152,-914.30628)" />
      <polygon
         style="fill:#ef7066;fill-rule:evenodd"
         clip-rule="evenodd"
         points="259.616,357.743 259.616,354.315 259.616,354.315 263.614,352.411 263.614,355.838 "
         id="polygon3288"
         transform="matrix(3.357686,0,0,3.4628058,-481.17152,-914.30628)" />
      <polygon
         style="fill:#ef7066;fill-rule:evenodd"
         clip-rule="evenodd"
         points="286.276,364.218 286.276,357.553 286.276,357.553 293.896,354.315 293.896,360.791 "
         id="polygon3290"
         transform="matrix(3.357686,0,0,3.4628058,-481.17152,-914.30628)" />
      <polygon
         style="fill:#ef7066;fill-rule:evenodd"
         clip-rule="evenodd"
         points="276.374,363.266 276.374,357.743 276.374,357.743 283.231,354.696 283.231,360.219 "
         id="polygon3292"
         transform="matrix(3.357686,0,0,3.4628058,-481.17152,-914.30628)" />
      <polygon
         style="fill:#ef7066;fill-rule:evenodd"
         clip-rule="evenodd"
         points="267.616,361.361 267.616,357.172 267.616,357.172 272.945,354.886 272.945,359.076 "
         id="polygon3294"
         transform="matrix(3.357686,0,0,3.4628058,-481.17152,-914.30628)" />
      <polygon
         style="fill:#ef7066;fill-rule:evenodd"
         clip-rule="evenodd"
         points="251.046,354.505 251.046,351.649 251.046,351.649 254.095,350.315 254.095,353.173 "
         id="polygon3296"
         transform="matrix(3.357686,0,0,3.4628058,-481.17152,-914.30628)" />
      <polygon
         style="fill:#ef7066;fill-rule:evenodd"
         clip-rule="evenodd"
         points="259.616,368.218 259.616,364.79 259.616,364.79 263.614,362.885 263.614,366.313 "
         id="polygon3298"
         transform="matrix(3.357686,0,0,3.4628058,-481.17152,-914.30628)" />
      <polygon
         style="fill:#ef7066;fill-rule:evenodd"
         clip-rule="evenodd"
         points="286.276,374.692 286.276,368.027 286.276,368.027 293.896,364.599 293.896,371.265 "
         id="polygon3300"
         transform="matrix(3.357686,0,0,3.4628058,-481.17152,-914.30628)" />
      <polygon
         style="fill:#ef7066;fill-rule:evenodd"
         clip-rule="evenodd"
         points="276.374,373.55 276.374,368.218 276.374,368.218 283.231,365.17 283.231,370.693 "
         id="polygon3302"
         transform="matrix(3.357686,0,0,3.4628058,-481.17152,-914.30628)" />
      <polygon
         style="fill:#ef7066;fill-rule:evenodd"
         clip-rule="evenodd"
         points="267.616,371.836 267.616,367.646 267.616,367.646 272.945,365.361 272.945,369.36 "
         id="polygon3304"
         transform="matrix(3.357686,0,0,3.4628058,-481.17152,-914.30628)" />
      <polygon
         style="fill:#ef7066;fill-rule:evenodd"
         clip-rule="evenodd"
         points="251.046,364.98 251.046,361.933 251.046,361.933 254.095,360.6 254.095,363.647 "
         id="polygon3306"
         transform="matrix(3.357686,0,0,3.4628058,-481.17152,-914.30628)" />
      <polygon
         style="fill:#6eaed7;fill-rule:evenodd"
         clip-rule="evenodd"
         points="259.616,389.738 259.616,386.31 259.616,386.31 263.614,384.596 263.614,388.024 "
         id="polygon3308"
         transform="matrix(3.357686,0,0,3.4628058,-481.17152,-914.30628)" />
      <polygon
         style="fill:#6eaed7;fill-rule:evenodd"
         clip-rule="evenodd"
         points="286.276,396.404 286.276,389.738 286.276,389.738 293.896,386.31 293.896,392.976 "
         id="polygon3310"
         transform="matrix(3.357686,0,0,3.4628058,-481.17152,-914.30628)" />
      <polygon
         style="fill:#6eaed7;fill-rule:evenodd"
         clip-rule="evenodd"
         points="276.374,395.261 276.374,389.738 276.374,389.738 283.231,386.881 283.231,392.213 "
         id="polygon3312"
         transform="matrix(3.357686,0,0,3.4628058,-481.17152,-914.30628)" />
      <polygon
         style="fill:#6eaed7;fill-rule:evenodd"
         clip-rule="evenodd"
         points="267.616,393.356 267.616,389.357 267.616,389.357 272.945,387.072 272.945,391.071 "
         id="polygon3314"
         transform="matrix(3.357686,0,0,3.4628058,-481.17152,-914.30628)" />
      <polygon
         style="fill:#6eaed7;fill-rule:evenodd"
         clip-rule="evenodd"
         points="251.046,386.691 251.046,383.644 251.046,383.644 254.095,382.311 254.095,385.357 "
         id="polygon3316"
         transform="matrix(3.357686,0,0,3.4628058,-481.17152,-914.30628)" />
      <polygon
         style="fill:#6eaed7;fill-rule:evenodd"
         clip-rule="evenodd"
         points="259.616,400.213 259.616,396.785 259.616,396.785 263.614,395.07 263.614,398.5 "
         id="polygon3318"
         transform="matrix(3.357686,0,0,3.4628058,-481.17152,-914.30628)" />
      <polygon
         style="fill:#6eaed7;fill-rule:evenodd"
         clip-rule="evenodd"
         points="286.276,406.689 286.276,400.213 286.276,400.213 293.896,396.785 293.896,403.451 "
         id="polygon3320"
         transform="matrix(3.357686,0,0,3.4628058,-481.17152,-914.30628)" />
      <polygon
         style="fill:#6eaed7;fill-rule:evenodd"
         clip-rule="evenodd"
         points="276.374,405.736 276.374,400.213 276.374,400.213 283.231,397.166 283.231,402.689 "
         id="polygon3322"
         transform="matrix(3.357686,0,0,3.4628058,-481.17152,-914.30628)" />
      <polygon
         style="fill:#6eaed7;fill-rule:evenodd"
         clip-rule="evenodd"
         points="267.616,403.832 267.616,399.834 267.616,399.834 272.945,397.355 272.945,401.547 "
         id="polygon3324"
         transform="matrix(3.357686,0,0,3.4628058,-481.17152,-914.30628)" />
      <polygon
         style="fill:#6eaed7;fill-rule:evenodd"
         clip-rule="evenodd"
         points="251.046,396.975 251.046,394.118 251.046,394.118 254.095,392.785 254.095,395.642 "
         id="polygon3326"
         transform="matrix(3.357686,0,0,3.4628058,-481.17152,-914.30628)" />
    </g>
  </g>
</svg>
